<svg width="412" height="129" viewBox="0 0 412 129" fill="none" xmlns="http://www.w3.org/2000/svg">
<g filter="url(#filter0_dii)">
<path d="M81.3333 39.6667C85.0152 35.9848 85.0152 30.0152 81.3333 26.3333L67.3137 12.3137C61.9804 6.98038 59.3137 4.31371 56 4.31371C52.6863 4.31371 50.0196 6.98037 44.6863 12.3137L30.6667 26.3333C26.9848 30.0152 26.9848 35.9848 30.6667 39.6667C31.403 40.403 32.597 40.403 33.3333 39.6667L44.6863 28.3137C50.0196 22.9804 52.6863 20.3137 56 20.3137C59.3137 20.3137 61.9804 22.9804 67.3137 28.3137L78.6667 39.6667C79.403 40.403 80.597 40.403 81.3333 39.6667Z" fill="#FFAF2D"/>
</g>
<g filter="url(#filter1_diiii)">
<path d="M40 41C47.0605 33.9395 50.5908 30.4092 54.9234 30.019C55.6397 29.9544 56.3603 29.9544 57.0766 30.019C61.4092 30.4092 64.9395 33.9395 72 41C79.0605 48.0605 82.5908 51.5908 82.981 55.9234C83.0456 56.6397 83.0456 57.3603 82.981 58.0766C82.5908 62.4092 79.0605 65.9395 72 73C64.9395 80.0605 61.4092 83.5908 57.0766 83.981C56.3603 84.0456 55.6397 84.0456 54.9234 83.981C50.5908 83.5908 47.0605 80.0605 40 73C32.9395 65.9395 29.4092 62.4092 29.019 58.0766C28.9544 57.3603 28.9544 56.6397 29.019 55.9234C29.4092 51.5908 32.9395 48.0605 40 41Z" fill="#9B4BE6"/>
</g>
<path d="M123.349 29.4507H116.118C113.341 29.4507 112 30.938 112 33.9127V56.538C112 59.5127 113.341 61 116.118 61C118.895 61 120.284 59.5127 120.284 56.538V51.3549H123.349C127.85 51.3549 131.298 50.4535 133.596 48.5606C135.894 46.6676 137.044 43.9634 137.044 40.4028C137.044 36.8423 135.894 34.138 133.596 32.2451C131.298 30.3972 127.85 29.4507 123.349 29.4507ZM122.822 44.2789H120.284V36.5268H122.822C124.833 36.5268 126.27 36.8873 127.132 37.5183C127.993 38.1493 128.424 39.1408 128.424 40.4028C128.424 41.7099 127.993 42.7014 127.132 43.3324C126.27 43.9634 124.833 44.2789 122.822 44.2789Z" fill="#6E35A2"/>
<path d="M160.561 43.6479V56.538C160.561 57.9803 160.896 59.062 161.566 59.8282C162.237 60.6394 163.242 61 164.679 61C167.456 61 168.893 59.5127 168.893 56.538V51.7606H179.715V56.538C179.715 59.5127 181.103 61 183.928 61C185.317 61 186.371 60.6394 187.041 59.8282C187.711 59.062 188.047 57.9803 188.047 56.538V43.6479C188.047 38.9606 186.802 35.3099 184.407 32.7859C182.013 30.262 178.613 29 174.304 29C169.946 29 166.546 30.262 164.152 32.7859C161.758 35.3099 160.561 38.9606 160.561 43.6479ZM168.893 44.8197V44.0986C168.893 41.4394 169.276 39.5014 170.09 38.2394C170.904 36.9775 172.292 36.3465 174.304 36.3465C176.267 36.3465 177.656 36.9775 178.47 38.2394C179.284 39.5014 179.715 41.4394 179.715 44.0986V44.8197H168.893Z" fill="#6E35A2"/>
<path d="M237.444 35.4901C238.162 34.5437 238.545 33.5972 238.545 32.6056C238.545 31.6592 238.115 30.8028 237.3 30.0817C236.486 29.3606 235.481 29 234.332 29C233.087 29 231.842 29.7662 230.692 31.2986L224.228 39.862L217.764 31.2986C216.566 29.7662 215.369 29 214.124 29C212.927 29 211.922 29.3606 211.108 30.0817C210.293 30.8028 209.91 31.6592 209.91 32.6056C209.91 33.5972 210.246 34.5437 211.012 35.4901L220.062 47.4338V56.538C220.062 57.9803 220.397 59.062 221.068 59.8282C221.738 60.6394 222.744 61 224.18 61C226.957 61 228.394 59.5127 228.394 56.538V47.4338L237.444 35.4901Z" fill="#6E35A2"/>
<path d="M281.887 29.4507H263.068C261.727 29.4507 260.626 29.7662 259.86 30.3521C259.094 30.938 258.711 31.8394 258.711 33.0113C258.711 34.1831 259.094 35.0845 259.86 35.6704C260.626 36.2563 261.727 36.5268 263.068 36.5268H268.288V56.538C268.288 57.9803 268.623 59.062 269.293 59.8282C269.963 60.6394 270.969 61 272.406 61C275.183 61 276.619 59.5127 276.619 56.538V36.5268H281.887C283.228 36.5268 284.233 36.2563 284.999 35.6704C285.765 35.0845 286.149 34.1831 286.149 33.0113C286.149 31.8394 285.765 30.938 284.999 30.3521C284.233 29.7662 283.228 29.4507 281.887 29.4507Z" fill="#6E35A2"/>
<path d="M310.128 59.8282C310.798 60.6394 311.804 61 313.24 61C316.018 61 317.454 59.5127 317.454 56.538V33.462C317.454 30.4873 316.018 29 313.24 29C311.804 29 310.798 29.4056 310.128 30.1718C309.458 30.9831 309.122 32.0648 309.122 33.462V56.538C309.122 57.9803 309.458 59.062 310.128 59.8282Z" fill="#6E35A2"/>
<path d="M361.195 53.4732H351.666V33.462C351.666 30.4873 350.229 29 347.452 29C346.015 29 345.01 29.4056 344.339 30.1718C343.669 30.9831 343.334 32.0648 343.334 33.462V56.0873C343.334 57.5296 343.669 58.6113 344.339 59.3775C345.01 60.1887 346.015 60.5493 347.452 60.5493H361.195C362.535 60.5493 363.541 60.2789 364.307 59.693C365.073 59.107 365.456 58.2056 365.456 56.9887C365.456 55.8169 365.073 54.9606 364.307 54.3746C363.541 53.7887 362.535 53.4732 361.195 53.4732Z" fill="#6E35A2"/>
<path d="M407.738 53.4732H396.773V48.2451H405.679C407.02 48.2451 408.026 47.9746 408.792 47.3887C409.558 46.8028 409.941 45.9014 409.941 44.7296C409.941 43.5577 409.558 42.7014 408.792 42.0704C408.026 41.4845 407.02 41.169 405.679 41.169H396.773V36.5268H407.738C409.079 36.5268 410.085 36.2563 410.851 35.6704C411.617 35.0845 412 34.1831 412 33.0113C412 31.8394 411.617 30.938 410.851 30.3521C410.085 29.7662 409.079 29.4507 407.738 29.4507H392.559C391.122 29.4507 390.117 29.8563 389.446 30.6225C388.776 31.4338 388.441 32.5155 388.441 33.9127V56.0873C388.441 57.5296 388.776 58.6113 389.446 59.3775C390.117 60.1887 391.122 60.5493 392.559 60.5493H407.738C409.079 60.5493 410.085 60.2789 410.851 59.693C411.617 59.107 412 58.2056 412 56.9887C412 55.8169 411.617 54.9606 410.851 54.3746C410.085 53.7887 409.079 53.4732 407.738 53.4732Z" fill="#6E35A2"/>
<defs>
<filter id="filter0_dii" x="15.9052" y="0.313721" width="80.1895" height="59.9052" filterUnits="userSpaceOnUse" color-interpolation-filters="sRGB">
<feFlood flood-opacity="0" result="BackgroundImageFix"/>
<feColorMatrix in="SourceAlpha" type="matrix" values="0 0 0 0 0 0 0 0 0 0 0 0 0 0 0 0 0 0 127 0"/>
<feOffset dy="8"/>
<feGaussianBlur stdDeviation="6"/>
<feColorMatrix type="matrix" values="0 0 0 0 1 0 0 0 0 0.686275 0 0 0 0 0.176471 0 0 0 0.15 0"/>
<feBlend mode="normal" in2="BackgroundImageFix" result="effect1_dropShadow"/>
<feBlend mode="normal" in="SourceGraphic" in2="effect1_dropShadow" result="shape"/>
<feColorMatrix in="SourceAlpha" type="matrix" values="0 0 0 0 0 0 0 0 0 0 0 0 0 0 0 0 0 0 127 0" result="hardAlpha"/>
<feOffset dy="-4"/>
<feGaussianBlur stdDeviation="3"/>
<feComposite in2="hardAlpha" operator="arithmetic" k2="-1" k3="1"/>
<feColorMatrix type="matrix" values="0 0 0 0 0 0 0 0 0 0 0 0 0 0 0 0 0 0 0.35 0"/>
<feBlend mode="overlay" in2="shape" result="effect2_innerShadow"/>
<feColorMatrix in="SourceAlpha" type="matrix" values="0 0 0 0 0 0 0 0 0 0 0 0 0 0 0 0 0 0 127 0" result="hardAlpha"/>
<feOffset dy="8"/>
<feGaussianBlur stdDeviation="4"/>
<feComposite in2="hardAlpha" operator="arithmetic" k2="-1" k3="1"/>
<feColorMatrix type="matrix" values="0 0 0 0 1 0 0 0 0 1 0 0 0 0 1 0 0 0 0.25 0"/>
<feBlend mode="overlay" in2="effect2_innerShadow" result="effect3_innerShadow"/>
</filter>
<filter id="filter1_diiii" x="0.970562" y="17.9705" width="110.059" height="110.059" filterUnits="userSpaceOnUse" color-interpolation-filters="sRGB">
<feFlood flood-opacity="0" result="BackgroundImageFix"/>
<feColorMatrix in="SourceAlpha" type="matrix" values="0 0 0 0 0 0 0 0 0 0 0 0 0 0 0 0 0 0 127 0"/>
<feOffset dy="16"/>
<feGaussianBlur stdDeviation="14"/>
<feColorMatrix type="matrix" values="0 0 0 0 0.615686 0 0 0 0 0.294118 0 0 0 0 0.905882 0 0 0 0.3 0"/>
<feBlend mode="normal" in2="BackgroundImageFix" result="effect1_dropShadow"/>
<feBlend mode="normal" in="SourceGraphic" in2="effect1_dropShadow" result="shape"/>
<feColorMatrix in="SourceAlpha" type="matrix" values="0 0 0 0 0 0 0 0 0 0 0 0 0 0 0 0 0 0 127 0" result="hardAlpha"/>
<feOffset dy="-5"/>
<feGaussianBlur stdDeviation="9"/>
<feComposite in2="hardAlpha" operator="arithmetic" k2="-1" k3="1"/>
<feColorMatrix type="matrix" values="0 0 0 0 0 0 0 0 0 0 0 0 0 0 0 0 0 0 0.1 0"/>
<feBlend mode="multiply" in2="shape" result="effect2_innerShadow"/>
<feColorMatrix in="SourceAlpha" type="matrix" values="0 0 0 0 0 0 0 0 0 0 0 0 0 0 0 0 0 0 127 0" result="hardAlpha"/>
<feOffset dy="-5"/>
<feGaussianBlur stdDeviation="2"/>
<feComposite in2="hardAlpha" operator="arithmetic" k2="-1" k3="1"/>
<feColorMatrix type="matrix" values="0 0 0 0 1 0 0 0 0 1 0 0 0 0 1 0 0 0 0.4 0"/>
<feBlend mode="soft-light" in2="effect2_innerShadow" result="effect3_innerShadow"/>
<feColorMatrix in="SourceAlpha" type="matrix" values="0 0 0 0 0 0 0 0 0 0 0 0 0 0 0 0 0 0 127 0" result="hardAlpha"/>
<feOffset dy="16"/>
<feGaussianBlur stdDeviation="14"/>
<feComposite in2="hardAlpha" operator="arithmetic" k2="-1" k3="1"/>
<feColorMatrix type="matrix" values="0 0 0 0 1 0 0 0 0 1 0 0 0 0 1 0 0 0 0.5 0"/>
<feBlend mode="overlay" in2="effect3_innerShadow" result="effect4_innerShadow"/>
<feColorMatrix in="SourceAlpha" type="matrix" values="0 0 0 0 0 0 0 0 0 0 0 0 0 0 0 0 0 0 127 0" result="hardAlpha"/>
<feOffset dy="-5"/>
<feGaussianBlur stdDeviation="9"/>
<feComposite in2="hardAlpha" operator="arithmetic" k2="-1" k3="1"/>
<feColorMatrix type="matrix" values="0 0 0 0 0 0 0 0 0 0 0 0 0 0 0 0 0 0 0.1 0"/>
<feBlend mode="multiply" in2="effect4_innerShadow" result="effect5_innerShadow"/>
</filter>
</defs>
</svg>
