<svg width="240" height="192" viewBox="0 0 240 192" fill="none" xmlns="http://www.w3.org/2000/svg">
<path d="M159 57C159.478 56.5221 159.717 56.2831 159.909 56.0715C164.07 51.4946 164.07 44.5053 159.909 39.9285C159.717 39.7169 159.478 39.4779 159 39L136.971 16.9706C128.971 8.97056 124.971 4.97056 120 4.97056C115.029 4.97056 111.029 8.97056 103.029 16.9706L81 39C80.5221 39.4779 80.2831 39.7169 80.0908 39.9285C75.9305 44.5054 75.9305 51.4946 80.0908 56.0715C80.2831 56.2831 80.5221 56.5221 81 57C81.1593 57.1593 81.239 57.239 81.3095 57.3031C82.8351 58.6898 85.1649 58.6898 86.6905 57.3031C86.761 57.239 86.8407 57.1593 87 57L103.029 40.9706C111.029 32.9706 115.029 28.9706 120 28.9706C124.971 28.9706 128.971 32.9706 136.971 40.9706L153 57C153.159 57.1593 153.239 57.239 153.309 57.3031C154.835 58.6898 157.165 58.6898 158.691 57.3031C158.761 57.239 158.841 57.1593 159 57Z" fill="#FFAF2D"/>
<path d="M103.029 52.9706C111.029 44.9706 115.029 40.9706 120 40.9706C124.971 40.9706 128.971 44.9706 136.971 52.9706L151.029 67.0294C159.029 75.0294 163.029 79.0294 163.029 84C163.029 88.9706 159.029 92.9706 151.029 100.971L136.971 115.029C128.971 123.029 124.971 127.029 120 127.029C115.029 127.029 111.029 123.029 103.029 115.029L88.9706 100.971C80.9706 92.9706 76.9706 88.9706 76.9706 84C76.9706 79.0294 80.9706 75.0294 88.9706 67.0294L103.029 52.9706Z" fill="#9B4BE6"/>
<path d="M9.07894 163.561H3.29447C1.07262 163.561 0 164.75 0 167.13V185.23C0 187.61 1.07262 188.8 3.29447 188.8C5.51632 188.8 6.62725 187.61 6.62725 185.23V181.084H9.07894C12.6799 181.084 15.438 180.363 17.2768 178.848C19.1156 177.334 20.035 175.171 20.035 172.322C20.035 169.474 19.1156 167.31 17.2768 165.796C15.438 164.318 12.6799 163.561 9.07894 163.561ZM8.65756 175.423H6.62725V169.221H8.65756C10.2665 169.221 11.4157 169.51 12.1053 170.015C12.7948 170.519 13.1396 171.313 13.1396 172.322C13.1396 173.368 12.7948 174.161 12.1053 174.666C11.4157 175.171 10.2665 175.423 8.65756 175.423Z" fill="#6E35A2"/>
<path d="M38.8486 174.918V185.23C38.8486 186.384 39.1167 187.25 39.653 187.862C40.1893 188.511 40.9938 188.8 42.143 188.8C44.3649 188.8 45.5141 187.61 45.5141 185.23V181.408H54.1717V185.23C54.1717 187.61 55.2826 188.8 57.5428 188.8C58.6537 188.8 59.4965 188.511 60.0328 187.862C60.5691 187.25 60.8372 186.384 60.8372 185.23V174.918C60.8372 171.168 59.8412 168.248 57.9258 166.229C56.0105 164.21 53.2906 163.2 49.8429 163.2C46.3569 163.2 43.637 164.21 41.7217 166.229C39.8063 168.248 38.8486 171.168 38.8486 174.918ZM45.5141 175.856V175.279C45.5141 173.151 45.8206 171.601 46.4718 170.591C47.1231 169.582 48.234 169.077 49.8429 169.077C51.4135 169.077 52.5245 169.582 53.1757 170.591C53.8269 171.601 54.1717 173.151 54.1717 175.279V175.856H45.5141Z" fill="#6E35A2"/>
<path d="M100.355 168.392C100.93 167.635 101.236 166.878 101.236 166.084C101.236 165.327 100.892 164.642 100.24 164.065C99.5891 163.488 98.7847 163.2 97.8653 163.2C96.8693 163.2 95.8733 163.813 94.9539 165.039L89.7824 171.89L84.6108 165.039C83.6531 163.813 82.6954 163.2 81.6994 163.2C80.7417 163.2 79.9373 163.488 79.286 164.065C78.6348 164.642 78.3283 165.327 78.3283 166.084C78.3283 166.878 78.5965 167.635 79.2094 168.392L86.4496 177.947V185.23C86.4496 186.384 86.7177 187.25 87.254 187.862C87.7904 188.511 88.5948 188.8 89.744 188.8C91.9659 188.8 93.1151 187.61 93.1151 185.23V177.947L100.355 168.392Z" fill="#6E35A2"/>
<path d="M135.909 163.561H120.854C119.782 163.561 118.901 163.813 118.288 164.282C117.675 164.75 117.368 165.472 117.368 166.409C117.368 167.346 117.675 168.068 118.288 168.536C118.901 169.005 119.782 169.221 120.854 169.221H125.03V185.23C125.03 186.384 125.298 187.25 125.834 187.862C126.371 188.511 127.175 188.8 128.324 188.8C130.546 188.8 131.696 187.61 131.696 185.23V169.221H135.909C136.982 169.221 137.786 169.005 138.399 168.536C139.012 168.068 139.319 167.346 139.319 166.409C139.319 165.472 139.012 164.75 138.399 164.282C137.786 163.813 136.982 163.561 135.909 163.561Z" fill="#6E35A2"/>
<path d="M158.502 187.862C159.039 188.511 159.843 188.8 160.992 188.8C163.214 188.8 164.363 187.61 164.363 185.23V166.77C164.363 164.39 163.214 163.2 160.992 163.2C159.843 163.2 159.039 163.524 158.502 164.137C157.966 164.786 157.698 165.652 157.698 166.77V185.23C157.698 186.384 157.966 187.25 158.502 187.862Z" fill="#6E35A2"/>
<path d="M199.356 182.779H191.733V166.77C191.733 164.39 190.583 163.2 188.361 163.2C187.212 163.2 186.408 163.524 185.871 164.137C185.335 164.786 185.067 165.652 185.067 166.77V184.87C185.067 186.024 185.335 186.889 185.871 187.502C186.408 188.151 187.212 188.439 188.361 188.439H199.356C200.428 188.439 201.233 188.223 201.846 187.754C202.459 187.286 202.765 186.564 202.765 185.591C202.765 184.653 202.459 183.968 201.846 183.5C201.233 183.031 200.428 182.779 199.356 182.779Z" fill="#6E35A2"/>
<path d="M236.591 182.779H227.818V178.596H234.943C236.016 178.596 236.82 178.38 237.433 177.911C238.046 177.442 238.353 176.721 238.353 175.784C238.353 174.846 238.046 174.161 237.433 173.656C236.82 173.188 236.016 172.935 234.943 172.935H227.818V169.221H236.591C237.663 169.221 238.468 169.005 239.081 168.536C239.694 168.068 240 167.346 240 166.409C240 165.472 239.694 164.75 239.081 164.282C238.468 163.813 237.663 163.561 236.591 163.561H224.447C223.298 163.561 222.493 163.885 221.957 164.498C221.421 165.147 221.153 166.012 221.153 167.13V184.87C221.153 186.024 221.421 186.889 221.957 187.502C222.493 188.151 223.298 188.439 224.447 188.439H236.591C237.663 188.439 238.468 188.223 239.081 187.754C239.694 187.286 240 186.564 240 185.591C240 184.653 239.694 183.968 239.081 183.5C238.468 183.031 237.663 182.779 236.591 182.779Z" fill="#6E35A2"/>
</svg>
