<svg width="98" height="90" viewBox="0 0 98 90" fill="none" xmlns="http://www.w3.org/2000/svg">
<path d="M65.8164 26.2812C68.3189 23.7787 68.3189 19.7213 65.8164 17.2188L56.2874 7.68979C52.6624 4.06479 50.8499 2.25229 48.5977 2.25229C46.3454 2.25229 44.5329 4.06479 40.9079 7.68978L31.3789 17.2187C28.8764 19.7213 28.8764 23.7787 31.3789 26.2812C31.8794 26.7818 32.6909 26.7818 33.1914 26.2812L40.9079 18.5648C44.5329 14.9398 46.3454 13.1273 48.5977 13.1273C50.8499 13.1273 52.6624 14.9398 56.2874 18.5648L64.0039 26.2812C64.5044 26.7818 65.3159 26.7818 65.8164 26.2812Z" fill="#FFAF2D"/>
<path d="M40.9079 24.0023C44.5329 20.3773 46.3454 18.5648 48.5977 18.5648C50.8499 18.5648 52.6624 20.3773 56.2874 24.0023L62.6579 30.3727C66.2829 33.9977 68.0954 35.8102 68.0954 38.0625C68.0954 40.3148 66.2829 42.1273 62.6579 45.7523L56.2874 52.1227C52.6624 55.7477 50.8499 57.5602 48.5977 57.5602C46.3454 57.5602 44.5329 55.7477 40.9079 52.1227L34.5374 45.7523C30.9124 42.1273 29.0999 40.3148 29.0999 38.0625C29.0999 35.8102 30.9124 33.9977 34.5374 30.3727L40.9079 24.0023Z" fill="white"/>
<path d="M3.67679 77.6375H1.3342C0.434389 77.6375 0 78.143 0 79.1539V86.843C0 87.8539 0.434389 88.3594 1.3342 88.3594C2.234 88.3594 2.68391 87.8539 2.68391 86.843V85.0816H3.67679C5.1351 85.0816 6.2521 84.7752 6.99677 84.1319C7.74144 83.4886 8.11377 82.5696 8.11377 81.3596C8.11377 80.1495 7.74144 79.2305 6.99677 78.5872C6.2521 77.9592 5.1351 77.6375 3.67679 77.6375ZM3.50614 82.6768H2.68391V80.0423H3.50614C4.15773 80.0423 4.62314 80.1648 4.90239 80.3793C5.18164 80.5937 5.32127 80.9307 5.32127 81.3596C5.32127 81.8037 5.18164 82.1407 4.90239 82.3551C4.62314 82.5696 4.15773 82.6768 3.50614 82.6768Z" fill="white"/>
<path d="M15.7329 82.4624V86.843C15.7329 87.3331 15.8415 87.7007 16.0587 87.9611C16.2759 88.2368 16.6017 88.3594 17.0671 88.3594C17.9669 88.3594 18.4323 87.8539 18.4323 86.843V85.2194H21.9385V86.843C21.9385 87.8539 22.3884 88.3594 23.3037 88.3594C23.7536 88.3594 24.0949 88.2368 24.3121 87.9611C24.5293 87.7007 24.6379 87.3331 24.6379 86.843V82.4624C24.6379 80.8694 24.2345 79.6287 23.4588 78.771C22.6831 77.9132 21.5817 77.4844 20.1854 77.4844C18.7736 77.4844 17.6722 77.9132 16.8965 78.771C16.1208 79.6287 15.7329 80.8694 15.7329 82.4624ZM18.4323 82.8606V82.6155C18.4323 81.7118 18.5564 81.0532 18.8202 80.6243C19.0839 80.1955 19.5338 79.981 20.1854 79.981C20.8215 79.981 21.2714 80.1955 21.5351 80.6243C21.7989 81.0532 21.9385 81.7118 21.9385 82.6155V82.8606H18.4323Z" fill="white"/>
<path d="M40.6419 79.69C40.8746 79.3684 40.9988 79.0467 40.9988 78.7097C40.9988 78.3881 40.8591 78.0971 40.5954 77.852C40.3317 77.6069 40.0059 77.4844 39.6335 77.4844C39.2302 77.4844 38.8268 77.7448 38.4545 78.2655L36.3601 81.1757L34.2657 78.2655C33.8779 77.7448 33.49 77.4844 33.0867 77.4844C32.6988 77.4844 32.373 77.6069 32.1093 77.852C31.8456 78.0971 31.7214 78.3881 31.7214 78.7097C31.7214 79.0467 31.83 79.3684 32.0783 79.69L35.0104 83.749V86.843C35.0104 87.3331 35.119 87.7007 35.3362 87.9611C35.5534 88.2368 35.8792 88.3594 36.3446 88.3594C37.2444 88.3594 37.7098 87.8539 37.7098 86.843V83.749L40.6419 79.69Z" fill="white"/>
<path d="M55.0407 77.6375H48.9437C48.5093 77.6375 48.1525 77.7448 47.9043 77.9439C47.656 78.143 47.5319 78.4493 47.5319 78.8476C47.5319 79.2458 47.656 79.5522 47.9043 79.7513C48.1525 79.9504 48.5093 80.0423 48.9437 80.0423H50.6347V86.843C50.6347 87.3331 50.7433 87.7007 50.9605 87.9611C51.1777 88.2368 51.5035 88.3594 51.9689 88.3594C52.8687 88.3594 53.3341 87.8539 53.3341 86.843V80.0423H55.0407C55.475 80.0423 55.8008 79.9504 56.0491 79.7513C56.2973 79.5522 56.4214 79.2458 56.4214 78.8476C56.4214 78.4493 56.2973 78.143 56.0491 77.9439C55.8008 77.7448 55.475 77.6375 55.0407 77.6375Z" fill="white"/>
<path d="M64.1903 87.9611C64.4075 88.2368 64.7333 88.3594 65.1987 88.3594C66.0986 88.3594 66.564 87.8539 66.564 86.843V79.0007C66.564 77.9898 66.0986 77.4844 65.1987 77.4844C64.7333 77.4844 64.4075 77.6222 64.1903 77.8826C63.9732 78.1583 63.8646 78.5259 63.8646 79.0007V86.843C63.8646 87.3331 63.9732 87.7007 64.1903 87.9611Z" fill="white"/>
<path d="M80.7352 85.8015H77.6479V79.0007C77.6479 77.9898 77.1825 77.4844 76.2827 77.4844C75.8173 77.4844 75.4915 77.6222 75.2743 77.8826C75.0571 78.1583 74.9485 78.5259 74.9485 79.0007V86.6898C74.9485 87.18 75.0571 87.5476 75.2743 87.808C75.4915 88.0837 75.8173 88.2062 76.2827 88.2062H80.7352C81.1696 88.2062 81.4954 88.1143 81.7436 87.9152C81.9918 87.7161 82.1159 87.4097 82.1159 86.9962C82.1159 86.5979 81.9918 86.3069 81.7436 86.1078C81.4954 85.9087 81.1696 85.8015 80.7352 85.8015Z" fill="white"/>
<path d="M95.8146 85.8015H92.2619V84.0247H95.1475C95.5819 84.0247 95.9077 83.9328 96.1559 83.7337C96.4041 83.5346 96.5282 83.2282 96.5282 82.83C96.5282 82.4317 96.4041 82.1407 96.1559 81.9263C95.9077 81.7272 95.5819 81.6199 95.1475 81.6199H92.2619V80.0423H95.8146C96.249 80.0423 96.5748 79.9504 96.823 79.7513C97.0712 79.5522 97.1953 79.2458 97.1953 78.8476C97.1953 78.4493 97.0712 78.143 96.823 77.9439C96.5748 77.7448 96.249 77.6375 95.8146 77.6375H90.8967C90.4313 77.6375 90.1055 77.7754 89.8883 78.0358C89.6711 78.3115 89.5625 78.6791 89.5625 79.1539V86.6898C89.5625 87.18 89.6711 87.5476 89.8883 87.808C90.1055 88.0837 90.4313 88.2062 90.8967 88.2062H95.8146C96.249 88.2062 96.5748 88.1143 96.823 87.9152C97.0712 87.7161 97.1953 87.4097 97.1953 86.9962C97.1953 86.5979 97.0712 86.3069 96.823 86.1078C96.5748 85.9087 96.249 85.8015 95.8146 85.8015Z" fill="white"/>
</svg>
