<svg width="406" height="265" viewBox="0 0 406 265" fill="none" xmlns="http://www.w3.org/2000/svg">
<path d="M6.19086 264.588C6.51538 265.034 7.14073 265.134 7.58761 264.809L14.8699 259.521C15.3168 259.196 15.416 258.571 15.0914 258.124C14.7669 257.677 14.1416 257.578 13.6947 257.902L7.22153 262.603L2.52065 256.13C2.19612 255.683 1.57077 255.584 1.1239 255.909C0.677018 256.233 0.577834 256.858 0.902362 257.305L6.19086 264.588ZM399.45 264.835C399.911 265.139 400.531 265.011 400.835 264.55L405.786 257.035C406.09 256.573 405.963 255.953 405.501 255.649C405.04 255.345 404.42 255.473 404.116 255.934L399.715 262.615L393.035 258.214C392.573 257.91 391.953 258.037 391.649 258.499C391.345 258.96 391.473 259.58 391.934 259.884L399.45 264.835ZM7 264C7.98765 264.157 7.98765 264.157 7.98765 264.157C7.98765 264.157 7.98765 264.157 7.98765 264.157C7.98765 264.157 7.98765 264.157 7.98765 264.157C7.98765 264.157 7.98766 264.157 7.98767 264.157C7.98768 264.156 7.98771 264.156 7.98775 264.156C7.98783 264.156 7.98796 264.155 7.98814 264.154C7.9885 264.151 7.98905 264.148 7.98979 264.143C7.99129 264.134 7.99356 264.12 7.99662 264.101C8.00273 264.063 8.01199 264.006 8.02444 263.93C8.04933 263.777 8.08697 263.55 8.1377 263.25L6.16564 262.916C6.11432 263.22 6.07613 263.451 6.0507 263.607C6.03798 263.684 6.02846 263.743 6.02208 263.783C6.01889 263.802 6.01649 263.817 6.01487 263.828C6.01406 263.833 6.01344 263.836 6.01302 263.839C6.01281 263.84 6.01265 263.841 6.01254 263.842C6.01248 263.842 6.01244 263.843 6.01241 263.843C6.01239 263.843 6.01238 263.843 6.01237 263.843C6.01236 263.843 6.01236 263.843 6.01235 263.843C6.01235 263.843 6.01235 263.843 6.01235 263.843C6.01235 263.843 6.01235 263.843 7 264ZM8.81747 259.411C8.93296 258.782 9.06099 258.094 9.20184 257.35L7.23674 256.978C7.0952 257.726 6.96651 258.417 6.85037 259.05L8.81747 259.411ZM9.96683 253.409C10.0868 252.805 10.2125 252.179 10.344 251.53L8.38387 251.133C8.2518 251.784 8.1256 252.413 8.00516 253.019L9.96683 253.409ZM11.1711 247.531C11.3005 246.918 11.434 246.29 11.5718 245.647L9.61632 245.228C9.47802 245.873 9.34399 246.503 9.21418 247.118L11.1711 247.531ZM12.4269 241.729C12.5717 241.077 12.7202 240.413 12.8726 239.737L10.9216 239.297C10.7687 239.975 10.6196 240.641 10.4744 241.296L12.4269 241.729ZM13.7462 235.922C13.8983 235.267 14.0537 234.603 14.2124 233.93L12.2659 233.471C12.1066 234.146 11.9507 234.812 11.7981 235.469L13.7462 235.922ZM15.1372 230.066C15.2911 229.432 15.4476 228.791 15.6069 228.144L13.6649 227.666C13.5051 228.316 13.348 228.958 13.1937 229.594L15.1372 230.066ZM16.5958 224.18C16.7547 223.552 16.9159 222.919 17.0796 222.28L15.1422 221.784C14.978 222.424 14.8163 223.06 14.6569 223.69L16.5958 224.18ZM18.073 218.453C18.2433 217.805 18.416 217.152 18.5911 216.495L16.6585 215.98C16.4828 216.64 16.3096 217.295 16.1387 217.944L18.073 218.453ZM19.6356 212.622C19.8072 211.993 19.9809 211.361 20.1567 210.725L18.229 210.192C18.0526 210.83 17.8784 211.464 17.7063 212.095L19.6356 212.622ZM21.2372 206.864C21.4215 206.213 21.608 205.558 21.7967 204.9L19.8742 204.349C19.6849 205.009 19.4978 205.666 19.3129 206.319L21.2372 206.864ZM22.8982 201.104C23.0837 200.473 23.2711 199.838 23.4605 199.201L21.5433 198.631C21.3533 199.271 21.1653 199.907 20.9792 200.541L22.8982 201.104ZM24.6202 195.343C24.817 194.696 25.0158 194.046 25.2165 193.394L23.305 192.806C23.1036 193.46 22.9042 194.112 22.7067 194.761L24.6202 195.343ZM26.3867 189.636C26.5853 189.005 26.7858 188.372 26.9881 187.737L25.0825 187.13C24.8795 187.767 24.6784 188.402 24.4791 189.035L26.3867 189.636ZM28.224 183.903C28.4323 183.264 28.6424 182.623 28.8544 181.981L26.955 181.354C26.7424 181.999 26.5315 182.642 26.3225 183.283L28.224 183.903ZM30.1039 178.235C30.3157 177.608 30.5291 176.979 30.7443 176.348L28.8514 175.702C28.6355 176.335 28.4213 176.966 28.2089 177.596L30.1039 178.235ZM32.0563 172.547C32.2782 171.912 32.5019 171.275 32.7273 170.637L30.8414 169.97C30.6152 170.611 30.3908 171.25 30.1681 171.888L32.0563 172.547ZM34.0574 166.913C34.2825 166.29 34.5092 165.666 34.7375 165.041L32.859 164.355C32.6298 164.982 32.4023 165.608 32.1764 166.233L34.0574 166.913ZM36.1279 161.279C36.363 160.65 36.5998 160.02 36.8383 159.39L34.9677 158.682C34.7282 159.315 34.4906 159.947 34.2546 160.579L36.1279 161.279ZM38.2575 155.68C38.4964 155.062 38.7369 154.444 38.9791 153.826L37.1167 153.097C36.8736 153.718 36.6321 154.338 36.3923 154.958L38.2575 155.68ZM40.4517 150.106C40.7005 149.485 40.9508 148.863 41.2029 148.241L39.3493 147.49C39.0962 148.115 38.8448 148.739 38.5951 149.362L40.4517 150.106ZM42.7167 144.548C42.9702 143.937 43.2254 143.325 43.4822 142.713L41.6379 141.939C41.3801 142.554 41.1238 143.168 40.8692 143.782L42.7167 144.548ZM45.0423 139.038C45.3056 138.425 45.5705 137.812 45.837 137.199L44.0028 136.402C43.7351 137.018 43.4691 137.633 43.2047 138.249L45.0423 139.038ZM47.4491 133.534C47.7184 132.929 47.9892 132.324 48.2617 131.719L46.4382 130.898C46.1645 131.505 45.8924 132.113 45.622 132.72L47.4491 133.534ZM49.9158 128.091C50.1947 127.486 50.4753 126.882 50.7575 126.278L48.9454 125.431C48.6619 126.038 48.38 126.646 48.0998 127.253L49.9158 128.091ZM52.4701 122.656C52.7565 122.057 53.0446 121.459 53.3344 120.861L51.5345 119.989C51.2434 120.59 50.9539 121.191 50.6661 121.792L52.4701 122.656ZM55.0901 117.283C55.3859 116.687 55.6834 116.092 55.9826 115.498L54.1959 114.599C53.8953 115.197 53.5963 115.795 53.2989 116.393L55.0901 117.283ZM57.7971 111.936C58.1027 111.344 58.4099 110.753 58.7188 110.162L56.9464 109.235C56.6358 109.829 56.327 110.424 56.0198 111.019L57.7971 111.936ZM60.5848 106.638C60.899 106.052 61.215 105.467 61.5326 104.882L59.7753 103.927C59.456 104.515 59.1383 105.103 58.8223 105.692L60.5848 106.638ZM63.4581 101.386C63.7824 100.805 64.1083 100.225 64.436 99.6458L62.6952 98.6611C62.3657 99.2437 62.0378 99.8271 61.7117 100.411L63.4581 101.386ZM66.4217 96.1827C66.7561 95.6075 67.0921 95.0334 67.4298 94.4603L65.7067 93.4449C65.367 94.0214 65.0289 94.599 64.6926 95.1776L66.4217 96.1827ZM69.4764 91.0355C69.821 90.467 70.1672 89.8997 70.5151 89.3337L68.8113 88.2864C68.4611 88.856 68.1127 89.4269 67.766 89.999L69.4764 91.0355ZM72.6252 85.9497C72.9813 85.3867 73.3391 84.8252 73.6987 84.265L72.0156 83.1846C71.6536 83.7485 71.2934 84.3138 70.935 84.8805L72.6252 85.9497ZM75.8773 80.9209C76.2439 80.3665 76.6122 79.8136 76.9823 79.2622L75.3217 78.1475C74.949 78.7028 74.5781 79.2596 74.209 79.8178L75.8773 80.9209ZM79.2242 75.9729C79.6031 75.4254 79.9838 74.8796 80.3663 74.3355L78.7302 73.1853C78.3448 73.7334 77.9613 74.2832 77.5797 74.8347L79.2242 75.9729ZM82.688 71.0849C83.0786 70.5467 83.471 70.0103 83.8652 69.4758L82.2556 68.2887C81.8583 68.8274 81.4629 69.3679 81.0693 69.9102L82.688 71.0849ZM86.2524 66.2917C86.6539 65.7649 87.0573 65.2401 87.4624 64.7173L85.8817 63.4921C85.4731 64.0191 85.0665 64.5483 84.6617 65.0793L86.2524 66.2917ZM89.9378 61.5777C90.3543 61.0585 90.7726 60.5416 91.1928 60.0268L89.6435 58.762C89.2197 59.2812 88.7977 59.8027 88.3777 60.3262L89.9378 61.5777ZM93.7369 56.9654C94.1648 56.4597 94.5945 55.9564 95.0261 55.4554L93.511 54.1499C93.0754 54.6554 92.6418 55.1633 92.2101 55.6736L93.7369 56.9654ZM97.6568 52.4586C98.1009 51.9621 98.547 51.4682 98.995 50.9769L97.5172 49.6293C97.0648 50.1254 96.6145 50.624 96.1662 51.1252L97.6568 52.4586ZM101.707 48.0604C102.163 47.5797 102.621 47.1016 103.081 46.6263L101.643 45.2355C101.179 45.7157 100.716 46.1986 100.256 46.6842L101.707 48.0604ZM105.874 43.7977C106.348 43.3284 106.823 42.8621 107.3 42.3987L105.907 40.9637C105.425 41.4321 104.944 41.9034 104.466 42.3776L105.874 43.7977ZM110.189 39.6548C110.674 39.2036 111.162 38.7554 111.651 38.3104L110.306 36.8303C109.811 37.2803 109.318 37.7335 108.827 38.1897L110.189 39.6548ZM114.616 35.6771C115.12 35.2405 115.625 34.8071 116.132 34.3772L114.839 32.8512C114.326 33.2863 113.815 33.7248 113.306 34.1666L114.616 35.6771ZM119.203 31.8385C119.719 31.4223 120.237 31.0095 120.757 30.6004L119.521 29.0282C118.994 29.4425 118.47 29.8603 117.947 30.2817L119.203 31.8385ZM123.906 28.1884C124.437 27.7917 124.971 27.3986 125.507 27.0093L124.332 25.391C123.789 25.7854 123.248 26.1836 122.71 26.5855L123.906 28.1884ZM128.76 24.713C129.306 24.3379 129.855 23.9668 130.406 23.5996L129.297 21.9353C128.738 22.3076 128.182 22.6838 127.628 23.0639L128.76 24.713ZM133.739 21.4445C134.299 21.0931 134.862 20.7458 135.427 20.4025L134.388 18.6932C133.815 19.0414 133.245 19.3937 132.676 19.7501L133.739 21.4445ZM138.853 18.388C139.429 18.0607 140.007 17.7377 140.587 17.419L139.624 15.666C139.035 15.9895 138.449 16.3173 137.864 16.6494L138.853 18.388ZM144.096 15.5593C144.685 15.2581 145.277 14.9615 145.871 14.6693L144.988 12.8746C144.385 13.1713 143.784 13.4725 143.186 13.7782L144.096 15.5593ZM149.455 12.9748C150.056 12.7015 150.661 12.4329 151.267 12.1689L150.469 10.3351C149.853 10.6033 149.239 10.8762 148.628 11.1537L149.455 12.9748ZM154.934 10.6412C155.55 10.3961 156.168 10.1557 156.789 9.92012L156.079 8.05029C155.448 8.28967 154.82 8.53393 154.194 8.78302L154.934 10.6412ZM160.511 8.57515C161.134 8.36131 161.76 8.15231 162.388 7.9482L161.77 6.04618C161.131 6.25365 160.496 6.46608 159.862 6.68342L160.511 8.57515ZM166.183 6.78267C166.82 6.59834 167.46 6.41902 168.102 6.24475L167.578 4.3146C166.926 4.49175 166.275 4.67404 165.628 4.86142L166.183 6.78267ZM171.945 5.2692C172.583 5.11834 173.224 4.97243 173.866 4.83155L173.438 2.87793C172.785 3.02115 172.134 3.16948 171.485 3.32285L171.945 5.2692ZM177.751 4.04682C178.403 3.92621 179.057 3.81072 179.714 3.7004L179.382 1.72804C178.715 1.84018 178.05 1.95758 177.387 2.08019L177.751 4.04682ZM183.661 3.10372C184.307 3.01696 184.955 2.93516 185.604 2.85838L185.37 0.872191C184.709 0.950229 184.051 1.03336 183.395 1.12154L183.661 3.10372ZM189.53 2.45818C190.189 2.40164 190.85 2.3502 191.513 2.30392L191.374 0.308773C190.7 0.355792 190.029 0.408055 189.359 0.465512L189.53 2.45818ZM195.52 2.08854C195.856 2.07582 196.193 2.0644 196.53 2.05431L196.47 0.0552095C196.128 0.0654573 195.786 0.0770465 195.444 0.089971L195.52 2.08854ZM196.53 2.05431C196.864 2.04431 197.198 2.03569 197.532 2.02846L197.488 0.0289323C197.149 0.0362831 196.81 0.0450401 196.47 0.0552095L196.53 2.05431ZM201.51 2.00769C202.169 2.01517 202.826 2.02807 203.482 2.04636L203.538 0.0471382C202.871 0.0285414 202.203 0.0154191 201.533 0.00782138L201.51 2.00769ZM207.391 2.22028C208.039 2.25989 208.684 2.30479 209.328 2.35492L209.484 0.360954C208.829 0.309965 208.172 0.2643 207.513 0.224007L207.391 2.22028ZM213.266 2.72888C213.922 2.80249 214.576 2.88155 215.228 2.96602L215.485 0.982588C214.821 0.896663 214.156 0.816232 213.489 0.741352L213.266 2.72888ZM219.116 3.53715C219.76 3.643 220.402 3.75413 221.042 3.8705L221.4 1.90276C220.749 1.78437 220.096 1.67131 219.441 1.56363L219.116 3.53715ZM224.894 4.63863C225.538 4.77856 226.18 4.92383 226.821 5.07435L227.278 3.12744C226.627 2.97432 225.974 2.82655 225.318 2.68419L224.894 4.63863ZM230.637 6.0403C231.27 6.21167 231.9 6.3882 232.528 6.56983L233.083 4.64856C232.445 4.46384 231.804 4.2843 231.161 4.10999L230.637 6.0403ZM236.278 7.72236C236.903 7.92591 237.526 8.13453 238.148 8.34816L238.798 6.45688C238.166 6.23969 237.533 6.02757 236.897 5.8206L236.278 7.72236ZM241.85 9.68958C242.463 9.92302 243.074 10.1613 243.683 10.4045L244.425 8.5471C243.806 8.29999 243.185 8.05777 242.562 7.8205L241.85 9.68958ZM247.313 11.921C247.914 12.1832 248.512 12.4502 249.109 12.7218L249.938 10.9014C249.331 10.6256 248.723 10.3544 248.113 10.088L247.313 11.921ZM252.665 14.4066C253.254 14.6966 253.841 14.9911 254.426 15.2901L255.336 13.5094C254.743 13.2059 254.147 12.9069 253.549 12.6125L252.665 14.4066ZM257.91 17.1374C258.485 17.4532 259.059 17.7734 259.63 18.0978L260.617 16.3587C260.038 16.0296 259.456 15.7048 258.873 15.3843L257.91 17.1374ZM263.02 20.0871C263.581 20.427 264.14 20.771 264.697 21.1191L265.757 19.4229C265.192 19.0699 264.625 18.7211 264.056 18.3764L263.02 20.0871ZM268.018 23.2562C268.567 23.6203 269.115 23.9885 269.66 24.3605L270.787 22.7081C270.234 22.3311 269.679 21.9581 269.123 21.5891L268.018 23.2562ZM272.877 26.6148C273.409 26.9978 273.939 27.3844 274.468 27.7747L275.656 26.1662C275.121 25.771 274.585 25.3794 274.046 24.9916L272.877 26.6148ZM277.615 30.1599C278.136 30.5646 278.655 30.9728 279.172 31.3845L280.417 29.82C279.894 29.4034 279.369 28.9903 278.842 28.5807L277.615 30.1599ZM282.225 33.8743C282.728 34.2938 283.229 34.7167 283.728 35.1427L285.027 33.6215C284.522 33.1907 284.015 32.763 283.507 32.3387L282.225 33.8743ZM286.702 37.7374C287.194 38.1762 287.684 38.6181 288.172 39.063L289.519 37.5846C289.026 37.1349 288.53 36.6883 288.033 36.2448L286.702 37.7374ZM291.069 41.758C291.544 42.2085 292.017 42.6619 292.488 43.118L293.879 41.6815C293.403 41.2207 292.926 40.7627 292.447 40.3077L291.069 41.758ZM295.293 45.8886C295.757 46.3559 296.219 46.8258 296.679 47.2985L298.112 45.9027C297.647 45.4255 297.18 44.9511 296.712 44.4793L295.293 45.8886ZM299.422 50.1659C299.871 50.6441 300.319 51.1247 300.764 51.6078L302.234 50.2517C301.785 49.7643 301.333 49.2793 300.88 48.7968L299.422 50.1659ZM303.41 54.5263C303.847 55.0175 304.283 55.511 304.718 56.0068L306.222 54.6891C305.784 54.1891 305.344 53.6913 304.903 53.1959L303.41 54.5263ZM307.303 59.0088C307.731 59.5135 308.157 60.0205 308.581 60.5296L310.117 59.2492C309.69 58.736 309.26 58.2249 308.829 57.716L307.303 59.0088ZM311.08 63.5759C311.493 64.0874 311.904 64.6008 312.314 65.1161L313.879 63.8715C313.466 63.3522 313.052 62.8349 312.636 62.3195L311.08 63.5759ZM314.753 68.2314C315.156 68.7543 315.558 69.2791 315.958 69.8057L317.551 68.5958C317.148 68.0654 316.743 67.5368 316.337 67.01L314.753 68.2314ZM318.33 72.9738C318.72 73.5026 319.109 74.0332 319.496 74.5654L321.113 73.3888C320.724 72.853 320.332 72.3188 319.939 71.7863L318.33 72.9738ZM321.8 77.7776C322.181 78.3161 322.56 78.8561 322.938 79.3976L324.578 78.2533C324.198 77.7083 323.816 77.1647 323.433 76.6226L321.8 77.7776ZM325.186 82.6642C325.556 83.2088 325.924 83.7548 326.291 84.3021L327.953 83.1889C327.584 82.6381 327.213 82.0887 326.841 81.5407L325.186 82.6642ZM328.472 87.5994C328.832 88.1515 329.191 88.7049 329.548 89.2594L331.229 88.176C330.87 87.6182 330.509 87.0616 330.146 86.5062L328.472 87.5994ZM331.674 92.6004C332.025 93.1594 332.375 93.7196 332.723 94.2809L334.423 93.2263C334.072 92.662 333.721 92.0986 333.367 91.5363L331.674 92.6004ZM334.792 97.6556C335.133 98.2199 335.474 98.7852 335.812 99.3514L337.529 98.3247C337.188 97.7554 336.846 97.1871 336.503 96.6197L334.792 97.6556ZM337.827 102.759C338.159 103.329 338.491 103.899 338.82 104.47L340.552 103.47C340.221 102.896 339.888 102.323 339.554 101.75L337.827 102.759ZM340.783 107.91C341.108 108.486 341.431 109.062 341.753 109.639L343.499 108.665C343.176 108.085 342.851 107.506 342.525 106.927L340.783 107.91ZM343.665 113.108C343.981 113.688 344.295 114.268 344.608 114.848L346.369 113.899C346.054 113.316 345.739 112.733 345.421 112.151L343.665 113.108ZM346.468 118.336C346.776 118.921 347.083 119.507 347.389 120.093L349.162 119.168C348.855 118.579 348.547 117.991 348.237 117.403L346.468 118.336ZM349.209 123.621C349.509 124.209 349.808 124.798 350.106 125.387L351.891 124.486C351.592 123.894 351.292 123.303 350.991 122.712L349.209 123.621ZM351.873 128.924C352.164 129.514 352.454 130.104 352.743 130.694L354.539 129.815C354.25 129.223 353.958 128.63 353.666 128.038L351.873 128.924ZM354.475 134.272C354.761 134.87 355.046 135.468 355.33 136.065L357.137 135.208C356.852 134.608 356.566 134.008 356.279 133.408L354.475 134.272ZM357.012 139.65C357.289 140.247 357.565 140.844 357.839 141.44L359.656 140.605C359.381 140.006 359.104 139.406 358.826 138.807L357.012 139.65ZM359.479 145.042C359.752 145.649 360.024 146.256 360.295 146.862L362.121 146.047C361.85 145.439 361.577 144.83 361.302 144.221L359.479 145.042ZM361.899 150.493C362.163 151.098 362.426 151.701 362.687 152.305L364.522 151.51C364.26 150.905 363.996 150.298 363.731 149.692L361.899 150.493ZM364.236 155.917C364.497 156.533 364.757 157.147 365.015 157.761L366.859 156.986C366.6 156.37 366.339 155.753 366.077 155.136L364.236 155.917ZM366.547 161.44C366.799 162.052 367.049 162.662 367.298 163.272L369.15 162.516C368.9 161.904 368.649 161.291 368.396 160.678L366.547 161.44ZM368.773 166.919C369.018 167.531 369.262 168.142 369.504 168.753L371.363 168.015C371.12 167.403 370.875 166.789 370.629 166.175L368.773 166.919ZM370.967 172.479C371.208 173.097 371.447 173.714 371.684 174.33L373.551 173.611C373.312 172.993 373.073 172.374 372.831 171.753L370.967 172.479ZM373.088 178.009C373.319 178.619 373.548 179.228 373.775 179.835L375.648 179.133C375.42 178.524 375.19 177.914 374.959 177.302L373.088 178.009ZM375.172 183.601C375.401 184.226 375.629 184.849 375.855 185.471L377.735 184.787C377.508 184.164 377.279 183.538 377.049 182.911L375.172 183.601ZM377.19 189.176C377.409 189.79 377.626 190.402 377.842 191.011L379.727 190.345C379.511 189.733 379.293 189.12 379.074 188.504L377.19 189.176ZM379.169 194.803C379.388 195.434 379.604 196.062 379.819 196.688L381.711 196.038C381.495 195.411 381.278 194.781 381.059 194.148L379.169 194.803ZM381.085 200.411C381.292 201.026 381.497 201.639 381.701 202.249L383.598 201.616C383.394 201.004 383.188 200.39 382.98 199.773L381.085 200.411ZM382.967 206.082C383.174 206.716 383.379 207.347 383.582 207.975L385.485 207.359C385.281 206.73 385.076 206.097 384.868 205.461L382.967 206.082ZM384.775 211.698C384.975 212.328 385.173 212.955 385.369 213.578L387.277 212.978C387.081 212.354 386.882 211.725 386.682 211.093L384.775 211.698ZM386.567 217.431C386.762 218.065 386.954 218.693 387.144 219.318L389.058 218.735C388.867 218.109 388.674 217.478 388.479 216.843L386.567 217.431ZM388.267 223.044C388.464 223.704 388.658 224.358 388.849 225.006L390.768 224.44C390.576 223.79 390.381 223.134 390.184 222.472L388.267 223.044ZM389.963 228.82C390.142 229.443 390.32 230.06 390.494 230.67L392.417 230.121C392.242 229.509 392.065 228.89 391.884 228.265L389.963 228.82ZM391.59 234.553C391.77 235.2 391.947 235.838 392.121 236.467L394.049 235.936C393.875 235.304 393.697 234.664 393.516 234.015L391.59 234.553ZM393.141 240.212C393.324 240.889 393.501 241.554 393.675 242.206L395.608 241.693C395.434 241.038 395.255 240.371 395.073 239.692L393.141 240.212ZM394.663 245.973C394.835 246.639 395.003 247.289 395.164 247.924L397.102 247.429C396.94 246.793 396.772 246.14 396.599 245.472L394.663 245.973ZM396.13 251.764C396.295 252.43 396.453 253.073 396.604 253.69L398.547 253.217C398.396 252.597 398.237 251.952 398.072 251.283L396.13 251.764ZM397.51 257.474C397.686 258.224 397.846 258.916 397.991 259.547L399.941 259.099C399.795 258.465 399.634 257.77 399.457 257.017L397.51 257.474ZM398.829 263.3C398.893 263.598 398.941 263.824 398.973 263.976C398.989 264.051 399.001 264.108 399.009 264.146C399.013 264.165 399.016 264.179 399.018 264.188C399.019 264.193 399.019 264.196 399.02 264.198C399.02 264.2 399.02 264.2 399.02 264.201C399.02 264.201 399.02 264.201 399.02 264.201C399.021 264.201 399.021 264.201 399.021 264.202C399.021 264.201 399.021 264.201 400 264C400.979 263.799 400.979 263.799 400.979 263.799C400.979 263.798 400.979 263.798 400.979 263.798C400.979 263.798 400.979 263.798 400.979 263.798C400.979 263.798 400.979 263.798 400.979 263.798C400.979 263.798 400.979 263.798 400.979 263.797C400.979 263.797 400.979 263.796 400.979 263.794C400.978 263.792 400.977 263.788 400.976 263.783C400.974 263.773 400.971 263.758 400.967 263.738C400.959 263.699 400.947 263.641 400.93 263.564C400.898 263.409 400.849 263.18 400.784 262.878L398.829 263.3Z" fill="#A2A2A4"/>
</svg>
