<svg width="239" height="75" viewBox="0 0 239 75" fill="none" xmlns="http://www.w3.org/2000/svg">
<rect width="239" height="75" rx="16" fill="#1A0D27"/>
<path d="M82.8 46.904V54.296C82.8 54.896 82.92 55.376 83.208 55.712C83.472 56.048 83.88 56.216 84.456 56.216C85.032 56.216 85.464 56.048 85.752 55.712C86.04 55.376 86.184 54.92 86.184 54.296V50.936H92.736V54.296C92.736 55.592 93.288 56.216 94.44 56.216C95.016 56.216 95.424 56.048 95.712 55.712C95.976 55.376 96.12 54.92 96.12 54.296V46.904C96.12 44.408 95.544 42.512 94.392 41.192C93.24 39.872 91.584 39.2 89.448 39.2C87.288 39.2 85.656 39.872 84.504 41.192C83.352 42.512 82.8 44.408 82.8 46.904ZM86.184 47.936V47.096C86.184 45.488 86.424 44.288 86.928 43.52C87.432 42.752 88.272 42.368 89.448 42.368C90.624 42.368 91.464 42.752 91.968 43.52C92.472 44.288 92.736 45.488 92.736 47.096V47.936H86.184ZM109.493 45.848C108.533 44.744 107.213 44.192 105.533 44.192C104.357 44.192 103.373 44.624 102.581 45.464C102.413 44.648 101.909 44.24 101.045 44.24C100.493 44.24 100.085 44.408 99.8207 44.72C99.5567 45.032 99.4367 45.464 99.4367 46.016V59.456C99.4367 60.656 99.9647 61.256 101.045 61.256C102.101 61.256 102.629 60.656 102.629 59.456V55.016C103.397 55.832 104.381 56.24 105.533 56.24C107.213 56.24 108.533 55.712 109.493 54.608C110.453 53.504 110.933 52.04 110.933 50.216C110.933 48.392 110.453 46.952 109.493 45.848ZM107.045 52.544C106.613 53.096 105.989 53.36 105.149 53.36C104.309 53.36 103.685 53.096 103.253 52.544C102.821 51.992 102.629 51.224 102.629 50.216C102.629 49.232 102.821 48.464 103.253 47.912C103.685 47.36 104.309 47.072 105.149 47.072C105.989 47.072 106.613 47.36 107.045 47.912C107.453 48.464 107.669 49.232 107.669 50.216C107.669 51.224 107.453 51.992 107.045 52.544ZM123.555 45.848C122.595 44.744 121.275 44.192 119.595 44.192C118.419 44.192 117.435 44.624 116.643 45.464C116.475 44.648 115.971 44.24 115.107 44.24C114.555 44.24 114.147 44.408 113.883 44.72C113.619 45.032 113.499 45.464 113.499 46.016V59.456C113.499 60.656 114.027 61.256 115.107 61.256C116.163 61.256 116.691 60.656 116.691 59.456V55.016C117.459 55.832 118.443 56.24 119.595 56.24C121.275 56.24 122.595 55.712 123.555 54.608C124.515 53.504 124.995 52.04 124.995 50.216C124.995 48.392 124.515 46.952 123.555 45.848ZM121.107 52.544C120.675 53.096 120.051 53.36 119.211 53.36C118.371 53.36 117.747 53.096 117.315 52.544C116.883 51.992 116.691 51.224 116.691 50.216C116.691 49.232 116.883 48.464 117.315 47.912C117.747 47.36 118.371 47.072 119.211 47.072C120.051 47.072 120.675 47.36 121.107 47.912C121.515 48.464 121.731 49.232 121.731 50.216C121.731 51.224 121.515 51.992 121.107 52.544ZM134.93 55.736C135.89 56.072 136.994 56.24 138.242 56.24C139.61 56.24 140.786 56.024 141.794 55.568C142.802 55.112 143.57 54.488 144.098 53.696C144.626 52.904 144.89 52.016 144.89 51.008C144.89 49.616 144.458 48.56 143.642 47.792C142.826 47.048 141.554 46.496 139.85 46.16L137.834 45.776C137.138 45.632 136.634 45.44 136.346 45.176C136.034 44.936 135.89 44.576 135.89 44.12C135.89 43.592 136.106 43.184 136.538 42.848C136.97 42.536 137.642 42.368 138.506 42.368C139.202 42.368 139.826 42.464 140.354 42.656C140.882 42.848 141.362 43.112 141.818 43.424C142.154 43.64 142.466 43.736 142.778 43.736C143.162 43.736 143.474 43.616 143.762 43.352C144.05 43.088 144.194 42.704 144.194 42.176C144.194 41.6 143.882 41.072 143.258 40.616C141.962 39.68 140.378 39.2 138.506 39.2C137.21 39.2 136.082 39.44 135.17 39.92C134.234 40.4 133.538 41 133.058 41.768C132.578 42.536 132.362 43.328 132.362 44.192C132.362 45.512 132.698 46.544 133.37 47.264C134.042 47.984 135.17 48.512 136.754 48.8L138.722 49.184C139.634 49.376 140.306 49.592 140.714 49.88C141.122 50.168 141.338 50.576 141.338 51.08C141.338 52.4 140.306 53.048 138.266 53.048C137.45 53.048 136.754 52.952 136.178 52.712C135.602 52.472 135.002 52.136 134.402 51.68C133.946 51.392 133.562 51.248 133.274 51.248C132.842 51.248 132.482 51.392 132.194 51.68C131.906 51.968 131.762 52.328 131.762 52.784C131.762 53.336 132.026 53.864 132.554 54.344C133.178 54.92 133.97 55.4 134.93 55.736ZM154.042 53.648C153.754 53.456 153.37 53.336 152.842 53.336C152.266 53.336 151.882 53.24 151.69 53.024C151.498 52.808 151.402 52.448 151.402 51.944V47.312H152.77C153.874 47.312 154.426 46.856 154.426 45.896C154.426 45.416 154.282 45.032 153.994 44.792C153.706 44.552 153.298 44.432 152.77 44.432H151.402V42.968C151.402 41.768 150.874 41.168 149.818 41.168C148.738 41.168 148.21 41.768 148.21 42.968V44.432H147.514C146.986 44.432 146.554 44.552 146.266 44.792C145.978 45.032 145.834 45.416 145.834 45.896C145.834 46.856 146.386 47.312 147.514 47.312H148.21V52.208C148.21 53.504 148.498 54.488 149.122 55.184C149.746 55.88 150.826 56.216 152.362 56.216C153.754 56.216 154.45 55.688 154.45 54.632C154.45 54.176 154.306 53.84 154.042 53.648ZM158.595 55.496C159.483 56 160.491 56.24 161.643 56.24C162.771 56.24 163.779 56 164.667 55.496C165.555 54.992 166.251 54.272 166.755 53.36C167.235 52.448 167.499 51.416 167.499 50.216C167.499 49.04 167.235 47.984 166.755 47.072C166.251 46.16 165.555 45.464 164.667 44.96C163.779 44.456 162.771 44.192 161.643 44.192C160.491 44.192 159.483 44.456 158.595 44.96C157.707 45.464 157.011 46.16 156.531 47.072C156.027 47.984 155.787 49.04 155.787 50.216C155.787 51.416 156.027 52.448 156.531 53.36C157.011 54.272 157.707 54.992 158.595 55.496ZM163.563 52.544C163.131 53.096 162.483 53.36 161.643 53.36C160.779 53.36 160.131 53.096 159.699 52.544C159.267 52.016 159.051 51.224 159.051 50.216C159.051 49.232 159.267 48.464 159.699 47.912C160.131 47.36 160.779 47.072 161.643 47.072C162.483 47.072 163.131 47.36 163.563 47.888C163.995 48.44 164.235 49.208 164.235 50.216C164.235 51.224 163.995 52.016 163.563 52.544ZM177.278 44.576C177.038 44.336 176.702 44.192 176.27 44.192C174.95 44.192 173.918 44.792 173.174 45.992C173.174 44.84 172.646 44.24 171.59 44.24C170.534 44.24 170.006 44.84 170.006 46.016V54.416C170.006 54.992 170.126 55.448 170.39 55.76C170.63 56.072 171.038 56.216 171.59 56.216C172.118 56.216 172.526 56.072 172.79 55.76C173.03 55.448 173.174 54.992 173.174 54.416V50.384C173.174 49.328 173.414 48.512 173.894 47.936C174.374 47.36 175.094 47.072 176.03 47.072C177.086 47.072 177.638 46.592 177.638 45.632C177.638 45.2 177.518 44.84 177.278 44.576ZM188.724 52.856C188.436 52.616 188.148 52.496 187.836 52.496C187.524 52.496 187.188 52.592 186.852 52.784C186.444 53 186.06 53.168 185.724 53.264C185.388 53.36 184.956 53.408 184.452 53.408C183.708 53.408 183.084 53.24 182.58 52.856C182.052 52.496 181.716 51.992 181.548 51.32H186.54C187.38 51.32 187.98 51.152 188.34 50.816C188.7 50.48 188.892 49.904 188.892 49.136C188.892 47.552 188.436 46.328 187.572 45.464C186.708 44.624 185.556 44.192 184.14 44.192C183.012 44.192 182.028 44.456 181.164 44.96C180.3 45.488 179.604 46.184 179.124 47.096C178.644 48.008 178.404 49.064 178.404 50.216C178.404 51.416 178.644 52.448 179.148 53.36C179.628 54.272 180.348 54.992 181.26 55.496C182.172 56 183.252 56.24 184.452 56.24C185.364 56.24 186.204 56.144 186.996 55.904C187.764 55.688 188.34 55.352 188.724 54.92C188.988 54.632 189.132 54.248 189.132 53.816C189.132 53.432 188.988 53.096 188.724 52.856ZM182.484 47.48C182.916 47.144 183.468 46.952 184.14 46.952C184.74 46.952 185.22 47.144 185.58 47.48C185.916 47.84 186.108 48.344 186.132 48.968H181.548C181.716 48.344 182.028 47.84 182.484 47.48Z" fill="white"/>
<path d="M86.52 14.96H83.368C82.728 14.96 82.424 15.328 82.424 16.048V24.912C82.424 25.648 82.728 26 83.368 26H86.52C87.592 26 88.52 25.792 89.304 25.344C90.072 24.896 90.664 24.256 91.08 23.424C91.496 22.592 91.704 21.616 91.704 20.48C91.704 19.36 91.496 18.368 91.08 17.536C90.664 16.704 90.072 16.08 89.304 15.632C88.52 15.184 87.592 14.96 86.52 14.96ZM86.52 24.272H84.312V16.688H86.52C87.56 16.688 88.36 17.024 88.904 17.68C89.448 18.352 89.72 19.28 89.72 20.48C89.72 21.696 89.448 22.624 88.904 23.28C88.36 23.952 87.56 24.272 86.52 24.272ZM95.0749 25.664C95.6509 26 96.3069 26.16 97.0429 26.16C97.7789 26.16 98.4509 26 99.0269 25.664C99.6029 25.344 100.067 24.88 100.387 24.272C100.707 23.664 100.867 22.976 100.867 22.192C100.867 21.424 100.707 20.736 100.387 20.128C100.067 19.52 99.6029 19.056 99.0269 18.72C98.4509 18.4 97.7789 18.224 97.0429 18.224C96.3069 18.224 95.6509 18.4 95.0749 18.72C94.4989 19.056 94.0509 19.52 93.7309 20.128C93.4109 20.736 93.2509 21.424 93.2509 22.192C93.2509 22.976 93.4109 23.664 93.7309 24.272C94.0509 24.88 94.4989 25.344 95.0749 25.664ZM98.5149 23.92C98.1629 24.336 97.6829 24.528 97.0429 24.528C96.4189 24.528 95.9389 24.336 95.5869 23.92C95.2349 23.504 95.0749 22.928 95.0749 22.192C95.0749 21.456 95.2349 20.896 95.5869 20.48C95.9389 20.064 96.4189 19.856 97.0429 19.856C97.6829 19.856 98.1629 20.064 98.5149 20.48C98.8509 20.896 99.0269 21.456 99.0269 22.192C99.0269 22.944 98.8509 23.52 98.5149 23.92ZM113.53 18.528C113.386 18.352 113.162 18.256 112.842 18.256C112.666 18.256 112.49 18.32 112.33 18.432C112.17 18.544 112.058 18.704 111.994 18.896L110.442 23.472L108.906 18.976C108.826 18.752 108.698 18.576 108.522 18.448C108.33 18.32 108.106 18.256 107.834 18.256C107.546 18.256 107.322 18.336 107.146 18.464C106.97 18.592 106.842 18.768 106.778 18.976L105.242 23.456L103.69 18.896C103.61 18.704 103.498 18.544 103.338 18.432C103.178 18.32 103.002 18.256 102.842 18.256C102.522 18.256 102.282 18.352 102.154 18.528C102.01 18.704 101.946 18.896 101.946 19.104C101.946 19.264 101.978 19.456 102.074 19.712L104.122 25.392C104.202 25.648 104.33 25.824 104.522 25.952C104.714 26.08 104.938 26.128 105.194 26.128C105.434 26.128 105.642 26.064 105.818 25.936C105.978 25.808 106.106 25.616 106.202 25.376L107.85 20.832L109.482 25.376C109.674 25.888 110.01 26.128 110.506 26.128C110.762 26.128 110.97 26.08 111.162 25.952C111.338 25.824 111.466 25.648 111.562 25.392L113.61 19.712C113.69 19.456 113.738 19.264 113.738 19.104C113.738 18.896 113.658 18.704 113.53 18.528ZM121.613 19.28C121.085 18.576 120.301 18.224 119.261 18.224C118.285 18.224 117.549 18.576 117.053 19.28V19.264C117.053 18.592 116.749 18.256 116.173 18.256C115.565 18.256 115.277 18.592 115.277 19.264V25.12C115.277 25.792 115.565 26.128 116.173 26.128C116.749 26.128 117.053 25.792 117.053 25.12V22.272C117.053 21.472 117.181 20.864 117.453 20.464C117.709 20.064 118.173 19.856 118.845 19.856C119.501 19.856 119.965 20.064 120.237 20.464C120.493 20.864 120.637 21.472 120.637 22.272V25.12C120.637 25.792 120.925 26.128 121.517 26.128C122.109 26.128 122.413 25.792 122.413 25.12V22.16C122.413 20.944 122.141 19.984 121.613 19.28ZM124.605 23.952C124.605 25.424 125.325 26.144 126.781 26.144C127.085 26.144 127.325 26.064 127.501 25.904C127.661 25.744 127.757 25.52 127.757 25.232C127.757 24.976 127.677 24.8 127.549 24.688C127.405 24.576 127.229 24.512 127.037 24.512C126.797 24.512 126.637 24.464 126.541 24.368C126.445 24.272 126.413 24.112 126.413 23.888V14.96C126.413 14.288 126.109 13.952 125.517 13.952C125.197 13.952 124.973 14.048 124.829 14.224C124.669 14.4 124.605 14.64 124.605 14.96V23.952ZM130.591 25.664C131.167 26 131.823 26.16 132.559 26.16C133.295 26.16 133.967 26 134.543 25.664C135.119 25.344 135.583 24.88 135.903 24.272C136.223 23.664 136.383 22.976 136.383 22.192C136.383 21.424 136.223 20.736 135.903 20.128C135.583 19.52 135.119 19.056 134.543 18.72C133.967 18.4 133.295 18.224 132.559 18.224C131.823 18.224 131.167 18.4 130.591 18.72C130.015 19.056 129.567 19.52 129.247 20.128C128.927 20.736 128.767 21.424 128.767 22.192C128.767 22.976 128.927 23.664 129.247 24.272C129.567 24.88 130.015 25.344 130.591 25.664ZM134.031 23.92C133.679 24.336 133.199 24.528 132.559 24.528C131.935 24.528 131.455 24.336 131.103 23.92C130.751 23.504 130.591 22.928 130.591 22.192C130.591 21.456 130.751 20.896 131.103 20.48C131.455 20.064 131.935 19.856 132.559 19.856C133.199 19.856 133.679 20.064 134.031 20.48C134.367 20.896 134.543 21.456 134.543 22.192C134.543 22.944 134.367 23.52 134.031 23.92ZM143.462 19.232C142.854 18.56 141.974 18.224 140.806 18.224C139.894 18.224 139.11 18.464 138.438 18.928C138.134 19.12 137.99 19.376 137.99 19.68C137.99 19.904 138.054 20.08 138.198 20.24C138.342 20.4 138.518 20.464 138.71 20.464C138.918 20.464 139.174 20.384 139.478 20.208C139.878 19.984 140.326 19.856 140.806 19.856C141.35 19.856 141.782 20 142.07 20.288C142.358 20.576 142.518 20.96 142.566 21.44C142.134 21.376 141.654 21.344 141.126 21.344C140.086 21.344 139.286 21.568 138.71 22C138.134 22.432 137.862 23.056 137.862 23.872C137.862 24.544 138.07 25.104 138.486 25.52C138.902 25.952 139.526 26.16 140.358 26.16C141.126 26.16 141.878 25.92 142.598 25.44C142.678 25.92 142.966 26.16 143.478 26.16C144.07 26.16 144.374 25.824 144.374 25.152V21.984C144.374 20.832 144.07 19.904 143.462 19.232ZM139.958 24.352C139.766 24.224 139.686 24 139.686 23.712C139.686 23.424 139.814 23.184 140.07 23.024C140.326 22.864 140.71 22.784 141.222 22.784C141.654 22.784 142.102 22.832 142.582 22.912V24.016C141.942 24.384 141.366 24.56 140.854 24.56C140.438 24.56 140.15 24.496 139.958 24.352ZM153.519 14.944C153.519 14.288 153.215 13.952 152.623 13.952C152.015 13.952 151.727 14.288 151.727 14.944V19.216C151.167 18.56 150.463 18.224 149.599 18.224C148.863 18.224 148.239 18.4 147.711 18.72C147.183 19.056 146.783 19.52 146.495 20.112C146.207 20.72 146.063 21.408 146.063 22.192C146.063 22.992 146.207 23.68 146.495 24.272C146.783 24.88 147.183 25.344 147.711 25.664C148.239 26 148.863 26.16 149.599 26.16C150.447 26.16 151.151 25.84 151.727 25.184C151.743 25.824 152.047 26.128 152.623 26.128C153.215 26.128 153.519 25.792 153.519 25.12V14.944ZM151.231 23.904C150.895 24.32 150.415 24.528 149.807 24.528C149.183 24.528 148.703 24.336 148.383 23.92C148.063 23.504 147.903 22.928 147.903 22.192C147.903 21.456 148.063 20.88 148.383 20.464C148.703 20.048 149.183 19.84 149.807 19.84C150.415 19.84 150.895 20.048 151.231 20.464C151.551 20.88 151.727 21.456 151.727 22.192C151.727 22.928 151.551 23.488 151.231 23.904ZM160.653 25.664C161.229 26 161.885 26.16 162.621 26.16C163.357 26.16 164.029 26 164.605 25.664C165.181 25.344 165.645 24.88 165.965 24.272C166.285 23.664 166.445 22.976 166.445 22.192C166.445 21.424 166.285 20.736 165.965 20.128C165.645 19.52 165.181 19.056 164.605 18.72C164.029 18.4 163.357 18.224 162.621 18.224C161.885 18.224 161.229 18.4 160.653 18.72C160.077 19.056 159.629 19.52 159.309 20.128C158.989 20.736 158.829 21.424 158.829 22.192C158.829 22.976 158.989 23.664 159.309 24.272C159.629 24.88 160.077 25.344 160.653 25.664ZM164.093 23.92C163.741 24.336 163.261 24.528 162.621 24.528C161.997 24.528 161.517 24.336 161.165 23.92C160.813 23.504 160.653 22.928 160.653 22.192C160.653 21.456 160.813 20.896 161.165 20.48C161.517 20.064 161.997 19.856 162.621 19.856C163.261 19.856 163.741 20.064 164.093 20.48C164.429 20.896 164.605 21.456 164.605 22.192C164.605 22.944 164.429 23.52 164.093 23.92ZM174.66 19.28C174.132 18.576 173.348 18.224 172.308 18.224C171.332 18.224 170.596 18.576 170.1 19.28V19.264C170.1 18.592 169.796 18.256 169.22 18.256C168.612 18.256 168.324 18.592 168.324 19.264V25.12C168.324 25.792 168.612 26.128 169.22 26.128C169.796 26.128 170.1 25.792 170.1 25.12V22.272C170.1 21.472 170.228 20.864 170.5 20.464C170.756 20.064 171.22 19.856 171.892 19.856C172.548 19.856 173.012 20.064 173.284 20.464C173.54 20.864 173.684 21.472 173.684 22.272V25.12C173.684 25.792 173.972 26.128 174.564 26.128C175.156 26.128 175.46 25.792 175.46 25.12V22.16C175.46 20.944 175.188 19.984 174.66 19.28ZM185.298 24.688C185.138 24.576 184.914 24.512 184.626 24.512C184.178 24.512 183.874 24.432 183.714 24.272C183.554 24.112 183.49 23.84 183.49 23.456V20.016H184.594C185.202 20.016 185.522 19.744 185.522 19.2C185.522 18.656 185.202 18.384 184.594 18.384H183.49V17.264C183.49 16.592 183.186 16.256 182.594 16.256C181.986 16.256 181.698 16.592 181.698 17.264V18.384H181.042C180.738 18.384 180.498 18.464 180.338 18.592C180.178 18.72 180.098 18.928 180.098 19.2C180.098 19.744 180.402 20.016 181.042 20.016H181.698V23.6C181.698 24.432 181.89 25.072 182.29 25.504C182.674 25.936 183.378 26.144 184.37 26.144C185.138 26.144 185.538 25.856 185.538 25.248C185.538 24.992 185.458 24.8 185.298 24.688ZM193.536 19.264C193.008 18.576 192.176 18.224 191.056 18.224C190.128 18.224 189.44 18.544 188.976 19.184V14.944C188.976 14.288 188.672 13.952 188.08 13.952C187.472 13.952 187.168 14.288 187.168 14.944V25.12C187.168 25.44 187.232 25.696 187.392 25.872C187.536 26.048 187.76 26.128 188.08 26.128C188.672 26.128 188.976 25.792 188.976 25.12V22.272C188.976 21.472 189.104 20.864 189.376 20.448C189.632 20.048 190.096 19.84 190.752 19.84C191.392 19.84 191.856 20.048 192.128 20.448C192.384 20.864 192.528 21.472 192.528 22.272V25.12C192.528 25.792 192.816 26.128 193.424 26.128C193.728 26.128 193.952 26.048 194.112 25.872C194.256 25.696 194.336 25.44 194.336 25.12V22.16C194.336 20.928 194.064 19.968 193.536 19.264ZM202.815 24.08C202.655 23.952 202.479 23.872 202.287 23.872C202.127 23.872 201.951 23.936 201.743 24.048C201.455 24.208 201.167 24.336 200.911 24.416C200.655 24.496 200.335 24.528 199.983 24.528C199.439 24.528 198.975 24.384 198.623 24.096C198.255 23.808 198.015 23.408 197.903 22.896H201.567C202.047 22.896 202.383 22.8 202.591 22.576C202.799 22.352 202.911 22.016 202.911 21.552C202.911 20.496 202.623 19.664 202.047 19.088C201.471 18.512 200.719 18.224 199.775 18.224C199.039 18.224 198.399 18.4 197.839 18.736C197.279 19.072 196.847 19.536 196.543 20.128C196.223 20.736 196.079 21.424 196.079 22.192C196.079 22.976 196.239 23.664 196.559 24.272C196.879 24.88 197.327 25.344 197.919 25.664C198.511 26 199.199 26.16 199.983 26.16C200.591 26.16 201.151 26.096 201.663 25.952C202.175 25.808 202.559 25.584 202.815 25.28C202.975 25.104 203.055 24.88 203.055 24.624C203.055 24.4 202.975 24.224 202.815 24.08ZM198.559 20.256C198.879 20 199.295 19.856 199.775 19.856C200.223 19.856 200.591 20 200.847 20.256C201.103 20.512 201.247 20.896 201.279 21.376H197.903C198.015 20.896 198.239 20.512 198.559 20.256Z" fill="#EFE1FB"/>
<path d="M39.7422 27.1719H40.1172C43.5859 27.1719 46.4922 23.5625 46.4922 20.2344C46.4922 19.9766 46.4922 19.7422 46.4453 19.4844C43.1172 19.4844 39.7188 23.0703 39.7188 26.5859C39.7188 26.7734 39.7188 26.9844 39.7422 27.1719ZM34.9844 53C37.1172 53 37.9375 51.5938 40.4922 51.5938C43.0703 51.5938 43.8203 53 46.0469 53C48.7422 53 53.5 46.5547 53.5 44.0469C53.4297 44.0469 48.9531 42.3359 48.9531 37.2734C48.9531 33.0547 52.4453 30.9922 52.5859 30.9219C51.1094 28.7422 48.6953 27.5469 45.9297 27.5469C43.5156 27.5469 41.3125 29.1406 40 29.1406C38.7109 29.1406 36.6719 27.6641 34.4922 27.6641C29.4297 27.6641 26.1719 32.1406 26.1719 37.6016C26.1719 43.5781 30.6953 53 34.9844 53Z" fill="white"/>
</svg>
