<svg width="28" height="34" viewBox="0 0 28 34" fill="none" xmlns="http://www.w3.org/2000/svg">
<path d="M13.7422 8.17188H14.1172C17.5859 8.17188 20.4922 4.5625 20.4922 1.23438C20.4922 0.976562 20.4922 0.742188 20.4453 0.484375C17.1172 0.484375 13.7188 4.07031 13.7188 7.58594C13.7188 7.77344 13.7188 7.98438 13.7422 8.17188ZM8.98438 34C11.1172 34 11.9375 32.5938 14.4922 32.5938C17.0703 32.5938 17.8203 34 20.0469 34C22.7422 34 27.5 27.5547 27.5 25.0469C27.4297 25.0469 22.9531 23.3359 22.9531 18.2734C22.9531 14.0547 26.4453 11.9922 26.5859 11.9219C25.1094 9.74219 22.6953 8.54688 19.9297 8.54688C17.5156 8.54688 15.3125 10.1406 14 10.1406C12.7109 10.1406 10.6719 8.66406 8.49219 8.66406C3.42969 8.66406 0.171875 13.1406 0.171875 18.6016C0.171875 24.5781 4.69531 34 8.98438 34Z" fill="white"/>
</svg>
