<svg width="126" height="161" viewBox="0 0 126 161" fill="none" xmlns="http://www.w3.org/2000/svg">
<g filter="url(#filter0_dd)">
<rect x="23" y="12" width="80" height="80" rx="40" fill="#ECFCCB"/>
<rect x="21" y="10" width="84" height="84" rx="42" stroke="#84CC16" stroke-width="4"/>
</g>
<g filter="url(#filter1_dd)">
<g filter="url(#filter2_i)">
<path d="M32.5 99C32.5 91.268 38.768 85 46.5 85H79.5C87.232 85 93.5 91.268 93.5 99V99C93.5 106.732 87.232 113 79.5 113H46.5C38.768 113 32.5 106.732 32.5 99V99Z" fill="#84CC16"/>
<path d="M52.1815 103.44H46.9615V100.24H51.3415C51.7815 100.24 52.1415 100.14 52.4015 99.94C52.6415 99.74 52.7815 99.42 52.7815 98.98C52.7815 98.56 52.6415 98.24 52.4015 98.02C52.1415 97.8 51.7815 97.68 51.3415 97.68H46.9615V94.76H52.1815C52.6215 94.76 52.9815 94.66 53.2415 94.44C53.4815 94.24 53.6215 93.92 53.6215 93.48C53.6215 93.06 53.4815 92.74 53.2415 92.52C52.9815 92.32 52.6215 92.2 52.1815 92.2H45.5415C45.0615 92.2 44.7015 92.34 44.4815 92.62C44.2415 92.9 44.1415 93.3 44.1415 93.8V104.4C44.1415 104.92 44.2415 105.3 44.4815 105.58C44.7015 105.86 45.0615 106 45.5415 106H52.1815C52.6215 106 52.9815 105.9 53.2415 105.68C53.4815 105.48 53.6215 105.16 53.6215 104.72C53.6215 104.3 53.4815 103.98 53.2415 103.76C52.9815 103.56 52.6215 103.44 52.1815 103.44ZM55.8141 103.14C55.8141 105.18 56.8141 106.18 58.8141 106.18C59.2541 106.18 59.6141 106.08 59.8741 105.84C60.1141 105.6 60.2541 105.28 60.2541 104.84C60.2541 104.48 60.1541 104.22 59.9541 104.04C59.7541 103.88 59.4941 103.78 59.1941 103.78C58.9141 103.78 58.7341 103.72 58.6341 103.6C58.5141 103.48 58.4741 103.28 58.4741 103.02V92.42C58.4741 91.42 58.0141 90.92 57.1341 90.92C56.6741 90.92 56.3341 91.06 56.1341 91.32C55.9141 91.58 55.8141 91.94 55.8141 92.42V103.14ZM63.5902 105.58C64.3302 106 65.1702 106.2 66.1302 106.2C67.0702 106.2 67.9102 106 68.6502 105.58C69.3902 105.16 69.9702 104.56 70.3902 103.8C70.7902 103.04 71.0102 102.18 71.0102 101.18C71.0102 100.2 70.7902 99.32 70.3902 98.56C69.9702 97.8 69.3902 97.22 68.6502 96.8C67.9102 96.38 67.0702 96.16 66.1302 96.16C65.1702 96.16 64.3302 96.38 63.5902 96.8C62.8502 97.22 62.2702 97.8 61.8702 98.56C61.4502 99.32 61.2502 100.2 61.2502 101.18C61.2502 102.18 61.4502 103.04 61.8702 103.8C62.2702 104.56 62.8502 105.16 63.5902 105.58ZM67.7302 103.12C67.3702 103.58 66.8302 103.8 66.1302 103.8C65.4102 103.8 64.8702 103.58 64.5102 103.12C64.1502 102.68 63.9702 102.02 63.9702 101.18C63.9702 100.36 64.1502 99.72 64.5102 99.26C64.8702 98.8 65.4102 98.56 66.1302 98.56C66.8302 98.56 67.3702 98.8 67.7302 99.24C68.0902 99.7 68.2902 100.34 68.2902 101.18C68.2902 102.02 68.0902 102.68 67.7302 103.12ZM81.2793 97.52C80.5993 96.62 79.6193 96.16 78.3393 96.16C77.2193 96.16 76.3593 96.56 75.7193 97.34C75.6393 96.58 75.1993 96.2 74.4193 96.2C73.5393 96.2 73.0993 96.7 73.0993 97.68V104.68C73.0993 105.68 73.5393 106.18 74.4193 106.18C75.2993 106.18 75.7393 105.68 75.7393 104.68V101.32C75.7393 100.4 75.8793 99.7 76.1593 99.24C76.4393 98.8 76.9393 98.56 77.6993 98.56C78.4393 98.56 78.9593 98.8 79.2393 99.24C79.5193 99.7 79.6593 100.4 79.6593 101.32V104.68C79.6593 105.68 80.0993 106.18 80.9793 106.18C81.4193 106.18 81.7593 106.06 81.9793 105.8C82.1793 105.54 82.2993 105.16 82.2993 104.68V101.16C82.2993 99.64 81.9593 98.42 81.2793 97.52Z" fill="white"/>
</g>
</g>
<g clip-path="url(#clip0)">
<g clip-path="url(#clip1)">
<path fill-rule="evenodd" clip-rule="evenodd" d="M73.3851 72.3895C70.5683 70.2438 63.4965 69.2788 60.4901 71.3449C57.5207 73.4197 57.197 76.7749 55.8133 79.8614C54.5078 79.2455 52.3518 80.1276 51.9733 81.3394C51.5039 81.911 51.4828 83.5169 51.1591 84.2853C37.073 86.5283 34.9345 97.5144 33.239 109.987C30.9961 122.643 25.9044 135.272 28.1148 148.295C27.8268 148.712 27.5997 149.117 27.3897 149.599C26.8866 150.455 27.5346 151.667 28.5494 151.62C29.863 151.505 31.1635 151.347 32.4832 151.298C36.1415 151.171 39.8032 151.186 43.463 151.233L43.962 151.239C62.406 151.469 80.8491 151.922 99.2939 152.042C99.963 152.043 100.291 151.442 100.201 150.85C100.021 149.658 99.8544 148.465 99.6802 147.272C104.043 148.425 108.681 148.715 113.031 147.393C113.335 147.083 112.322 147.251 112.161 147.204C116.165 144.467 114.969 138.701 114.615 134.549C112.409 120.319 111.632 104.575 103.111 92.4327C99.4252 87.4774 94.0211 83.5542 87.8113 82.6714L87.639 82.6478C85.8233 82.4056 83.7997 82.3276 82.2121 81.3394C80.4266 79.9135 79.6657 77.2787 77.7873 77.254C77.167 77.2459 76.3232 78.0309 75.4152 78.5639C75.3474 77.3914 74.7158 76.402 74.5764 75.4929L74.5651 75.4152C74.4196 74.3553 74.6189 73.4018 73.3851 72.3895ZM43.1129 110.363C47.0715 107.612 57.2972 108.994 57.5313 109.148C58.0468 109.487 58.2687 109.517 58.5475 109.958C58.8227 109.994 59.0978 110.032 59.3725 110.071C59.9238 110.251 59.5153 110.93 58.8785 110.687C59.2615 112.34 58.1344 113.515 57.6857 115.148C57.5401 115.679 57.6805 116.633 57.6857 117.175C57.6422 117.866 56.8786 118.682 57.0059 119.375C57.4583 121.839 59.9138 124.244 58.8785 126.634C58.1927 127.984 56.1301 128.672 54.7587 129.131C51.9175 130.222 46.9669 129.09 45.316 126.634C44.4355 125.324 43.4153 122.019 42.8903 120.994L42.774 119.368C42.487 115.326 42.2317 110.975 43.1129 110.363Z" fill="white"/>
<path fill-rule="evenodd" clip-rule="evenodd" d="M78.477 77.0157C78.2037 76.7736 77.7993 77.0778 77.973 77.4048C78.3632 78.1399 78.7635 78.8363 79.2873 79.4861C79.6048 79.8801 79.945 80.2527 80.2897 80.6212C79.405 81.3868 78.6463 82.3374 77.9298 83.2282C77.0136 84.3676 76.1474 85.5553 75.1189 86.5979C74.1046 87.6261 72.9831 88.3448 71.627 88.8241L71.3531 88.9193C69.9909 89.3977 68.5349 90.0438 67.767 91.3342C67.6156 91.5886 67.9205 91.903 68.1768 91.7442C69.5111 90.9177 71.0788 90.7515 72.5312 90.2054C73.9342 89.6779 75.1573 88.866 76.2379 87.8298C77.3167 86.7954 78.2225 85.6184 79.1674 84.4664C80.1017 83.3272 81.1077 82.3543 82.2128 81.3904C83.9183 82.5382 85.865 83.0376 87.8445 83.5282L88.0606 83.5817C90.0424 84.0725 92.0137 84.6426 93.873 85.4974C95.5123 86.2509 97.1247 87.1508 98.46 88.3771C99.8775 89.6785 100.981 91.3406 101.99 92.966C104.249 96.6025 105.837 100.587 107.235 104.619C108.689 108.813 109.905 113.092 110.887 117.421C111.386 119.623 111.792 121.84 112.125 124.074C112.286 125.149 112.428 126.227 112.553 127.307C112.687 128.461 112.718 129.648 113.072 130.757C113.223 131.232 113.581 131.429 113.94 131.413L114.013 132.323C114.109 133.538 114.199 134.753 114.229 135.974C114.28 138.006 114.257 140.032 114.111 142.06L114.09 142.336C113.975 143.816 113.719 145.478 112.607 146.562C111.455 147.684 109.683 148.037 108.131 148.057C104.515 148.104 101.035 146.395 97.8349 144.895C94.5396 143.351 91.3344 141.637 88.2059 139.778C86.6127 138.832 85.0367 137.853 83.4808 136.847C82.7173 136.353 81.9592 135.85 81.2067 135.339C80.7757 135.047 80.3673 134.726 79.9286 134.467C80.1436 134.267 80.2395 133.952 80.0595 133.677C81.3278 132.575 81.8557 130.61 81.9174 129.02C81.9673 127.736 81.7784 126.456 81.6294 125.185C81.5542 124.543 81.4613 123.903 81.3649 123.265C81.3268 123.013 81.2977 122.743 81.2532 122.477C84.678 124.36 88.1987 126.036 91.8127 127.526C93.6652 128.289 95.5414 128.976 97.4435 129.605L97.8291 129.732C99.6313 130.322 101.477 130.88 103.34 131.217C103.439 131.235 103.52 131.088 103.414 131.041C101.598 130.24 99.7197 129.564 97.8767 128.825L97.5738 128.702C97.6087 128.7 97.6447 128.695 97.6824 128.686C98.7632 128.425 99.8356 128.023 100.896 127.685C101.88 127.37 102.985 127.173 103.905 126.698C103.975 126.662 103.936 126.564 103.867 126.559C102.833 126.487 101.711 126.789 100.698 126.966L100.317 127.033C99.6793 127.145 99.0273 127.266 98.3927 127.424C98.3698 127.211 98.251 126.997 98.082 126.872C96.2223 125.494 96.4112 122.712 96.2123 120.66L96.0648 119.136C95.8054 116.47 95.5309 113.805 95.114 111.158C95.0917 111.017 94.8732 111.058 94.8723 111.191C94.8508 114.471 95.0983 117.736 95.2224 121.011L95.2416 121.549C95.3102 123.57 95.3639 125.668 96.6362 127.223C96.4583 127.119 96.2178 127.119 96.0736 127.29C95.8965 127.501 95.7943 127.738 95.7975 127.97C94.6478 127.488 93.5032 126.993 92.3641 126.489C88.702 124.866 85.1166 123.049 81.6261 121.084C81.2504 120.872 80.8934 121.039 80.7076 121.318L80.6808 121.314C80.6763 121.313 80.6718 121.313 80.6671 121.312L80.6405 121.311C80.6395 121.311 80.6385 121.311 80.6376 121.311C80.1462 121.041 79.4768 121.234 79.0552 121.628C79.0427 121.64 79.0321 121.652 79.0211 121.665C78.4873 121.425 77.9888 121.102 77.5365 120.691C76.6108 119.852 75.8268 118.814 75.1432 117.774C73.8845 115.857 72.8153 113.726 71.1149 112.148C69.7334 110.866 68.0206 110.068 66.2237 109.567C66.2312 109.514 66.2111 109.458 66.1748 109.421C66.0825 109.327 66.0167 109.294 65.8974 109.351C65.888 109.356 65.8823 109.362 65.8784 109.369L65.703 109.07C65.6073 108.907 65.509 108.743 65.475 108.7C65.271 108.443 65.061 108.188 64.8478 107.938C64.4865 107.516 64.0746 107.099 63.5978 106.805C62.5536 106.164 61.456 106.527 60.3826 106.878C59.734 107.09 59.0875 107.308 58.4401 107.524L58.3733 107.545C57.8905 107.701 57.3256 107.836 57.1097 108.348C57.0242 108.55 57.011 108.761 57.0508 108.965C52.4654 107.798 47.3724 108.334 42.8978 109.703C42.726 109.756 42.5545 109.897 42.5183 110.083C42.0056 112.713 41.7773 115.41 42.0093 118.086C42.2094 120.395 42.7209 122.658 43.6847 124.772L43.7395 124.891C44.6452 126.85 46.0808 129.265 48.2732 129.879C49.597 130.25 51.0611 130.032 52.4113 129.964C53.7234 129.898 55.0647 129.888 56.3644 129.682C57.5219 129.498 58.5362 128.979 59.2515 128.037C59.8686 127.225 60.1936 126.243 60.4598 125.266C60.5817 125.305 60.7028 125.347 60.8219 125.393C61.3248 125.59 61.7509 125.907 62.1361 126.28C62.9496 127.068 63.5806 128.025 64.4318 128.777C65.2023 129.458 66.0802 129.988 67.022 130.395C68.9734 131.238 71.0669 131.575 73.1311 132.022L73.275 132.054C74.829 132.395 76.4151 132.814 77.7867 133.623C77.8135 133.861 77.9221 134.085 78.096 134.232C77.854 134.46 77.7516 134.819 77.9642 135.157C78.558 136.1 79.5808 136.636 80.4991 137.239L80.5588 137.279C81.4621 137.878 82.3733 138.465 83.2919 139.04C85.1593 140.21 87.0657 141.315 88.9991 142.372C92.1087 144.071 95.2851 145.674 98.519 147.128C98.3249 148.084 98.3958 149.069 98.25 150.03L98.2276 150.168C98.1653 150.524 98.2494 150.823 98.4952 151.056L98.5212 151.08L98.5207 151.077L98.5438 151.098L98.5515 151.104L98.5489 151.102C98.5772 151.128 98.6065 151.153 98.6363 151.173L98.6742 151.198C98.9109 151.342 99.2156 151.34 99.458 151.213L99.4857 151.198L99.5322 151.171C99.8524 150.987 100.073 150.53 99.9404 150.168C99.6139 149.276 99.4906 148.325 99.1891 147.428L99.4283 147.535L99.7435 147.672C103.153 149.147 106.94 150.389 110.655 149.383C112.296 148.939 113.83 147.999 114.652 146.467C115.46 144.96 115.574 143.209 115.617 141.532C115.67 139.462 115.559 137.361 115.286 135.309C115.103 133.932 114.881 132.528 114.54 131.165C114.715 131.01 114.845 130.787 114.879 130.512C115.04 129.21 114.758 127.856 114.585 126.561C114.416 125.297 114.23 124.035 114.019 122.776C113.593 120.235 113.098 117.7 112.523 115.189C111.498 110.719 110.144 106.329 108.515 102.044L108.372 101.671C106.866 97.7547 105.123 93.9216 102.695 90.481C101.534 88.8349 100.306 87.3424 98.6653 86.1562C97.128 85.0448 95.394 84.2446 93.6045 83.6329C91.8131 83.0208 89.9718 82.6107 88.098 82.3555C86.195 82.0964 84.1863 81.9375 82.4111 81.1567C82.6356 80.7539 82.4429 80.2102 82.065 79.9604C80.7931 79.1198 79.6169 78.0262 78.477 77.0157ZM37.7617 113.571C37.7084 113.49 37.5818 113.541 37.6052 113.637C38.2238 116.172 38.8045 118.712 39.1837 121.296C39.8682 125.959 39.7423 130.683 39.6863 135.381L39.6835 135.624C39.6548 138.154 39.6148 140.685 39.5312 143.214C39.489 144.493 39.4054 145.783 39.4509 147.062C39.4756 147.756 39.6605 148.413 39.726 149.098C39.7834 149.697 39.7322 150.306 39.7036 150.906C39.6844 151.305 40.2732 151.288 40.3133 150.906L40.3645 150.412C40.431 149.787 40.5133 149.165 40.7182 148.567C40.9645 147.847 41.0827 147.139 41.1682 146.384C41.2991 145.225 41.3573 144.055 41.4079 142.889L41.4424 142.082C41.6534 137.207 41.646 132.309 41.3044 127.439L41.2795 127.092C40.9412 122.488 40.3544 117.515 37.7617 113.571ZM50.9477 84.5584C51.1093 84.492 51.0527 84.2476 50.8738 84.2902L50.5484 84.3678C48.1641 84.9391 45.8231 85.5581 43.5976 86.6212C41.3708 87.6849 39.4854 89.2729 37.9874 91.2257C35.0753 95.0215 33.8651 99.6345 32.9098 104.243C31.8481 109.364 30.8815 114.504 29.8105 119.624L29.6117 120.577C28.6207 125.345 27.6852 130.116 26.9958 134.941L26.9463 135.291C26.2511 140.252 25.8329 145.386 26.5915 150.36C26.7415 151.344 28.3786 151.099 28.3146 150.127C28.1297 147.316 27.9973 144.52 28.1252 141.703C28.2533 138.885 28.5174 136.079 28.9112 133.286C29.2426 130.936 29.7366 128.615 30.1738 126.283L30.2423 125.915C30.6084 123.931 30.9858 121.95 31.3624 119.969L31.9251 117.002C32.7685 112.56 33.6284 108.114 34.6 103.7L34.6577 103.44C35.6085 99.193 37.0104 94.7444 39.8625 91.372C42.757 87.9495 46.9004 86.2259 50.9477 84.5584ZM61.4649 129.604C61.3953 129.449 61.1518 129.466 61.077 129.604C60.7837 130.145 60.7511 130.836 60.6956 131.447L60.6898 131.51C60.6193 132.256 60.5568 133.004 60.5186 133.753C60.4462 135.173 60.4115 136.591 60.4159 138.013C60.4205 139.47 60.4498 140.925 60.5283 142.38L60.5496 142.77C60.6213 144.034 60.7415 145.444 61.342 146.55C61.5603 146.952 62.1541 146.833 62.2805 146.427C62.6947 145.096 62.482 143.519 62.3758 142.156L62.2933 141.093C62.2116 140.029 62.1337 138.965 62.0719 137.901C61.9872 136.444 61.9174 134.986 61.8502 133.528C61.8283 133.055 61.8047 132.582 61.7798 132.108L61.7414 131.398C61.7087 130.804 61.7114 130.153 61.4649 129.604ZM108.039 131.49L107.856 131.312C107.293 130.761 106.581 129.913 105.749 129.965C105.417 129.986 105.206 130.262 105.275 130.588C105.422 131.287 106.134 131.649 106.646 132.075C107.207 132.542 107.737 133.041 108.265 133.545C108.733 133.991 109.184 134.451 109.624 134.924L109.788 135.103C109.946 135.275 111.068 136.291 110.947 136.554L110.94 136.566C110.906 136.616 110.963 136.686 111.019 136.668C111.503 136.515 111.473 136.099 111.29 135.678C110.938 134.869 110.321 134.12 109.783 133.43C109.246 132.74 108.664 132.098 108.039 131.49ZM59.7084 111.198C60.0833 110.312 61.4641 110.331 62.2481 110.383C64.2222 110.517 66.3581 111.017 68.1146 111.94C69.9356 112.897 71.1623 114.43 72.2599 116.125L72.3112 116.205C73.381 117.869 74.4113 119.838 76.0865 120.982C76.9397 121.565 77.936 122.097 78.9712 122.327C79.0423 122.452 79.1574 122.551 79.3084 122.587L79.3786 122.603C79.6734 122.668 80.1315 122.74 80.5271 122.697C80.5245 122.891 80.5265 123.083 80.5216 123.266C80.5077 123.792 80.5018 124.32 80.5018 124.846C80.5015 125.948 80.5608 127.053 80.5148 128.155C80.474 129.129 80.3364 130.148 79.8686 131.019C79.5254 131.658 79.0725 132.082 78.5258 132.485C77.1809 131.665 75.6602 131.166 74.1167 130.79C72.2501 130.335 70.3388 130.032 68.5147 129.416C67.6367 129.119 66.7926 128.731 66.0279 128.204C65.2162 127.644 64.5962 126.886 63.9584 126.145L63.8586 126.03C63.2077 125.283 62.4973 124.569 61.5773 124.164C60.785 123.815 59.7408 123.753 59.0481 123.213C58.6859 122.931 58.6555 122.521 58.6174 122.101C59.0611 122.165 59.5307 122.063 59.9729 122.011L60.202 121.984C60.6201 121.934 61.0287 121.88 61.4403 121.773C61.5167 121.754 61.5167 121.638 61.4403 121.619C60.9538 121.493 60.4717 121.439 59.9729 121.381L59.8558 121.366C59.4045 121.307 58.9303 121.218 58.4877 121.317C58.4082 121.015 58.2936 120.726 58.1327 120.437C57.9068 120.031 57.4795 119.571 57.4218 119.096C57.4045 118.955 57.4375 118.788 57.5042 118.662L57.5273 118.62C57.5553 118.569 57.5886 118.519 57.6372 118.487C57.6426 118.494 57.654 118.501 57.6787 118.508C58.0193 118.616 58.3165 118.449 58.4742 118.192C59.1437 118.275 59.8743 118.247 60.5022 118.275L61.137 118.306C61.8152 118.337 62.5244 118.35 63.1617 118.213C63.2507 118.194 63.2777 118.046 63.1886 118.008C62.405 117.673 61.4544 117.566 60.6155 117.437C60.1469 117.365 59.675 117.31 59.2051 117.247C58.8922 117.204 58.5601 117.135 58.2359 117.118C57.4231 116.106 57.8611 114.509 58.9923 114.073C59.4043 114.254 59.7748 114.149 60.225 114.11C60.6744 114.071 61.1249 114.045 61.5761 114.047C62.4802 114.051 63.4382 114.289 64.3335 114.187C64.4791 114.17 64.6145 113.976 64.4697 113.858C63.7843 113.298 62.8021 113.116 61.9322 112.997L61.7519 112.973C61.4602 112.934 61.1056 112.879 60.7377 112.845C60.6545 112.683 60.5052 112.56 60.281 112.53C60.2144 112.521 60.1474 112.515 60.0805 112.51L60.0816 112.503C59.5347 112.477 59.5585 111.553 59.7084 111.198ZM97.1446 128.484C97.1542 128.499 97.1648 128.513 97.176 128.527L97.1934 128.547L97.1035 128.511L97.1446 128.484ZM50.1663 109.218C52.4679 108.97 54.7728 109.023 57.0812 109.089C57.2659 109.693 57.9085 110.208 58.5312 110.227C58.0435 110.97 57.9932 111.975 58.3352 112.762C57.6091 113.052 56.9836 113.571 56.6038 114.311C56.0772 115.336 56.1461 116.477 56.6666 117.425C56.2223 117.827 55.9602 118.481 55.9865 119.096C56.0158 119.783 56.4249 120.37 56.7648 120.938C57.1321 121.553 57.1445 122.094 57.2573 122.783C57.4224 123.791 58.1018 124.402 58.976 124.783L58.9296 124.966C58.7042 125.844 58.4238 126.77 57.7796 127.412C56.9509 128.237 55.6654 128.23 54.5706 128.282L54.5177 128.285C53.5152 128.335 52.5131 128.394 51.5109 128.45L50.7593 128.492C49.6054 128.556 48.4973 128.564 47.5553 127.8C46.0174 126.555 44.9632 124.493 44.2958 122.668C42.8952 118.838 42.8785 114.634 43.5214 110.644C45.6775 109.949 47.9146 109.46 50.1663 109.218ZM69.307 115.573L69.2901 115.574C68.8162 115.628 68.4907 116.012 68.3747 116.468C68.2063 117.129 68.2889 117.728 67.8837 118.325C67.4668 118.94 67.2106 119.432 67.15 120.191C67.1251 120.503 67.1365 120.814 67.067 121.12L67.0166 121.334C66.9631 121.563 66.9193 121.783 66.9459 122.028C66.9702 122.252 67.0791 122.426 67.3033 122.497C68.034 122.731 68.5981 122.193 68.7869 121.511C68.9499 120.923 68.7322 120.222 68.9623 119.669C69.0897 119.363 69.3248 119.107 69.4576 118.799C69.5892 118.493 69.6553 118.174 69.6764 117.842C69.7164 117.213 69.1609 116.458 69.4709 115.889C69.5369 115.768 69.4621 115.569 69.307 115.573ZM79.0124 109.089C78.5177 108.989 77.9563 108.758 77.4684 108.95C77.2176 109.048 77.0937 109.354 77.3056 109.567C77.6735 109.936 78.2082 109.956 78.7037 110.043L78.7474 110.051C79.3333 110.16 79.9203 110.263 80.5081 110.36C81.6139 110.543 82.7224 110.705 83.8348 110.843C84.9772 110.984 86.1229 111.11 87.2702 111.205L87.7143 111.241C88.6834 111.319 89.6918 111.377 90.6427 111.229C90.7809 111.207 90.7586 111.006 90.6427 110.971C89.601 110.655 88.4583 110.571 87.3813 110.437C86.2363 110.295 85.0933 110.145 83.9532 109.967C82.815 109.789 81.6782 109.598 80.5456 109.387C80.0337 109.292 79.5226 109.193 79.0124 109.089ZM61.1593 108.076C61.5935 107.923 62.0712 107.695 62.5417 107.771C63.353 107.903 64.0751 108.693 64.7173 109.214L64.3948 109.151C62.7449 108.834 60.5599 108.492 59.1748 109.542C59.1713 109.536 59.1686 109.53 59.1646 109.524C59.0527 109.354 58.9232 109.221 58.7818 109.076C58.7683 109.063 58.7553 109.05 58.7424 109.037L58.6661 108.955L58.8406 108.895C59.2143 108.763 59.657 108.592 59.727 108.567L59.7318 108.566C60.2082 108.404 60.6852 108.245 61.1593 108.076ZM74.7159 73.4789C74.7838 72.6053 73.4246 72.6124 73.3573 73.4789C73.2104 75.3704 73.6359 77.2441 74.5518 78.9024C74.5585 78.9145 74.5659 78.9252 74.573 78.9366C74.0002 79.2348 73.4208 79.5209 72.8286 79.7766C72.071 80.1038 71.2992 80.4017 70.5135 80.6545C69.8028 80.8832 68.9273 80.9735 68.3298 81.4495C67.0699 82.4532 67.5432 84.5361 67.7856 85.8862L67.8234 86.0993C67.9441 86.7941 68.0314 87.5069 67.7386 88.1736C67.4259 88.8858 66.7936 89.4142 66.2296 89.9237L66.1156 90.0271C65.616 90.4825 65.045 91.0358 64.6785 91.6532C64.3439 90.9612 63.8878 90.3957 63.4056 89.759C63.0615 89.3047 63.3064 89.1549 63.5536 88.7111C63.7915 88.2839 63.9076 87.8285 63.8332 87.3412C63.696 86.4412 62.977 85.7911 62.2613 85.3026C61.416 84.726 60.4727 84.2989 59.5989 83.7624C57.8035 82.6604 56.055 81.4003 54.4797 80.0009C54.4362 79.9622 54.3609 80.0129 54.3957 80.0658C55.6401 81.9592 57.0992 83.5954 58.8925 84.9842C59.6196 85.5474 60.3835 86.0145 61.1524 86.5056L61.3735 86.6475C61.6822 86.8476 62.0673 87.115 62.2069 87.4556C62.3474 87.7982 62.0479 88.0569 61.8866 88.3406C61.3746 89.2418 61.6217 90.0827 62.2287 90.847L62.2569 90.8822C62.8601 91.6258 63.3172 92.3174 63.5359 93.2674C64.0056 95.3081 63.3513 97.4338 62.6664 99.3496L62.6393 99.4251C62.2688 100.458 61.875 101.483 61.5531 102.532L61.4645 102.822C61.1729 103.788 60.934 104.74 61.2612 105.732C61.3725 106.07 61.8327 106.149 62.0238 105.832C62.6981 104.711 62.8662 103.363 63.2888 102.132C63.7008 100.931 64.1738 99.7523 64.5717 98.5469C65.084 96.995 65.4269 95.3244 65.2408 93.6966C65.2463 93.6871 65.2523 93.6782 65.2569 93.6682L65.3873 93.3827C65.743 92.61 66.0865 91.935 66.7333 91.3191C67.4079 90.6765 68.1401 90.1077 68.671 89.3298C69.824 87.6402 69.1109 85.7606 68.9716 83.9131L68.9557 83.6866C68.9304 83.303 68.9165 82.7817 69.167 82.5162C69.4487 82.2174 70.1094 82.1411 70.4833 82.0088C71.4493 81.6668 72.4014 81.2683 73.3081 80.7897C74.1712 80.3342 75.0073 79.8311 75.7858 79.2416L76.1803 78.9446C76.8029 78.4747 77.4484 77.9616 77.8657 77.3219C77.9138 77.2483 77.832 77.1295 77.7448 77.1647C77.0483 77.4475 76.4119 77.8973 75.7602 78.2886C75.75 78.2647 75.7383 78.2406 75.7249 78.2164C74.9186 76.7566 74.587 75.1393 74.7159 73.4789ZM52.4662 83.4806C52.1887 82.7193 50.9239 82.7781 50.9743 83.6827C51.013 84.3776 51.3079 85.0049 51.5776 85.6358L51.6064 85.7034C51.8848 86.3609 52.2064 86.9781 52.5911 87.5806C53.3264 88.7324 54.1875 89.8014 55.1074 90.8102C55.9413 91.7248 57.0359 92.284 58.2971 92.1911C58.8285 92.152 59.365 92.0167 59.8307 91.7512C60.3838 91.4356 60.9844 90.4883 61.6901 90.7177C61.7583 90.7399 61.822 90.6399 61.763 90.5925C60.9484 89.9362 60.0237 90.9538 59.2438 91.199C58.0686 91.5683 56.8625 91.16 56.1061 90.2095C55.3163 89.2171 54.5894 88.1061 53.9257 87.0256C53.5886 86.477 53.2811 85.9076 53.0154 85.3207C52.7474 84.7283 52.6864 84.0846 52.4662 83.4806ZM54.3606 78.7954C54.3948 78.6903 54.2643 78.5903 54.1719 78.6503C53.6367 78.999 53.1728 79.4596 52.679 79.8633C52.1312 80.3113 51.5794 80.7501 51.019 81.1822C50.202 81.8122 51.1495 82.972 51.8686 82.2838C52.8527 81.3423 53.9305 80.1113 54.3606 78.7954ZM57.2995 75.1105C57.082 74.2716 55.7958 74.6176 55.9833 75.4467L55.9894 75.472C56.3444 76.8414 55.8388 78.2357 54.7594 79.1235L54.7197 79.1557C54.0369 79.7024 55.0043 80.6581 55.6804 80.1167C57.1564 78.935 57.7704 76.9275 57.2995 75.1105Z" fill="#84CC16"/>
<path fill-rule="evenodd" clip-rule="evenodd" d="M46.1278 48.4046C46.5514 45.0232 47.8819 41.4331 49.2813 38.2807C52.4278 31.6157 59.6312 30.698 66.0889 29.3238C72.4613 28.3957 79.2092 27.5577 85.4855 29.4094C89.0139 30.2742 90.392 34.478 89.8352 37.7955C89.5174 39.8627 88.5767 41.8193 87.7747 43.7351C86.1804 47.6696 85.1689 51.8818 85.1672 56.1416C85.2767 58.9254 85.6694 62.1028 82.4716 63.2819C79.4286 64.7957 79.1715 68.8994 75.3613 71.2277C73.8205 74.3497 69.6237 74.6245 66.603 75.3487C64.6939 75.7142 62.7631 75.9833 60.8271 76.157C55.2213 76.8756 50.7368 75.2506 47.8023 70.255C45.8386 67.2147 44.3762 63.7042 44.7375 60.0195C45.0973 56.1393 45.6967 52.2795 46.1278 48.4046Z" fill="white"/>
<path fill-rule="evenodd" clip-rule="evenodd" d="M66.0405 21.2236C65.7205 20.8608 65.2276 20.9852 64.9284 21.2721C64.7336 21.3295 64.5448 21.4149 64.3666 21.5279C63.9638 21.4762 63.5415 21.4762 63.1464 21.4907C63.0506 21.4369 62.9479 21.3891 62.836 21.348C62.0373 21.0559 61.3299 21.2043 60.7464 21.5954C60.4654 21.3294 60.1108 21.1625 59.6576 21.1877C59.2531 21.2103 58.9648 21.4007 58.7178 21.6515C58.4714 21.2962 58.0732 21.0426 57.577 21.0073C56.8836 20.958 56.2169 21.2362 55.6644 21.6669C55.3425 21.2975 54.9036 21.0852 54.4146 21.0831C54.0928 21.0247 53.7532 21.0478 53.4463 21.1405C53.0008 21.275 52.6097 21.5272 52.2981 21.8545C51.8053 21.3823 51.202 21.0426 50.5064 21.0922C49.606 21.1572 48.8598 21.8194 48.5129 22.6345C47.9035 22.8787 47.341 23.227 46.8708 23.7236C46.8457 23.7497 46.8218 23.7771 46.7966 23.8046C46.5433 23.8981 46.3048 24.0306 46.0949 24.2052C45.4296 24.7589 45.2813 25.5603 45.5015 26.3456C45.4707 26.4713 45.4444 26.5991 45.4205 26.7269C44.7974 26.8216 44.2314 27.1813 43.9096 27.7669C43.4692 28.5706 43.5559 29.6298 44.0329 30.3971C44.2379 30.7271 44.4982 31.0052 44.7906 31.2483C44.46 31.9995 44.6186 32.8958 45.1516 33.5034C45.2815 33.7128 45.4409 33.9019 45.6203 34.073C45.4223 34.8496 45.7744 35.6508 46.4774 36.0658L46.5375 36.2163C46.5476 36.2414 46.5578 36.2663 46.5684 36.2909C46.5762 36.3229 46.5858 36.3538 46.5952 36.385C46.612 36.6605 46.7027 36.931 46.8828 37.1858C47.2514 37.7079 47.7084 38.0485 47.9507 38.658L47.9749 38.7221C48.0791 39.0105 48.4155 39.2141 48.7022 39.125C47.1107 42.3946 46.2763 46.0326 45.7035 49.5979C45.4178 51.3766 45.1974 53.1614 45.0186 54.953L44.8433 56.7372C44.6891 58.3231 44.5518 59.9143 44.5509 61.5054C44.5487 65.1048 45.5779 68.5671 47.7871 71.4313C49.8765 74.139 52.8331 76.1013 56.1731 76.8741C59.6215 77.6709 63.6668 77.357 66.7591 75.5328C67.6709 74.9964 66.8721 73.7063 65.9444 74.1379C64.1882 74.9553 62.4035 75.5626 60.4568 75.6984C58.5592 75.8319 56.6569 75.5944 54.8574 74.9734C51.8803 73.945 49.347 71.7909 47.7187 69.1083C46.9165 67.7862 46.3356 66.3514 46.0264 64.8353C45.6415 62.9457 45.6995 60.9926 45.8409 59.0789L45.8507 58.9484C46.1302 55.2611 46.4988 51.5511 47.0945 47.9005C47.621 44.6723 48.4306 41.5095 49.4817 38.4167C49.8934 38.0542 50.3539 37.7542 50.8468 37.5263C54.4557 37.3755 58.0712 37.4196 61.6755 37.6686C64.7494 37.8825 67.8084 38.2442 70.8443 38.7715L71.1695 38.8286C71.8416 38.9483 72.5879 39.0168 73.2212 39.2875C73.7644 39.5204 73.9846 39.9678 74.1216 40.518C74.4662 41.9095 74.5187 43.4325 74.5769 44.8594C74.6339 46.2543 74.505 47.6608 74.6168 49.0511C74.7115 50.2143 75.0093 51.405 75.8709 52.2464C76.3216 52.6869 76.8762 52.9278 77.3965 53.2623C77.7332 53.4781 77.8758 53.7006 77.8324 54.1002C77.7389 54.9746 77.0348 56.0762 77.8256 56.825C77.9648 56.9563 78.2056 56.9734 78.3425 56.825C78.6689 56.4701 79.1196 56.1995 79.5064 55.9129C79.6685 55.7943 79.5338 55.5637 79.3501 55.6458C79.1082 55.7544 78.8617 55.8822 78.6095 55.9941C79.1664 55.5352 79.9583 55.3102 80.6179 55.1766C80.9499 55.1104 81.2991 55.091 81.6449 55.122C81.9005 55.244 82.1618 55.3571 82.4231 55.4677C82.7552 55.6071 83.0907 55.7337 83.4284 55.8537C84.6003 56.8091 85.1595 58.3628 84.9153 59.8822C84.7818 60.7212 84.3949 61.6334 83.6658 62.1231C82.802 62.703 81.6449 62.454 80.7115 62.8845C79.8374 63.2874 79.3056 64.1014 78.9074 64.9439L78.7413 65.2946C78.3717 66.0712 77.9918 66.8272 77.4867 67.5339C76.9024 68.3524 76.187 69.0876 75.4065 69.719C75.0278 70.0245 74.6242 70.2994 74.2071 70.5497L74.093 70.6174C73.6708 70.8651 73.3684 71.1013 73.3399 71.6253C73.3308 71.8079 73.446 71.9746 73.5944 72.0693C74.2334 72.4746 74.869 71.9677 75.4007 71.6139C75.9747 71.2326 76.5236 70.8035 77.0314 70.3354C77.9968 69.4473 78.8321 68.3925 79.4745 67.2474C79.964 66.3754 80.2425 65.1482 81.0161 64.4724C81.4885 64.0602 82.1561 64.0569 82.746 63.9814C83.2949 63.9108 83.8141 63.7966 84.3025 63.5261C86.2892 62.4222 86.8506 59.7498 86.3793 57.6847C86.2994 57.3365 86.1876 56.9974 86.0495 56.6709C86.789 56.7942 87.6197 56.0295 87.3196 55.2577C87.2968 55.1995 87.2705 55.1448 87.2454 55.0887C87.7327 54.768 88.1172 54.2818 88.2998 53.6458C88.3934 53.3171 88.4071 52.9849 88.358 52.6641C88.5942 52.5055 88.7893 52.2874 88.9149 52.0191C89.3074 51.8376 89.6554 51.566 89.8631 51.1779C90.1507 50.6424 90.1142 50.1492 89.8951 49.7052C89.9259 49.6494 89.9556 49.5923 89.9841 49.5339C90.7886 49.0238 91.35 48.1447 91.2861 47.1698C91.2655 46.8467 91.1857 46.5556 91.0624 46.2932C91.0727 46.2601 91.083 46.2257 91.0921 46.1926C91.7653 45.8502 92.3222 45.2875 92.5208 44.5363C92.7193 43.7805 92.4854 43.0271 92.0175 42.4472C92.7022 41.9462 93.1141 41.2464 92.8642 40.1881C92.7627 39.7578 92.5584 39.3661 92.2823 39.0362C92.2834 39.0261 92.2857 39.0158 92.288 39.0054L92.352 38.9557C93.1973 38.2885 93.6831 37.4382 93.1643 36.3924C92.9316 35.9222 92.5995 35.5944 92.2092 35.3787L92.1898 35.3171C92.4694 34.7177 92.5641 34.0522 92.3713 33.3524C92.2138 32.7761 91.8407 32.3171 91.3637 32.0124C91.3956 31.7543 91.3911 31.4793 91.3397 31.1812C91.2541 30.6779 91.0042 30.2384 90.6391 29.9268C90.6254 29.8604 90.6083 29.7955 90.5889 29.7303C90.4656 29.332 90.2351 28.8994 89.9681 28.5785C89.7479 28.3125 89.5014 28.2155 89.2001 28.2052C89.2184 27.9599 89.2058 27.7109 89.1556 27.4586C89.0016 26.6802 88.5063 25.9483 87.7726 25.6161C87.4714 25.4803 87.1541 25.4405 86.8483 25.4734C86.5881 24.9255 86.0804 24.5284 85.4562 24.4427C85.2131 24.4085 84.9872 24.4107 84.7795 24.4416C84.662 24.3867 84.5399 24.3377 84.4121 24.2931C84.3276 24.2634 84.242 24.236 84.1565 24.2087C83.8678 23.8503 83.4878 23.5636 83.0439 23.3914C82.5315 23.1916 82.01 23.212 81.5479 23.3798L81.4007 23.349C81.1702 22.9495 80.8027 22.6401 80.2379 22.4997C79.5966 22.341 78.9382 22.5625 78.4338 22.9656C78.4315 22.9656 78.4292 22.9656 78.4258 22.9643C78.1622 22.3741 77.7115 21.9632 76.9549 21.9917C76.4837 22.01 76.058 22.2441 75.7294 22.5774C75.5468 22.5545 75.3642 22.5339 75.1805 22.5135C74.9865 22.2862 74.7709 22.074 74.5324 21.8834C74.1421 21.5705 73.6343 21.5957 73.3468 22.0362C73.284 22.1321 73.2258 22.2292 73.1676 22.3262L72.904 22.3079C72.5936 21.889 72.1703 21.6059 71.5906 21.5831C71.0588 21.5613 70.68 21.8217 70.3913 22.1858C70.1562 22.1801 69.92 22.1756 69.6838 22.1721C69.4088 21.8536 69.0847 21.5728 68.715 21.3399C68.432 21.1618 68.0144 21.2224 67.785 21.4599C67.63 21.6213 67.4858 21.7898 67.3517 21.9642C67.0061 21.5765 66.5393 21.3212 66.0405 21.2236ZM82.8351 57.4735C82.3022 57.1699 81.5855 57.4986 81.0698 57.7566C80.441 58.0705 79.8168 58.5443 79.4323 59.1379C78.9085 59.9461 80.1398 60.5991 80.6909 59.8742C81.0298 59.4278 81.3003 58.9781 81.7111 58.5877C82.0865 58.2292 82.6308 57.9895 82.8465 57.5169C82.8544 57.5009 82.8522 57.4826 82.8351 57.4735ZM82.4607 37.8558L82.4507 37.8273C82.2992 37.4126 82.9606 37.2338 83.1109 37.6451C83.3386 38.2685 83.0761 38.9463 82.4605 39.2155C82.2899 39.2901 82.095 39.2642 81.9922 39.0926C81.9058 38.9482 81.9459 38.698 82.115 38.6241C82.4613 38.4726 82.5773 38.2052 82.4607 37.8558ZM88.1584 36.6962C87.8274 36.4039 88.3132 35.9209 88.6426 36.2119C88.95 36.4834 89.178 36.8521 89.1188 37.2762C89.0584 37.7084 88.7326 38.0135 88.376 38.2292C87.9981 38.4578 87.6536 37.8658 88.0305 37.6377L88.0728 37.6118C88.2311 37.5135 88.4162 37.3784 88.443 37.185C88.4714 36.9795 88.2976 36.8191 88.1584 36.6962ZM86.2793 31.5396L86.2559 31.5223C85.9003 31.2684 86.2418 30.6741 86.6015 30.9309C86.9313 31.1664 87.1958 31.4723 87.2236 31.8942C87.2507 32.3043 87.0421 32.6597 86.7694 32.9482C86.4659 33.2691 85.9823 32.7842 86.2852 32.464C86.5803 32.1519 86.6379 31.8114 86.2793 31.5396Z" fill="#84CC16"/>
<path fill-rule="evenodd" clip-rule="evenodd" d="M55.4997 66.1315C55.3247 65.827 54.9216 65.5449 54.5528 65.5882C52.9006 65.782 52.9035 67.7859 53.5415 68.9558C54.1071 69.9931 55.2778 70.602 56.4495 70.5131C57.6804 70.4196 58.7292 69.6956 59.1907 68.5437C59.496 67.7817 59.637 66.375 58.825 65.863C58.81 65.8534 58.7851 65.8558 58.7731 65.8696C58.3838 66.3227 58.3685 67.0029 58.0276 67.5074C57.7106 67.9766 57.2181 68.364 56.6412 68.4238C56.2103 68.4686 55.7744 68.3131 55.6058 67.9261C55.5147 67.7168 55.525 67.6031 55.5593 67.4591L55.5905 67.3339C55.6984 66.8953 55.7469 66.5614 55.4997 66.1315ZM55.0581 57.3432C54.1964 57.8672 52.8834 59.089 53.8104 60.388C54.9015 61.5334 56.4725 60.2202 57.2467 59.6262C57.9646 59.1659 58.7711 60.3498 58.1051 60.8873C52.5109 65.0306 50.2407 57.4802 54.6222 56.7272C55.1046 56.6442 55.2838 57.1811 55.0581 57.3432ZM64.1576 53.7502C63.6287 52.9564 62.4214 53.0733 62.13 54.0153C61.9722 54.5256 62.1902 54.9843 62.1789 55.4939C62.1694 55.9243 62.1976 56.404 62.3295 56.8209C62.6303 57.7716 63.485 58.4431 64.4961 58.4152C65.5039 58.3875 66.3916 57.7493 66.8137 56.8506C67.2373 55.9484 67.1476 55.0147 66.8384 54.0974C66.8235 54.0533 66.7658 54.032 66.731 54.0691C66.3654 54.4577 66.0979 54.8679 65.821 55.3031L65.5372 55.7491C65.3204 56.085 65.0052 56.514 64.6003 56.4871L64.5396 56.4811C64.427 56.4714 64.4443 56.4937 64.3575 56.3403C64.3173 56.2693 64.3246 56.1373 64.3052 56.0536L64.2985 56.0252L64.3022 56.01C64.3107 55.9694 64.3192 55.8929 64.3261 55.7603L64.3276 55.731C64.3569 55.1103 64.5323 54.3127 64.1576 53.7502ZM50.7505 54.2787C50.8453 53.2634 49.4185 53.038 48.9441 53.7892C48.6967 54.181 48.6247 54.6731 48.57 55.1394L48.5444 55.3607C48.4883 55.8396 48.466 56.3377 48.6738 56.7844C49.0011 57.488 49.7128 57.8599 50.4805 57.801C51.2137 57.7446 51.8826 57.3194 52.2352 56.6738C52.5496 56.0978 52.8621 54.9731 52.4803 54.3723C52.4573 54.3359 52.4112 54.3312 52.3796 54.3593C52.0187 54.6798 51.96 55.2642 51.7454 55.6817C51.5242 56.1123 51.1886 56.5319 50.68 56.5973C50.1934 56.6599 50.0075 56.394 50.1317 55.93C50.2918 55.3309 50.6903 54.9234 50.7505 54.2787ZM63.7722 47.7141L63.5388 47.6247C62.7393 47.3226 61.6417 46.9733 60.9917 47.6237C60.5908 48.0247 60.5144 48.6155 60.8006 49.1048C61.1474 49.6977 61.7694 49.7123 62.3701 49.7996C63.0533 49.8989 63.7481 50.0877 64.3841 50.3569C65.1006 50.6602 65.7656 51.0383 66.417 51.4606C67.0362 51.8618 67.6532 52.5176 68.3943 52.6413C68.4246 52.6463 68.4589 52.6333 68.4668 52.6001C68.6351 51.8752 68.1674 51.1618 67.7499 50.5963C67.2449 49.9116 66.6329 49.3496 65.9489 48.8457C65.2888 48.3593 64.5345 48.0078 63.7722 47.7141ZM49.2496 50.2913L49.1783 50.2788C48.6935 50.1981 48.2542 50.2167 47.8888 50.6008C47.61 50.8938 47.5025 51.2736 47.6354 51.6611C47.7581 52.0185 48.0324 52.3816 48.4305 52.4565C49.7746 52.7095 51.2634 52.6677 52.6143 52.4761C53.2323 52.3885 53.8559 52.2812 54.4579 52.112L54.7349 52.0317C55.2374 51.8881 55.8128 51.738 56.1778 51.3683C56.3091 51.2354 56.2334 51.0452 56.0764 50.9837C55.4394 50.7341 54.5664 50.8669 53.8872 50.8474C53.0971 50.8248 52.3057 50.7655 51.5194 50.6839C50.751 50.604 50.0074 50.4304 49.2496 50.2913Z" fill="#84CC16"/>
<path fill-rule="evenodd" clip-rule="evenodd" d="M65.2241 69.0813C64.3003 66.9161 62.2839 65.3248 59.9623 64.743C58.2575 64.3169 56.4683 64.3305 54.7304 64.4996C53.8199 64.5876 52.8433 64.6597 51.9851 64.998C51.2524 65.287 50.6552 65.8332 50.2062 66.4744C49.6718 67.2343 49.3082 68.1039 49.053 68.9953C49.0167 69.122 48.9827 69.2497 48.9509 69.378C49.0619 70.0505 49.2975 70.6229 49.9202 71.0458C50.5278 71.4586 51.2528 71.6275 51.9756 71.6875C52.0465 71.6535 52.1149 71.6185 52.1777 71.5826C53.304 70.9376 54.0967 69.4134 55.5182 69.6197C56.7868 69.8039 57.6219 71.4007 58.3763 72.3371C60.7979 72.6193 63.2178 71.8914 65.1881 70.5061C65.2882 70.032 65.294 69.5539 65.2241 69.0813ZM47.305 67.4388C47.4987 66.895 47.7427 66.3683 48.0319 65.8721C48.988 64.2312 50.4558 62.9237 52.1982 62.1763C56.3202 60.4108 61.6534 61.6554 64.9822 64.551C66.1193 65.5409 67.269 66.9955 67.6167 68.5602C67.7205 68.5808 67.8185 68.6348 67.8992 68.711C70.3042 67.1962 72.7809 65.7388 74.7189 63.6391C76.1263 62.1135 77.1052 60.308 77.7046 58.3241C77.7536 58.1608 78.0168 58.1846 78.0089 58.3653C78.0066 58.4076 78.0043 58.4498 78.002 58.492C78.0271 58.4143 78.1456 58.4543 78.1547 58.5298C78.4772 60.9399 78.8806 63.4951 78.5091 65.9178C78.2869 67.3634 77.6305 68.4217 76.753 69.5645C75.8129 70.7894 74.7485 71.9288 73.6602 73.0214C72.9696 73.7149 72.2482 74.5149 71.4026 75.0234C70.4192 75.6142 69.3035 76.0634 68.254 76.5193C67.1862 76.9844 66.1024 77.4141 64.9981 77.7866C62.7908 78.534 60.5093 79.0505 58.1879 79.2768C56.3293 79.4574 54.2051 79.654 52.4239 78.9545C51.0587 78.4186 49.9567 77.4496 49.0826 76.2839C48.131 75.0143 47.3788 73.5681 46.963 72.043C46.5308 70.4589 47.2139 67.6942 47.305 67.4388Z" fill="#84CC16"/>
</g>
</g>
<defs>
<filter id="filter0_dd" x="3" y="0" width="120" height="120" filterUnits="userSpaceOnUse" color-interpolation-filters="sRGB">
<feFlood flood-opacity="0" result="BackgroundImageFix"/>
<feColorMatrix in="SourceAlpha" type="matrix" values="0 0 0 0 0 0 0 0 0 0 0 0 0 0 0 0 0 0 127 0"/>
<feOffset dy="8"/>
<feGaussianBlur stdDeviation="8"/>
<feColorMatrix type="matrix" values="0 0 0 0 0.505882 0 0 0 0 0.243137 0 0 0 0 0.752941 0 0 0 0.08 0"/>
<feBlend mode="normal" in2="BackgroundImageFix" result="effect1_dropShadow"/>
<feColorMatrix in="SourceAlpha" type="matrix" values="0 0 0 0 0 0 0 0 0 0 0 0 0 0 0 0 0 0 127 0"/>
<feOffset dy="4"/>
<feGaussianBlur stdDeviation="4"/>
<feColorMatrix type="matrix" values="0 0 0 0 0.301961 0 0 0 0 0.145098 0 0 0 0 0.45098 0 0 0 0.08 0"/>
<feBlend mode="normal" in2="effect1_dropShadow" result="effect2_dropShadow"/>
<feBlend mode="normal" in="SourceGraphic" in2="effect2_dropShadow" result="shape"/>
</filter>
<filter id="filter1_dd" x="-7.5" y="65" width="141" height="100" filterUnits="userSpaceOnUse" color-interpolation-filters="sRGB">
<feFlood flood-opacity="0" result="BackgroundImageFix"/>
<feColorMatrix in="SourceAlpha" type="matrix" values="0 0 0 0 0 0 0 0 0 0 0 0 0 0 0 0 0 0 127 0"/>
<feOffset dy="16"/>
<feGaussianBlur stdDeviation="16"/>
<feColorMatrix type="matrix" values="0 0 0 0 0.0235294 0 0 0 0 0.588235 0 0 0 0 0.592157 0 0 0 0.12 0"/>
<feBlend mode="normal" in2="BackgroundImageFix" result="effect1_dropShadow"/>
<feColorMatrix in="SourceAlpha" type="matrix" values="0 0 0 0 0 0 0 0 0 0 0 0 0 0 0 0 0 0 127 0"/>
<feOffset dy="8"/>
<feGaussianBlur stdDeviation="8"/>
<feColorMatrix type="matrix" values="0 0 0 0 0.0156863 0 0 0 0 0.376471 0 0 0 0 0.380392 0 0 0 0.12 0"/>
<feBlend mode="normal" in2="effect1_dropShadow" result="effect2_dropShadow"/>
<feBlend mode="normal" in="SourceGraphic" in2="effect2_dropShadow" result="shape"/>
</filter>
<filter id="filter2_i" x="32.5" y="83" width="61" height="30" filterUnits="userSpaceOnUse" color-interpolation-filters="sRGB">
<feFlood flood-opacity="0" result="BackgroundImageFix"/>
<feBlend mode="normal" in="SourceGraphic" in2="BackgroundImageFix" result="shape"/>
<feColorMatrix in="SourceAlpha" type="matrix" values="0 0 0 0 0 0 0 0 0 0 0 0 0 0 0 0 0 0 127 0" result="hardAlpha"/>
<feOffset dy="-2"/>
<feGaussianBlur stdDeviation="2"/>
<feComposite in2="hardAlpha" operator="arithmetic" k2="-1" k3="1"/>
<feColorMatrix type="matrix" values="0 0 0 0 0 0 0 0 0 0 0 0 0 0 0 0 0 0 0.9 0"/>
<feBlend mode="soft-light" in2="shape" result="effect1_innerShadow"/>
</filter>
<clipPath id="clip0">
<rect x="23" y="12" width="80" height="80" rx="40" fill="white"/>
</clipPath>
<clipPath id="clip1">
<rect width="129.63" height="175" fill="white" transform="matrix(-1 0 0 1 106.63 12)"/>
</clipPath>
</defs>
</svg>
