<svg width="22" height="22" viewBox="0 0 22 22" fill="none" xmlns="http://www.w3.org/2000/svg">
<path fill-rule="evenodd" clip-rule="evenodd" d="M6.93858 0H15.0568C18.7925 0 21.822 3.02945 21.822 6.76519V14.8834C21.822 18.6192 18.7925 21.6486 15.0568 21.6486H6.93858C3.20285 21.6486 0.173401 18.6192 0.173401 14.8834V6.76519C0.173401 3.02945 3.20285 0 6.93858 0ZM15.0568 19.6191C17.6682 19.6191 19.7924 17.4948 19.7924 14.8834V6.76519C19.7924 4.15383 17.6682 2.02956 15.0568 2.02956H6.93857C4.32721 2.02956 2.20294 4.15383 2.20294 6.76519V14.8834C2.20294 17.4948 4.32721 19.6191 6.93857 19.6191H15.0568Z" fill="white"/>
<path fill-rule="evenodd" clip-rule="evenodd" d="M5.58551 10.8243C5.58551 7.8354 8.00878 5.41211 10.9976 5.41211C13.9865 5.41211 16.4097 7.8354 16.4097 10.8243C16.4097 13.8131 13.9865 16.2364 10.9976 16.2364C8.00878 16.2364 5.58551 13.8131 5.58551 10.8243ZM7.61505 10.8243C7.61505 12.6887 9.13318 14.2069 10.9977 14.2069C12.8622 14.2069 14.3803 12.6887 14.3803 10.8243C14.3803 8.95842 12.8622 7.44167 10.9977 7.44167C9.13318 7.44167 7.61505 8.95842 7.61505 10.8243Z" fill="white"/>
<ellipse cx="16.8157" cy="5.00633" rx="0.721191" ry="0.721169" fill="white"/>
</svg>
