<svg width="120" height="137" viewBox="0 0 120 137" fill="none" xmlns="http://www.w3.org/2000/svg">
<g filter="url(#filter0_dd)">
<rect x="20" y="12" width="80" height="80" rx="40" fill="#EDE9FE"/>
<rect x="18" y="10" width="84" height="84" rx="42" stroke="#8B5CF6" stroke-width="4"/>
</g>
<g filter="url(#filter1_dd)">
<g filter="url(#filter2_i)">
<path d="M28.5 99C28.5 91.268 34.768 85 42.5 85H77.5C85.232 85 91.5 91.268 91.5 99V99C91.5 106.732 85.232 113 77.5 113H42.5C34.768 113 28.5 106.732 28.5 99V99Z" fill="#8B5CF6"/>
<path d="M41.2738 105.68C41.9538 106.04 42.7538 106.2 43.6538 106.2C44.5938 106.2 45.4538 106 46.2338 105.6C47.0138 105.2 47.6338 104.58 48.1138 103.74C48.5738 102.92 48.8138 101.9 48.8138 100.68V93.62C48.8138 92.56 48.3338 92.02 47.3938 92.02C46.9138 92.02 46.5538 92.16 46.3338 92.44C46.0938 92.72 45.9938 93.12 45.9938 93.62V100.84C45.9938 101.7 45.7538 102.36 45.2938 102.84C44.8138 103.32 44.2738 103.54 43.6338 103.54C43.0738 103.54 42.6338 103.42 42.2938 103.14C41.9538 102.88 41.7338 102.52 41.6138 102.06C41.4138 101.46 41.0138 101.14 40.3738 101.14C40.0138 101.14 39.6938 101.26 39.4538 101.5C39.1938 101.74 39.0738 102.08 39.0738 102.52C39.0738 103.14 39.2738 103.74 39.6538 104.3C40.0338 104.86 40.5738 105.32 41.2738 105.68ZM58.1972 97.46C57.4172 96.6 56.2572 96.16 54.7372 96.16C54.0972 96.16 53.5372 96.26 53.0172 96.44C52.4972 96.62 52.0772 96.82 51.7172 97.06C51.2972 97.34 51.0972 97.72 51.0972 98.16C51.0972 98.48 51.2172 98.74 51.4172 98.96C51.6172 99.18 51.8572 99.28 52.1572 99.28C52.4172 99.28 52.7372 99.18 53.0972 98.98C53.3572 98.84 53.6172 98.74 53.8572 98.66C54.0972 98.58 54.3772 98.54 54.7172 98.54C55.3372 98.54 55.8172 98.7 56.1572 99C56.4772 99.32 56.6772 99.72 56.7372 100.24C56.0572 100.16 55.4972 100.12 55.0372 100.12C53.7972 100.12 52.7972 100.4 52.0772 100.96C51.3572 101.52 50.9972 102.3 50.9972 103.34C50.9972 104.18 51.2572 104.86 51.7972 105.4C52.3172 105.94 53.0972 106.2 54.1172 106.2C55.0972 106.2 55.9972 105.9 56.8172 105.3C56.9572 105.9 57.3572 106.2 58.0372 106.2C58.9172 106.2 59.3572 105.7 59.3572 104.7V101.02C59.3572 99.52 58.9572 98.34 58.1972 97.46ZM54.8372 104.02C53.9972 104.02 53.5972 103.72 53.5972 103.08C53.5972 102.76 53.7372 102.5 54.0172 102.32C54.2972 102.14 54.7372 102.04 55.2972 102.04C55.7572 102.04 56.2372 102.1 56.7572 102.2V103.4C56.0372 103.82 55.3972 104.02 54.8372 104.02ZM61.8488 98.56C61.4288 99.32 61.2288 100.2 61.2288 101.18C61.2288 102.18 61.4288 103.04 61.8488 103.8C62.2688 104.56 62.8488 105.16 63.6088 105.58C64.3688 106 65.2288 106.2 66.2088 106.2C67.0088 106.2 67.7088 106.08 68.2688 105.8C68.8288 105.52 69.2688 105.16 69.5888 104.72C69.8288 104.42 69.9488 104.08 69.9488 103.7C69.9488 103.38 69.8288 103.12 69.6088 102.92C69.3688 102.72 69.1088 102.62 68.8288 102.62C68.5488 102.62 68.3088 102.74 68.0688 102.94C68.0088 102.98 67.9088 103.08 67.7688 103.22C67.6088 103.38 67.4288 103.5 67.1888 103.62C66.9488 103.74 66.6288 103.8 66.2088 103.8C65.5088 103.8 64.9488 103.56 64.5488 103.08C64.1488 102.6 63.9488 101.98 63.9488 101.18C63.9488 100.4 64.1488 99.76 64.5488 99.28C64.9488 98.8 65.5088 98.56 66.2088 98.56C66.5288 98.56 66.8088 98.62 67.0688 98.72C67.3088 98.84 67.5288 98.98 67.7288 99.18C67.9088 99.38 68.0288 99.5 68.0688 99.54C68.2888 99.74 68.5488 99.84 68.8288 99.84C69.1088 99.84 69.3488 99.74 69.5888 99.52C69.8288 99.3 69.9488 99.02 69.9488 98.66C69.9488 98.3 69.8288 97.98 69.5888 97.66C69.2688 97.22 68.8288 96.86 68.2688 96.58C67.6888 96.3 67.0088 96.16 66.2088 96.16C65.2288 96.16 64.3688 96.38 63.6088 96.8C62.8488 97.22 62.2688 97.8 61.8488 98.56ZM80.645 104L77.745 100.38L79.745 98.56C79.945 98.36 80.105 98.18 80.205 97.98C80.305 97.8 80.365 97.58 80.365 97.34C80.365 97.06 80.265 96.8 80.065 96.56C79.865 96.32 79.545 96.2 79.125 96.2C78.765 96.2 78.445 96.34 78.145 96.6L74.645 99.82V92.4C74.645 91.42 74.185 90.92 73.305 90.92C72.425 90.92 71.985 91.42 71.985 92.4V104.68C71.985 105.16 72.085 105.54 72.305 105.8C72.505 106.06 72.845 106.18 73.305 106.18C74.185 106.18 74.645 105.68 74.645 104.68V103.18L75.985 101.96L78.585 105.46C78.805 105.76 79.005 105.96 79.185 106.04C79.365 106.14 79.625 106.18 79.965 106.18C80.285 106.18 80.565 106.08 80.765 105.84C80.965 105.6 81.085 105.34 81.085 105.06C81.085 104.72 80.925 104.36 80.645 104Z" fill="white"/>
</g>
</g>
<g clip-path="url(#clip0)">
<path fill-rule="evenodd" clip-rule="evenodd" d="M18.7898 153.263C16.435 153.149 17.3821 149.029 17.5511 147.515C19.4154 141.988 18.9772 135.958 19.7104 130.165C20.1672 124.756 20.7541 119.365 21.2479 113.961C22.2175 102.991 29.1806 80.6602 37.1268 77.0688C38.1277 72.675 42.2621 68.5736 47.4929 68.5736C51.0605 64.3489 55.3547 61.3756 60.8624 61.9759C63.1385 62.0795 65.3458 64.4945 67.5268 64.9609C68.7479 65.1293 79.5848 64.6957 81.7556 65.9855C83.2677 66.7622 84.6328 68.1975 84.1881 70.0248C83.4788 72.2386 85.6833 69.8432 90.2821 72.206C99.6597 77.8403 94.0561 85.3778 93.8077 85.6113C99.6597 93.7566 104.775 100.365 107.141 110.321C108.675 117.712 108.502 125.342 109.787 132.772C110.241 135.348 110.937 137.836 111.691 140.337C112.507 143.611 112.904 151.771 113.354 151.844C114.174 152.048 112.88 153.732 112.012 153.733C87.9321 157.729 63.4731 153.898 39.2642 153.273C32.4417 153.035 25.6119 152.981 18.7898 153.263Z" fill="white"/>
<path fill-rule="evenodd" clip-rule="evenodd" d="M55.2859 86.3303C55.2747 86.22 55.126 86.2202 55.1146 86.3303L54.9446 87.9721C54.7377 89.9772 54.5386 91.9785 54.3942 93.993C54.2143 96.5051 54.0939 99.0165 54.0359 101.534C53.8336 110.303 53.7934 119.076 53.7764 127.847C52.5907 127.765 51.4049 127.686 50.2185 127.609C49.4136 127.557 48.6086 127.507 47.8036 127.458L45.7508 127.334L44.9057 127.282C44.3346 127.246 43.6857 127.103 43.2865 127.609C43.1266 127.811 43.0464 128.074 43.1954 128.315C43.5392 128.87 44.0671 128.85 44.6643 128.874C45.2277 128.897 45.7911 128.919 46.3545 128.941C47.5619 128.988 48.7691 129.032 49.9769 129.066C51.2443 129.102 52.5111 129.131 53.7781 129.152C53.7909 132.855 53.944 136.553 54.1096 140.252L54.1845 141.916C54.3872 146.417 54.6052 150.922 54.9148 155.417C54.9402 155.785 55.4606 155.784 55.4859 155.417C55.8346 150.355 56.0646 145.282 56.2927 140.213C56.4582 136.538 56.5544 132.862 56.6003 129.185C56.7678 129.186 56.9352 129.188 57.1026 129.189C61.8579 129.21 66.6119 129.231 71.3672 129.186C71.3593 129.195 71.3515 129.205 71.3462 129.217C71.0021 130.03 70.9694 131.067 70.9778 131.939C70.9874 132.939 71.122 133.927 71.3523 134.9C72.1774 138.385 74.3055 141.506 76.7293 144.086L76.8084 144.17C77.3801 144.775 78.036 145.382 78.387 146.151C78.7456 146.937 78.8701 147.857 79.047 148.701L79.0677 148.798L79.7595 151.995C79.9793 153.01 80.0417 154.491 80.8452 155.224C81.5947 155.908 82.5878 155.551 82.9405 154.67C83.216 153.984 82.9416 153.229 82.7785 152.543L81.5002 147.167C81.2901 146.291 81.0606 145.408 80.6073 144.621C80.143 143.814 79.4622 143.229 78.7676 142.631C77.4523 141.498 76.2448 140.201 75.2236 138.797C74.2028 137.393 73.3303 135.846 72.7186 134.219C72.4122 133.405 72.1612 132.558 71.9881 131.705C71.8235 130.896 71.8249 130.058 71.6489 129.257C71.6368 129.201 71.5902 129.163 71.5367 129.147C71.5493 129.111 71.53 129.063 71.48 129.06L67.591 128.81C64.134 128.586 60.6772 128.358 57.2234 128.096L56.6131 128.052C56.6604 123.146 56.6202 118.24 56.5317 113.333C56.4505 108.832 56.4488 104.331 56.315 99.8314C56.2485 97.5982 56.1051 95.3702 55.9455 93.1417C55.7822 90.8625 55.5208 88.6026 55.2859 86.3303ZM91.802 112.423C91.8434 112.173 91.5292 112.019 91.3843 112.247C89.7283 114.858 88.9298 117.695 88.5933 120.75C88.296 123.447 88.3836 126.183 88.5317 128.887C88.6896 131.771 88.8738 134.654 89.0601 137.537L89.3463 141.957L90.0646 153.038C90.116 153.831 90.2959 154.551 90.9781 154.92C91.0645 154.992 91.1545 155.057 91.2594 155.113C91.628 155.31 92.1168 155.21 92.3299 154.832L92.2445 154.888C92.1701 154.935 92.2536 154.87 92.4953 154.692L92.7004 154.427C92.8494 154.203 92.9445 153.982 92.9828 153.716C93.0422 153.302 92.9652 152.848 92.9382 152.432L92.4674 145.166C92.1012 139.517 91.6737 133.87 91.3514 128.218C91.2013 125.584 91.0961 122.947 91.1673 120.309C91.2382 117.684 91.3719 115.016 91.802 112.423ZM77.4762 63.7813L77.3843 63.7658C74.0951 63.2193 70.5184 63.3215 67.5124 64.9077C67.4875 64.9208 67.4988 64.9621 67.5267 64.9609L68.4943 64.9222C71.5574 64.8022 74.6109 64.7312 77.6227 65.4511L77.931 65.5254C79.0157 65.7901 80.1483 66.1141 81.0195 66.8307C81.8522 67.5158 82.2669 68.5725 82.6655 69.5453L82.7189 69.6737C83.1234 70.6345 83.6354 71.5457 84.522 72.1465C85.6704 72.9245 87.0515 72.8292 88.3683 72.9349C90.6867 73.1213 92.5823 74.8022 93.5254 76.8591C94.0965 78.1046 94.34 79.501 94.3883 80.863C94.413 81.5565 94.4165 82.277 94.3242 82.9658C94.2947 83.1861 94.0225 83.9885 93.8837 83.9692C93.5753 83.9265 93.2934 84.0874 93.1972 84.334C92.4355 83.5977 91.6518 82.8827 90.8428 82.1934C88.8264 80.4755 86.6545 78.9186 84.3672 77.5807C82.6215 76.5595 80.7802 75.5478 78.8735 74.7829C79.0246 74.7797 79.1736 74.8097 79.3177 74.8847C79.3808 74.9177 79.4436 74.8385 79.3937 74.7861C78.7932 74.1539 78.0738 74.064 77.3486 74.2326C77.1938 74.1833 77.039 74.1357 76.8835 74.0904C76.8061 74.0679 76.7676 74.1745 76.8307 74.2157L77.0089 74.3296C76.2177 74.5947 75.441 75.1158 74.826 75.5271C73.0595 76.7081 71.5046 78.1519 69.9284 79.5687L69.6419 79.8255C68.2545 81.0648 66.8317 82.269 65.2554 83.2632C64.4303 83.7836 63.5636 84.265 62.6545 84.623C61.8748 84.9303 60.6053 85.1237 60.2402 85.9481C59.9156 86.3425 60.0512 86.8459 60.4313 87.1114C61.0725 87.8173 62.355 87.3613 63.119 87.0673C64.04 86.7128 64.9323 86.2868 65.7833 85.7872C67.4354 84.8169 68.9587 83.6105 70.3777 82.3272C71.8597 80.9869 73.2576 79.5631 74.699 78.1807C75.3236 77.5817 75.9337 76.9686 76.5592 76.3706L76.8734 76.0729C77.1926 75.7734 77.6475 75.3066 78.1337 75.024C79.0499 75.5707 79.9802 76.0948 80.8881 76.6557C82.1554 77.4385 83.3854 78.2777 84.5964 79.1446C86.9278 80.8134 89.1371 82.6825 91.1881 84.686C94.9497 88.3601 98.1545 92.5556 100.954 96.9981L101.167 97.3367C102.758 99.8795 104.262 102.504 105.329 105.314C106.503 108.406 107.073 111.657 107.384 114.939C107.691 118.197 107.795 121.472 108.139 124.728C108.492 128.066 109.187 131.331 109.977 134.59L110.166 135.363C110.881 138.282 111.62 141.2 111.987 144.188C112.184 145.784 112.302 147.401 112.275 149.01C112.248 150.628 111.994 152.211 111.789 153.812C111.71 154.425 112.314 154.937 112.854 155.018C113.474 155.111 114.008 154.715 114.201 154.138C114.803 152.339 114.912 150.351 114.893 148.463C114.874 146.546 114.629 144.642 114.285 142.758C113.609 139.053 112.564 135.424 111.691 131.763C110.921 128.537 110.404 125.304 110.125 121.999C109.836 118.569 109.663 115.128 109.136 111.723C108.615 108.362 107.635 105.151 106.158 102.086C104.813 99.2956 103.136 96.6689 101.378 94.1229C99.2432 91.0314 96.8985 88.0895 94.2776 85.409C94.513 85.3988 94.7548 85.3227 94.9768 85.1843C95.656 84.7605 95.9723 83.9315 96.0695 83.1745C96.2971 81.4038 96.2422 79.5551 95.7869 77.8239C95.0526 75.0311 93.1467 72.5496 90.3844 71.5429C89.6735 71.2837 88.9177 71.1891 88.1642 71.1705C87.4492 71.1527 86.6683 71.2459 85.9784 71.0192C84.8803 70.6581 84.4096 69.3643 83.9973 68.3836L83.9783 68.3385C83.4496 67.0888 82.815 66.0176 81.6699 65.2372C80.4482 64.4045 78.9175 64.0258 77.4762 63.7813ZM46.2231 68.7238C45.2347 68.3808 43.999 68.6921 43.0324 68.9917C41.9555 69.3257 40.9604 69.9408 40.1072 70.6713C39.2072 71.4416 38.4633 72.3929 37.9378 73.4555L37.8875 73.5579C37.4075 74.5437 36.8609 75.8969 37.1029 76.9798C37.1098 77.0106 37.1178 77.0402 37.1268 77.0688C35.1657 78.0346 33.3546 79.2442 31.7774 80.7774C29.9409 82.5625 28.386 84.5939 27.07 86.7884C21.8436 95.5047 20.9237 105.973 20.3065 115.913L20.1525 118.434C19.8174 123.876 19.4251 129.305 18.4062 134.673L18.3319 135.06C17.2427 140.68 15.6837 146.342 15.8416 152.107C15.889 153.834 18.4407 153.823 18.5147 152.107C18.7932 145.65 20.2994 139.416 21.3194 133.06C23.1141 121.877 22.2149 110.348 24.7578 99.2777C25.7557 94.9332 27.3015 90.719 29.509 86.841C30.5994 84.9252 31.847 83.074 33.3084 81.4213C34.5657 79.9991 35.8725 78.6305 37.3418 77.435C37.8114 77.9055 38.7495 77.6657 38.9947 76.9798C39.1631 76.5085 39.1139 75.9574 39.222 75.4636C39.3223 75.0054 39.4606 74.5511 39.6448 74.1196C40.0121 73.2597 40.5511 72.4338 41.1734 71.7378C41.8456 70.9855 42.6182 70.3604 43.4827 69.8443C44.3532 69.3247 45.3051 69.1695 46.2231 68.7899C46.2541 68.7771 46.257 68.7356 46.2231 68.7238ZM42.383 128.487C42.3816 128.442 42.3281 128.421 42.2952 128.451C41.9486 128.77 41.7392 129.228 41.4842 129.62C41.19 130.073 40.8812 130.516 40.5573 130.947C39.9083 131.812 39.1859 132.628 38.4578 133.426C37.7806 134.169 37.0587 134.881 36.31 135.551C35.4988 136.278 34.5897 136.927 33.8526 137.731C32.3147 139.41 32.0662 141.715 31.7417 143.879L31.7062 144.113C31.5083 145.398 31.331 146.685 31.1712 147.975C31.0934 148.602 31.0159 149.23 30.9526 149.859L30.9332 150.058C30.8768 150.674 30.8615 151.298 31.2149 151.836C31.5932 152.411 32.4534 152.613 32.9647 152.061C33.8434 151.113 33.6786 149.43 33.7929 148.21C33.8873 147.202 33.9945 146.194 34.1144 145.189L34.1754 144.686C34.3167 143.542 34.4315 142.375 34.6931 141.251C34.9238 140.261 35.3633 139.514 36.0843 138.796C36.8108 138.074 37.5656 137.399 38.2361 136.621C38.9473 135.796 39.5889 134.911 40.1669 133.988C40.6613 133.198 41.0576 132.339 41.4207 131.48L41.4809 131.337C41.8318 130.5 42.4104 129.41 42.383 128.487ZM29.6974 92.5234C29.6897 92.4067 29.5172 92.4048 29.5147 92.5234C29.4928 93.5278 29.4719 94.5322 29.4511 95.5368C29.2834 103.631 29.3867 111.744 28.575 119.81C28.1921 123.613 27.4872 127.36 26.6714 131.092C26.254 133.001 25.816 134.906 25.3999 136.816C24.9944 138.677 24.5596 140.547 24.2379 142.426C23.9218 144.272 23.6387 146.133 23.5117 148.003L23.496 148.247C23.4413 149.152 23.1802 150.485 23.6788 151.288C24.219 152.157 25.2534 152.173 25.8322 151.343C26.3758 150.563 26.2407 149.176 26.3367 148.247C26.4343 147.299 26.5375 146.351 26.6547 145.406C26.8834 143.562 27.1847 141.722 27.4981 139.891C28.1508 136.077 29.0976 132.311 29.7964 128.503C30.5126 124.602 31.0216 120.672 31.0431 116.7C31.0644 112.693 30.6405 108.695 30.4265 104.698C30.2092 100.637 29.9621 96.5805 29.6974 92.5234ZM67.9179 67.3484C67.7006 66.6167 66.934 66.1592 66.1861 66.3648C65.5007 66.5532 64.9349 67.3854 65.2028 68.0973C65.4952 68.8743 66.0063 69.5368 66.4371 70.2429C66.8351 70.8954 67.4155 71.4092 67.8209 72.0501L67.3742 72.5319C67.1507 72.7722 66.9266 73.0111 66.6999 73.2459L65.9208 74.0533C65.314 74.6807 64.7033 75.3048 64.0755 75.9106C62.2293 77.692 60.3539 79.415 58.2863 80.9406C57.8156 81.2877 57.3412 81.6329 56.8536 81.9562L56.6718 82.0767C56.3372 82.2959 55.964 82.5113 55.5599 82.4741C54.5778 82.3839 53.6905 81.3406 53.0157 80.6912L52.9804 80.6574C51.3081 79.0656 49.7595 77.3252 48.4057 75.4539C48.1051 75.0382 47.814 74.6153 47.5306 74.1875C48.1852 73.4226 48.0288 71.9295 48.0649 71.0019C48.0904 70.3497 48.0923 69.6973 48.0959 69.0446L48.0976 68.9129C48.1056 68.4905 48.1246 68.0853 47.8506 67.7376C47.8346 67.7175 47.8016 67.7181 47.7813 67.7287C47.4059 67.9255 47.2902 68.255 47.13 68.6246L47.1133 68.6629C46.9183 69.1065 46.7317 69.5542 46.5428 70.0003C46.3451 70.4674 46.1638 70.9413 45.98 71.414C45.8945 71.6339 45.8128 71.8547 45.733 72.0767C45.6844 72.2184 45.6341 72.3595 45.5824 72.5002L45.5702 72.5111C45.502 72.569 45.4441 72.6302 45.3943 72.6933C45.1848 72.7981 45.0184 72.9891 44.9403 73.2697C44.7703 73.8806 45.1221 74.3786 45.4358 74.8634C46.7104 76.8332 48.1632 78.7102 49.7782 80.4129C50.5804 81.2589 51.4242 82.0668 52.3027 82.8331L52.4563 82.9662C53.2454 83.6446 54.1022 84.2873 55.1562 84.446C56.3896 84.6317 57.3934 84.018 58.3375 83.3112L58.4317 83.2402C59.3268 82.5624 60.2039 81.8608 61.0536 81.1268C62.7861 79.6305 64.4343 78.0238 65.8971 76.2611C67.32 74.5466 68.7265 72.6294 69.6035 70.5664C69.657 70.4407 69.5164 70.3092 69.4062 70.4142C68.9778 70.8221 68.5656 71.2523 68.1583 71.6879C68.147 71.0467 68.2653 70.3999 68.1995 69.7546C68.1192 68.9702 68.1423 68.1037 67.9179 67.3484Z" fill="#8B5CF6"/>
<path fill-rule="evenodd" clip-rule="evenodd" d="M38.7337 37.4079C39.8364 32.7572 42.2474 28.4293 46.1073 24.9315C57.7226 13.4436 79.0532 19.679 78.9566 36.9905C79.3732 39.0125 79.5423 41.0915 79.4043 43.1535C79.3473 44.0334 78.9667 45.2612 79.4781 46.053C80.6316 47.5344 81.302 48.6263 80.9094 50.5968C80.5814 52.3173 79.4109 53.5363 77.8313 54.1842C76.884 54.4562 75.9851 55.0486 75.6342 55.9516C73.5256 59.8136 71.9634 63.026 68.6391 65.658C67.7813 66.3356 58.9833 70.3998 56.0845 70.3998C47.5978 70.3998 36.9015 67.3244 36.724 57.8412C36.6933 55.7582 37.0587 53.6511 37.2879 51.5846C37.8458 46.8688 37.649 41.9822 38.7337 37.4079Z" fill="white"/>
<path fill-rule="evenodd" clip-rule="evenodd" d="M38.9246 35.0817C38.9219 35.0242 38.8396 35.0112 38.8236 35.068C38.5081 36.1876 38.3294 37.3282 38.0827 38.4652C37.8451 39.5604 37.6207 40.6588 37.4341 41.7636C37.0818 43.8488 36.785 45.9393 36.5089 48.0354L36.4403 48.5595C35.9605 52.2476 35.168 56.0898 35.8609 59.7995C36.4522 62.965 38.4348 65.5162 40.9898 67.3866C43.409 69.1576 46.3422 70.2941 49.2545 70.9403C52.3803 71.634 56.0854 71.841 58.6287 69.5479C59.6468 68.6297 58.2589 66.8079 57.1544 67.6365C54.5608 69.5818 51.2614 69.0083 48.3348 68.2343L48.2463 68.2107C45.6776 67.5263 43.092 66.4889 41.0528 64.7387C38.7983 62.8037 37.6835 60.1181 37.5547 57.1727C37.4824 55.5179 37.6367 53.865 37.803 52.2199L37.8215 52.0371C38.0125 50.1558 38.2128 48.2754 38.3976 46.3934C38.5663 44.6772 38.7118 42.951 38.7887 41.2272L38.8246 40.3577C38.8993 38.6048 38.9999 36.8262 38.9246 35.0817ZM69.3424 20.5165C65.1219 18.3184 60.2715 17.5317 55.5746 18.2694C51.0592 18.9785 46.9153 21.3094 43.8179 24.6516C42.3056 26.2833 40.9634 28.1709 40.1056 30.2329C39.6795 31.2573 39.3459 32.3259 39.1682 33.4235C39.0769 33.9877 38.9871 34.5723 38.9699 35.1444C38.954 35.674 39.1095 36.1707 39.0911 36.7091C39.0883 36.7933 39.2173 36.8095 39.237 36.7288C39.3837 36.1285 39.7371 35.6746 39.9589 35.1044C40.1246 34.6786 40.3127 34.2629 40.5041 33.8485L40.6685 33.4934C41.1459 32.4614 41.7165 31.4717 42.281 30.4856C43.4177 28.4995 44.8762 26.6945 46.584 25.1714C49.5825 22.4973 53.4293 20.7712 57.4442 20.4604C61.6114 20.1376 65.8382 21.1313 69.3971 23.3324C72.9557 25.5335 75.6465 28.955 77.0436 32.8945C77.7485 34.8824 78.1378 36.9537 78.2283 39.0598C78.2741 40.1259 78.2314 41.2009 78.1567 42.2649L78.1196 42.7722C78.0761 43.3807 78.0463 43.9868 78.1372 44.5806C77.4953 44.3803 76.8225 44.2973 76.1472 44.3964C75.1438 44.5436 74.5443 44.9552 74.0942 45.852C74.0707 45.8989 74.1179 45.9457 74.1645 45.9224C74.748 45.6311 75.6921 45.7844 76.3101 45.9371C76.9532 46.0961 77.5324 46.3725 78.0789 46.7463C79.0899 47.4373 79.8824 48.5081 80.0768 49.7367C80.2648 50.9234 79.7778 52.125 78.9597 52.9756C78.5386 53.4137 78.0353 53.7924 77.4718 54.0284C76.7879 54.315 76.1109 54.3061 75.5058 54.7791C75.1317 55.0715 75.2221 55.5719 75.4758 55.8966C74.1992 57.2969 73.0672 58.8289 71.7907 60.2347C71.1991 60.8863 70.6121 61.5387 70.0452 62.2113L69.8335 62.4645C69.2674 63.1479 68.3668 63.8699 68.1081 64.7295C67.9471 65.2642 68.5196 65.9637 69.0982 65.72C69.9858 65.3461 70.6194 64.3734 71.2192 63.6273L71.2583 63.5789C71.8872 62.8058 72.4457 61.9896 72.9562 61.1343L73.1241 60.8525C74.0472 59.2993 74.9625 57.6884 75.5511 55.9821C75.59 56.0221 75.6312 56.0585 75.6746 56.0894C76.5226 56.6926 77.7554 56.2288 78.6024 55.837C79.4019 55.4673 80.1349 54.911 80.7063 54.2405C81.9489 52.7824 82.5216 50.894 82.1066 49.0016C81.7551 47.3986 80.6445 45.8394 79.1884 45.0285C79.8605 44.2545 80.1388 43.2111 80.324 42.191C80.5604 40.8888 80.6076 39.5543 80.5434 38.2339C80.4153 35.6038 79.7387 33.0112 78.6928 30.6029C76.8215 26.2936 73.5131 22.689 69.3424 20.5165ZM78.2251 49.2724C77.3392 49.1063 76.5137 49.0662 75.6594 49.4412C74.7326 49.8482 74.0804 50.5201 73.4741 51.3072C72.7842 52.2026 74.5522 53.1808 74.998 51.9922L75.0111 51.9555C75.1306 51.6036 75.3444 51.2634 75.6153 50.9502C75.6965 51.0748 75.8052 51.1845 75.9329 51.2473C76.0875 51.3233 76.3237 51.2707 76.3608 51.0731C76.402 50.8538 76.3564 50.5881 76.23 50.4024L76.2127 50.3771C76.8272 49.8823 77.5665 49.5209 78.2251 49.4046C78.2909 49.3929 78.2901 49.2846 78.2251 49.2724Z" fill="#8B5CF6"/>
<path fill-rule="evenodd" clip-rule="evenodd" d="M50.4892 62.1163C51.3083 61.782 52.0392 61.2244 52.5735 60.5121C52.7592 60.2645 52.8074 60.003 52.7684 59.7638C52.7246 59.4949 52.5656 59.2512 52.3487 59.0877C52.1311 58.9237 51.859 58.8429 51.5959 58.8841C51.3673 58.9199 51.1397 59.0451 50.9596 59.3048L50.9219 59.3568C50.6043 59.7867 50.1904 60.1394 49.7187 60.3668C49.2641 60.5859 48.7557 60.6882 48.2296 60.6287C47.2276 60.5155 46.5369 59.9734 45.8028 59.2372C45.7118 59.1442 45.6208 59.0484 45.5293 58.951C45.4715 58.8627 45.3913 58.8059 45.3023 58.7761C45.2034 58.7431 45.0916 58.7449 44.9892 58.7807C44.8904 58.8152 44.8021 58.8805 44.7429 58.9675C44.6866 59.0502 44.6547 59.1523 44.6651 59.2698C44.7323 60.0327 45.131 60.7136 45.6974 61.2482C46.3264 61.842 47.1602 62.2528 47.9452 62.3969C48.81 62.5556 49.6913 62.4419 50.4892 62.1163ZM47.5372 50.3463C46.6171 50.9058 45.2152 52.2105 46.205 53.5975C47.3701 54.8205 49.0476 53.4183 49.8742 52.7841C50.6407 52.2926 51.5019 53.5567 50.7908 54.1306C44.8174 58.5547 42.3934 50.4926 47.0718 49.6885C47.587 49.5999 47.7783 50.1733 47.5372 50.3463ZM58.2414 45.1999C58.1398 43.9376 56.218 43.6509 56.0268 44.9001C55.8556 46.019 56.0571 47.047 56.561 48.0544C57.0424 49.0169 58.2524 48.5678 58.3439 47.6914C58.4665 46.5166 58.3047 45.9852 58.2414 45.1999ZM43.6122 44.6411C43.3443 44.29 42.9574 44.0504 42.4939 44.1858C41.0458 44.6091 41.4726 46.6658 41.9812 47.6669C42.2576 48.2106 43.1508 48.3484 43.5545 47.8698C44.2125 47.0892 44.5275 45.5303 43.6911 44.7614C43.6684 44.7216 43.6432 44.6815 43.6122 44.6411ZM56.5814 39.6762L56.3526 39.6362C55.6449 39.5137 54.7651 39.3961 54.2645 39.9652C53.999 40.267 53.9076 40.828 54.2645 41.1169C54.8922 41.6252 55.5862 41.4282 56.3385 41.4712C56.9585 41.5068 57.5543 41.6095 58.1514 41.7802C59.4615 42.1548 60.529 42.8386 61.6479 43.5895C61.7947 43.688 61.9446 43.5001 61.8746 43.3628C61.2287 42.0972 59.9769 41.0575 58.7231 40.4238C58.054 40.0856 57.3217 39.805 56.5814 39.6762ZM44.9323 39.1093L44.7572 39.1451C42.8519 39.5436 40.3765 40.3394 39.4742 42.2117C39.4398 42.4764 39.4761 42.5331 39.5057 42.5702L39.5155 42.5825C39.5399 42.6142 39.5593 42.6578 39.674 42.6939C39.7058 42.6863 39.738 42.6782 39.7705 42.6697C40.184 42.5613 40.5113 42.4119 40.828 42.2569L41.1715 42.0876C41.57 41.8922 41.972 41.7038 42.3981 41.5648C43.3073 41.2681 44.2425 41.0591 45.1922 40.9475C45.3981 40.9233 45.5963 40.8538 45.7527 40.7347C45.9011 40.6217 46.0145 40.4651 46.0662 40.2571C46.1332 39.9878 46.1139 39.7839 45.9695 39.541C45.8609 39.3586 45.7056 39.2321 45.5271 39.1595C45.3452 39.0855 45.1382 39.068 44.9323 39.1093Z" fill="#8B5CF6"/>
<path fill-rule="evenodd" clip-rule="evenodd" d="M44.9566 63.9915C46.0913 62.9801 47.3633 60.9469 48.9934 62.5557C49.3966 63.0102 49.5599 64.0292 50.1764 64.2291C50.9952 64.4949 51.8067 63.6282 52.0857 62.9627C53.2274 59.2648 48.5079 58.2505 45.8192 58.8479C44.5058 59.3876 43.5383 61.5597 43.4798 62.6933C43.442 63.4551 44.0866 64.5753 44.9566 63.9915ZM36.3957 58.2917C36.4068 58.2426 36.4223 58.1982 36.4409 58.1579C36.9428 57.9681 37.3399 58.1617 37.5853 58.5232C37.5773 58.613 37.5505 58.7041 37.5335 58.7932C37.7229 59.1923 37.8937 59.6861 38.1503 60.0309C38.201 60.0348 38.2535 60.0294 38.3039 60.0148C42.5579 60.4592 40.4811 56.0066 44.7957 54.9007C48.131 54.3502 54.1592 54.9808 55.7326 58.4536C56.9734 64.0007 63.283 60.1355 65.3546 57.2507C67.565 54.6252 68.9942 51.417 70.3723 48.3038C70.6635 47.645 71.5723 48.1161 71.4735 48.7482C72.7473 51.3045 72.7049 54.375 73.0204 57.1753C73.557 62.7623 74.0798 70.5973 68.8908 74.0087C62.1299 81.6535 45.2473 84.3512 37.4494 77.327C34.7501 71.5213 35.0828 64.4384 36.3957 58.2917Z" fill="#8B5CF6"/>
</g>
<defs>
<filter id="filter0_dd" x="0" y="0" width="120" height="120" filterUnits="userSpaceOnUse" color-interpolation-filters="sRGB">
<feFlood flood-opacity="0" result="BackgroundImageFix"/>
<feColorMatrix in="SourceAlpha" type="matrix" values="0 0 0 0 0 0 0 0 0 0 0 0 0 0 0 0 0 0 127 0"/>
<feOffset dy="8"/>
<feGaussianBlur stdDeviation="8"/>
<feColorMatrix type="matrix" values="0 0 0 0 0.505882 0 0 0 0 0.243137 0 0 0 0 0.752941 0 0 0 0.08 0"/>
<feBlend mode="normal" in2="BackgroundImageFix" result="effect1_dropShadow"/>
<feColorMatrix in="SourceAlpha" type="matrix" values="0 0 0 0 0 0 0 0 0 0 0 0 0 0 0 0 0 0 127 0"/>
<feOffset dy="4"/>
<feGaussianBlur stdDeviation="4"/>
<feColorMatrix type="matrix" values="0 0 0 0 0.301961 0 0 0 0 0.145098 0 0 0 0 0.45098 0 0 0 0.08 0"/>
<feBlend mode="normal" in2="effect1_dropShadow" result="effect2_dropShadow"/>
<feBlend mode="normal" in="SourceGraphic" in2="effect2_dropShadow" result="shape"/>
</filter>
<filter id="filter1_dd" x="4.5" y="73" width="111" height="68" filterUnits="userSpaceOnUse" color-interpolation-filters="sRGB">
<feFlood flood-opacity="0" result="BackgroundImageFix"/>
<feColorMatrix in="SourceAlpha" type="matrix" values="0 0 0 0 0 0 0 0 0 0 0 0 0 0 0 0 0 0 127 0"/>
<feOffset dy="8"/>
<feGaussianBlur stdDeviation="8"/>
<feColorMatrix type="matrix" values="0 0 0 0 0.486275 0 0 0 0 0.227451 0 0 0 0 0.929412 0 0 0 0.16 0"/>
<feBlend mode="normal" in2="BackgroundImageFix" result="effect1_dropShadow"/>
<feColorMatrix in="SourceAlpha" type="matrix" values="0 0 0 0 0 0 0 0 0 0 0 0 0 0 0 0 0 0 127 0"/>
<feOffset dy="4"/>
<feGaussianBlur stdDeviation="4"/>
<feColorMatrix type="matrix" values="0 0 0 0 0.356863 0 0 0 0 0.129412 0 0 0 0 0.713726 0 0 0 0.16 0"/>
<feBlend mode="normal" in2="effect1_dropShadow" result="effect2_dropShadow"/>
<feBlend mode="normal" in="SourceGraphic" in2="effect2_dropShadow" result="shape"/>
</filter>
<filter id="filter2_i" x="28.5" y="83" width="63" height="30" filterUnits="userSpaceOnUse" color-interpolation-filters="sRGB">
<feFlood flood-opacity="0" result="BackgroundImageFix"/>
<feBlend mode="normal" in="SourceGraphic" in2="BackgroundImageFix" result="shape"/>
<feColorMatrix in="SourceAlpha" type="matrix" values="0 0 0 0 0 0 0 0 0 0 0 0 0 0 0 0 0 0 127 0" result="hardAlpha"/>
<feOffset dy="-2"/>
<feGaussianBlur stdDeviation="2"/>
<feComposite in2="hardAlpha" operator="arithmetic" k2="-1" k3="1"/>
<feColorMatrix type="matrix" values="0 0 0 0 0 0 0 0 0 0 0 0 0 0 0 0 0 0 0.9 0"/>
<feBlend mode="soft-light" in2="shape" result="effect1_innerShadow"/>
</filter>
<clipPath id="clip0">
<rect x="20" y="12" width="80" height="80" rx="40" fill="white"/>
</clipPath>
</defs>
</svg>
