<svg width="152" height="161" viewBox="0 0 152 161" fill="none" xmlns="http://www.w3.org/2000/svg">
<g filter="url(#filter0_dd)">
<rect x="36" y="12" width="80" height="80" rx="40" fill="#FEF3C7"/>
<rect x="34" y="10" width="84" height="84" rx="42" stroke="#F59E0B" stroke-width="4"/>
</g>
<g filter="url(#filter1_dd)">
<g filter="url(#filter2_i)">
<path d="M32 99C32 91.268 38.268 85 46 85H106C113.732 85 120 91.268 120 99V99C120 106.732 113.732 113 106 113H46C38.268 113 32 106.732 32 99V99Z" fill="#F59E0B"/>
<path d="M44.8519 105.68C45.5319 106.04 46.3319 106.2 47.2319 106.2C48.1719 106.2 49.0319 106 49.8119 105.6C50.5919 105.2 51.2119 104.58 51.6919 103.74C52.1519 102.92 52.3919 101.9 52.3919 100.68V93.62C52.3919 92.56 51.9119 92.02 50.9719 92.02C50.4919 92.02 50.1319 92.16 49.9119 92.44C49.6719 92.72 49.5719 93.12 49.5719 93.62V100.84C49.5719 101.7 49.3319 102.36 48.8719 102.84C48.3919 103.32 47.8519 103.54 47.2119 103.54C46.6519 103.54 46.2119 103.42 45.8719 103.14C45.5319 102.88 45.3119 102.52 45.1919 102.06C44.9919 101.46 44.5919 101.14 43.9519 101.14C43.5919 101.14 43.2719 101.26 43.0319 101.5C42.7719 101.74 42.6519 102.08 42.6519 102.52C42.6519 103.14 42.8519 103.74 43.2319 104.3C43.6119 104.86 44.1519 105.32 44.8519 105.68ZM63.0944 103.38C62.8544 103.18 62.6144 103.08 62.3544 103.08C62.0944 103.08 61.8144 103.16 61.5344 103.32C61.1944 103.5 60.8744 103.64 60.5944 103.72C60.3144 103.8 59.9544 103.84 59.5344 103.84C58.9144 103.84 58.3944 103.7 57.9744 103.38C57.5344 103.08 57.2544 102.66 57.1144 102.1H61.2744C61.9744 102.1 62.4744 101.96 62.7744 101.68C63.0744 101.4 63.2344 100.92 63.2344 100.28C63.2344 98.96 62.8544 97.94 62.1344 97.22C61.4144 96.52 60.4544 96.16 59.2744 96.16C58.3344 96.16 57.5144 96.38 56.7944 96.8C56.0744 97.24 55.4944 97.82 55.0944 98.58C54.6944 99.34 54.4944 100.22 54.4944 101.18C54.4944 102.18 54.6944 103.04 55.1144 103.8C55.5144 104.56 56.1144 105.16 56.8744 105.58C57.6344 106 58.5344 106.2 59.5344 106.2C60.2944 106.2 60.9944 106.12 61.6544 105.92C62.2944 105.74 62.7744 105.46 63.0944 105.1C63.3144 104.86 63.4344 104.54 63.4344 104.18C63.4344 103.86 63.3144 103.58 63.0944 103.38ZM57.8944 98.9C58.2544 98.62 58.7144 98.46 59.2744 98.46C59.7744 98.46 60.1744 98.62 60.4744 98.9C60.7544 99.2 60.9144 99.62 60.9344 100.14H57.1144C57.2544 99.62 57.5144 99.2 57.8944 98.9ZM66.8627 105.84C67.5427 106.08 68.3227 106.2 69.2027 106.2C70.5027 106.2 71.5227 105.9 72.2827 105.3C73.0227 104.7 73.4027 103.92 73.4027 102.94C73.4027 102.02 73.1027 101.34 72.5027 100.9C71.9027 100.46 71.0627 100.18 70.0027 100.04L69.0427 99.9C68.3027 99.82 67.9427 99.58 67.9427 99.16C67.9427 98.64 68.3227 98.38 69.1027 98.38C69.7827 98.38 70.4227 98.56 71.0027 98.9C71.1427 98.98 71.2827 99.04 71.4227 99.08C71.5627 99.14 71.7027 99.16 71.8427 99.16C72.1227 99.16 72.3427 99.08 72.5427 98.88C72.7427 98.68 72.8427 98.42 72.8427 98.08C72.8427 97.64 72.6427 97.3 72.2827 97.04C71.9227 96.78 71.4627 96.56 70.9227 96.4C70.3627 96.24 69.7827 96.16 69.1627 96.16C67.9627 96.16 67.0027 96.46 66.3227 97.04C65.6427 97.62 65.3027 98.36 65.3027 99.26C65.3027 100.16 65.5827 100.84 66.1627 101.3C66.7227 101.76 67.5227 102.06 68.5427 102.2L69.4827 102.32C69.9227 102.4 70.2427 102.48 70.4427 102.6C70.6427 102.72 70.7427 102.88 70.7427 103.12C70.7427 103.68 70.3027 103.96 69.4627 103.96C68.5027 103.96 67.6627 103.74 66.9227 103.26C66.5427 103.06 66.2227 102.94 65.9827 102.94C65.6427 102.94 65.3827 103.04 65.1827 103.24C64.9827 103.44 64.9027 103.7 64.9027 104.02C64.9027 104.4 65.0427 104.72 65.3227 104.96C65.6627 105.32 66.1827 105.6 66.8627 105.84ZM76.765 105.84C77.445 106.08 78.225 106.2 79.105 106.2C80.405 106.2 81.425 105.9 82.185 105.3C82.925 104.7 83.305 103.92 83.305 102.94C83.305 102.02 83.005 101.34 82.405 100.9C81.805 100.46 80.965 100.18 79.905 100.04L78.945 99.9C78.205 99.82 77.845 99.58 77.845 99.16C77.845 98.64 78.225 98.38 79.005 98.38C79.685 98.38 80.325 98.56 80.905 98.9C81.045 98.98 81.185 99.04 81.325 99.08C81.465 99.14 81.605 99.16 81.745 99.16C82.025 99.16 82.245 99.08 82.445 98.88C82.645 98.68 82.745 98.42 82.745 98.08C82.745 97.64 82.545 97.3 82.185 97.04C81.825 96.78 81.365 96.56 80.825 96.4C80.265 96.24 79.685 96.16 79.065 96.16C77.865 96.16 76.905 96.46 76.225 97.04C75.545 97.62 75.205 98.36 75.205 99.26C75.205 100.16 75.485 100.84 76.065 101.3C76.625 101.76 77.425 102.06 78.445 102.2L79.385 102.32C79.825 102.4 80.145 102.48 80.345 102.6C80.545 102.72 80.645 102.88 80.645 103.12C80.645 103.68 80.205 103.96 79.365 103.96C78.405 103.96 77.565 103.74 76.825 103.26C76.445 103.06 76.125 102.94 75.885 102.94C75.545 102.94 75.285 103.04 75.085 103.24C74.885 103.44 74.805 103.7 74.805 104.02C74.805 104.4 74.945 104.72 75.225 104.96C75.565 105.32 76.085 105.6 76.765 105.84ZM85.5673 93.98C85.8473 94.28 86.2273 94.42 86.6673 94.42C87.1073 94.42 87.4873 94.28 87.7673 93.98C88.0473 93.7 88.2073 93.32 88.2073 92.88C88.2073 92.44 88.0473 92.08 87.7673 91.78C87.4873 91.5 87.1073 91.34 86.6673 91.34C86.2273 91.34 85.8473 91.5 85.5673 91.78C85.2873 92.08 85.1473 92.44 85.1473 92.88C85.1473 93.32 85.2873 93.7 85.5673 93.98ZM85.6673 105.8C85.8673 106.06 86.2073 106.18 86.6673 106.18C87.5473 106.18 88.0073 105.68 88.0073 104.68V97.68C88.0073 96.7 87.5473 96.2 86.6673 96.2C85.7873 96.2 85.3473 96.7 85.3473 97.68V104.68C85.3473 105.16 85.4473 105.54 85.6673 105.8ZM90.7003 98.56C90.2803 99.32 90.0803 100.2 90.0803 101.18C90.0803 102.18 90.2803 103.04 90.7003 103.8C91.1203 104.56 91.7003 105.16 92.4603 105.58C93.2203 106 94.0803 106.2 95.0603 106.2C95.8603 106.2 96.5603 106.08 97.1203 105.8C97.6803 105.52 98.1203 105.16 98.4403 104.72C98.6803 104.42 98.8003 104.08 98.8003 103.7C98.8003 103.38 98.6803 103.12 98.4603 102.92C98.2203 102.72 97.9603 102.62 97.6803 102.62C97.4003 102.62 97.1603 102.74 96.9203 102.94C96.8603 102.98 96.7603 103.08 96.6203 103.22C96.4603 103.38 96.2803 103.5 96.0403 103.62C95.8003 103.74 95.4803 103.8 95.0603 103.8C94.3603 103.8 93.8003 103.56 93.4003 103.08C93.0003 102.6 92.8003 101.98 92.8003 101.18C92.8003 100.4 93.0003 99.76 93.4003 99.28C93.8003 98.8 94.3603 98.56 95.0603 98.56C95.3803 98.56 95.6603 98.62 95.9203 98.72C96.1603 98.84 96.3803 98.98 96.5803 99.18C96.7603 99.38 96.8803 99.5 96.9203 99.54C97.1403 99.74 97.4003 99.84 97.6803 99.84C97.9603 99.84 98.2003 99.74 98.4403 99.52C98.6803 99.3 98.8003 99.02 98.8003 98.66C98.8003 98.3 98.6803 97.98 98.4403 97.66C98.1203 97.22 97.6803 96.86 97.1203 96.58C96.5403 96.3 95.8603 96.16 95.0603 96.16C94.0803 96.16 93.2203 96.38 92.4603 96.8C91.7003 97.22 91.1203 97.8 90.7003 98.56ZM107.557 97.46C106.777 96.6 105.617 96.16 104.097 96.16C103.457 96.16 102.897 96.26 102.377 96.44C101.857 96.62 101.437 96.82 101.077 97.06C100.657 97.34 100.457 97.72 100.457 98.16C100.457 98.48 100.577 98.74 100.777 98.96C100.977 99.18 101.217 99.28 101.517 99.28C101.777 99.28 102.097 99.18 102.457 98.98C102.717 98.84 102.977 98.74 103.217 98.66C103.457 98.58 103.737 98.54 104.077 98.54C104.697 98.54 105.177 98.7 105.517 99C105.837 99.32 106.037 99.72 106.097 100.24C105.417 100.16 104.857 100.12 104.397 100.12C103.157 100.12 102.157 100.4 101.437 100.96C100.717 101.52 100.357 102.3 100.357 103.34C100.357 104.18 100.617 104.86 101.157 105.4C101.677 105.94 102.457 106.2 103.477 106.2C104.457 106.2 105.357 105.9 106.177 105.3C106.317 105.9 106.717 106.2 107.397 106.2C108.277 106.2 108.717 105.7 108.717 104.7V101.02C108.717 99.52 108.317 98.34 107.557 97.46ZM104.197 104.02C103.357 104.02 102.957 103.72 102.957 103.08C102.957 102.76 103.097 102.5 103.377 102.32C103.657 102.14 104.097 102.04 104.657 102.04C105.117 102.04 105.597 102.1 106.117 102.2V103.4C105.397 103.82 104.757 104.02 104.197 104.02Z" fill="white"/>
</g>
</g>
<g clip-path="url(#clip0)">
<g clip-path="url(#clip1)">
<path fill-rule="evenodd" clip-rule="evenodd" d="M39.4722 132.226C52.4247 134.195 65.6122 134.294 78.6724 133.579C83.8411 133.192 89.0257 133.122 94.1902 133.617C97.242 133.844 110.622 134.867 111.716 132.133C111.028 117.572 109.634 102.888 105.359 88.8845C103.601 83.9122 102.091 79.7853 98.6595 75.6706C97.578 74.5472 95.2458 72.191 93.9095 71.4226C92.7517 70.757 92.2678 70.9944 91.603 69.8701C90.9424 68.6281 90.4551 66.5538 89.5171 65.6774C88.562 64.785 87.1466 65.1043 85.3923 65.3917C85.7146 61.0346 83.7042 59.9249 80.9345 59.0963C76.0661 57.2376 71.258 58.1714 70.0327 64.1001C67.7607 64.1001 66.4845 65.0782 65.1049 66.018C64.5409 66.4022 64.9332 67.381 64.2595 67.683C63.0132 68.1269 60.8106 68.0182 59.6105 68.5645C54.1534 71.049 49.2928 74.6519 46.1008 79.9136C38.9446 91.1476 34.0289 114.812 34.8795 128.127C34.5068 128.711 35.0222 129.55 35.1532 130.179C35.3186 130.725 35.854 131.089 36.4129 131.027C37.1927 131.866 38.3989 132.053 39.4722 132.226Z" fill="white"/>
<path fill-rule="evenodd" clip-rule="evenodd" d="M93.0847 71.0932C93.0052 71.0489 93.0752 70.9352 93.1551 70.9728C96.9964 72.7755 99.9432 75.9383 102.017 79.5927C104.164 83.3766 105.387 87.6728 106.442 91.8718L106.481 92.0236C107.606 96.5155 108.562 101.054 109.423 105.603C110.295 110.21 110.995 114.846 111.559 119.501C111.837 121.802 112.086 124.108 112.279 126.418C112.376 127.573 112.464 128.728 112.543 129.884C112.575 130.346 112.604 130.809 112.63 131.271L112.648 131.618C112.664 131.933 112.701 132.249 112.623 132.559C112.556 132.827 112.415 133.069 112.29 133.315C112.044 133.801 111.368 133.721 111.102 133.315L111.025 133.197C110.849 132.925 110.703 132.671 110.647 132.333C110.594 132.004 110.592 131.661 110.568 131.329C110.524 130.719 110.486 130.109 110.443 129.499C110.354 128.214 110.253 126.931 110.141 125.649C109.92 123.117 109.682 120.587 109.391 118.063C108.873 113.576 108.223 109.101 107.458 104.649C106.709 100.301 105.763 95.9967 104.776 91.6979L104.674 91.2532C102.946 83.7477 100.283 75.1042 93.0847 71.0932ZM52.1696 100.483C52.1979 100.408 52.3194 100.391 52.3399 100.483C52.5987 101.649 52.6243 102.849 52.6638 104.042C52.7028 105.219 52.7012 106.402 52.6841 107.579C52.6208 111.908 52.502 116.233 52.3993 120.561C52.348 122.726 52.2998 124.891 52.2628 127.056C52.2488 127.868 52.2371 128.68 52.2273 129.492L52.2154 130.563C52.2094 131.037 52.197 131.505 52.1393 131.978C52.1012 132.289 52.0201 132.586 51.8484 132.852C51.7265 133.042 51.5529 133.138 51.3836 133.266L51.3519 133.291C51.136 133.462 50.9085 133.463 50.6947 133.291L50.6326 133.242C50.4283 133.082 50.2517 132.957 50.1213 132.704C49.9399 132.353 49.9108 131.971 49.88 131.584C49.8332 130.997 49.8642 130.401 49.8703 129.812C49.8824 128.631 49.8987 127.45 49.9195 126.269C49.9955 121.937 50.1458 117.605 50.4197 113.281C50.5488 111.245 50.7238 109.202 50.9585 107.173L51.0032 106.793C51.0744 106.197 51.1393 105.589 51.2125 104.98C50.1202 104.211 49.1601 103.279 48.3414 102.221C48.2811 102.143 48.3804 102.034 48.4531 102.109C49.2897 102.976 50.2489 103.666 51.3108 104.21C51.4848 102.934 51.7241 101.665 52.1696 100.483ZM70.4172 61.8729C70.4321 61.8613 70.4555 61.8562 70.4698 61.8729C70.7046 62.1467 70.657 62.5654 70.6645 62.9123L70.6654 62.9447C70.6823 63.452 70.6854 63.9577 70.6838 64.4653L70.6785 66.0811C70.6778 66.3033 70.6598 66.5345 70.6712 66.758L70.6771 66.8445C70.8004 66.9708 70.8577 67.1534 70.8159 67.3368C70.8084 67.5721 70.6854 67.7684 70.5061 67.8918L70.8905 68.4373L71.2752 68.9826C72.0683 70.1078 72.8701 71.223 73.7056 72.3172C74.5577 73.4329 75.4666 74.5066 76.4178 75.5389C76.8825 76.0433 77.3551 76.5407 77.8387 77.027C78.0352 77.2246 78.2367 77.4174 78.4359 77.6123L78.634 77.8082C78.7511 77.9253 78.8985 78.0411 78.9762 78.1896C79.0219 78.2772 79.0323 78.493 79.0487 78.5287C79.1954 78.8514 78.9451 79.3658 78.529 79.2048L78.5479 79.1923C78.6237 79.1396 78.5751 79.1388 78.4022 79.1901C78.2932 79.1897 78.1909 79.1646 78.0954 79.1149L78.0669 79.0992C77.9324 79.0308 77.8123 78.8985 77.703 78.7926L77.6759 78.7668C77.426 78.5325 77.1877 78.284 76.9482 78.0392C76.4482 77.5283 75.9596 77.0065 75.4864 76.4707C74.5426 75.4017 73.6478 74.2894 72.8005 73.1425C71.9373 71.9745 71.1351 70.7464 70.4451 69.4679C70.1833 68.9828 69.9433 68.4882 69.7131 67.988C69.2652 67.8441 69.1612 67.3676 69.1924 66.8307C69.0272 66.4457 68.8783 66.0527 68.7902 65.6512C68.7782 65.5962 68.8489 65.5443 68.8912 65.5924C69.0345 65.7553 69.1672 65.9286 69.2947 66.1065C69.3716 65.7301 69.469 65.3836 69.5148 65.1628L69.7133 64.188C68.5943 64.1297 67.3681 64.5896 66.5967 65.3947C66.5552 65.6044 66.3939 65.7545 66.2367 65.9505C66.057 66.1745 65.9003 66.4259 65.7834 66.6889C65.5241 67.2717 65.6705 68.1305 65.1673 68.5581C65.1149 68.6026 65.0563 68.6335 64.9958 68.6527C65.2346 69.8238 65.1262 71.1142 65.121 72.3023L65.1208 72.4069C65.122 73.7366 65.0776 75.0675 65.0263 76.3961L64.974 77.7111C64.9063 79.4648 64.8623 81.2193 65.0327 82.9634C65.8105 82.2743 66.6147 81.6166 67.4466 80.9901C67.9936 80.578 68.5516 80.1806 69.1197 79.7982L69.5813 79.4896C70.1345 79.1185 70.701 78.7367 71.3067 78.471C72.0988 78.1236 72.8521 78.243 73.6169 78.5993C74.3785 78.9543 75.1174 79.3666 75.8645 79.7513C76.6243 80.1425 77.3857 80.5304 78.1467 80.9193C78.6507 81.177 79.3893 81.4096 79.759 81.8838C79.7826 81.7789 79.8101 81.6743 79.8422 81.57C79.8055 81.411 79.8197 81.2393 79.9088 81.0755C81.1511 78.792 82.3005 76.454 83.4418 74.1189C84.0195 72.9371 84.5687 71.7414 85.1475 70.5603L85.7102 69.4101C85.8042 69.2184 85.8985 69.027 85.9933 68.8358C86.1353 68.5495 86.2831 68.2661 86.4267 67.9805C86.4874 67.8599 86.5634 67.7401 86.6225 67.6183L86.6505 67.5572C86.6518 67.554 86.7881 67.1252 86.6828 67.166L86.6738 67.1704C86.62 67.2009 86.577 67.1332 86.6118 67.0901C86.7607 66.9059 86.9681 67.069 87.0531 67.2395C87.2872 67.7087 86.8582 68.4453 86.6932 68.8946L86.6842 68.9197C86.1721 70.3696 85.5923 71.7924 84.9982 73.2102C83.8592 75.9285 82.6356 78.605 81.4146 81.2862L81.4001 81.3323C81.6605 81.1326 81.9385 80.9514 82.1765 80.7751C82.777 80.3301 83.3951 79.9069 84.0122 79.4852C85.1438 78.7118 86.3061 77.9894 87.4876 77.2954L87.7242 77.157C88.3144 76.8131 88.899 76.5342 89.5996 76.6374C90.2504 76.7334 90.8555 77.0831 91.4434 77.3672L91.5042 77.3964L93.321 78.2604C93.1268 77.4856 92.9165 76.7146 92.6971 75.9464C92.2692 74.4481 91.7984 72.9623 91.2878 71.4899C90.8109 70.1141 90.2954 68.7534 89.7501 67.4035L89.5859 66.9983C89.3636 66.4425 89.1425 65.8364 88.5071 65.6653C87.8721 65.4942 87.1437 65.7479 86.5633 65.3858C86.5106 65.3529 86.5171 65.2659 86.5811 65.2498L86.9392 65.1595C87.6116 64.9922 88.3999 64.8239 89.0357 64.9866C89.7277 65.164 90.3001 65.7449 90.6358 66.3488C91.0091 67.0206 91.2722 67.7724 91.5555 68.4888L91.6004 68.6016C91.9255 69.4123 92.2382 70.2279 92.5374 71.0486C93.1356 72.6891 93.6802 74.3493 94.1731 76.0245C94.4107 76.8318 94.636 77.643 94.8527 78.4562C94.9149 78.6901 95.0176 78.9736 95.1019 79.2694C95.1985 79.3636 95.2899 79.4688 95.3756 79.5887C95.5179 79.7876 95.4158 80.0209 95.2389 80.14C95.2321 80.3435 95.1869 80.535 95.0788 80.699C94.657 81.3396 93.5417 81.1746 93.587 80.3134C93.5938 80.1816 93.6452 80.0557 93.7229 79.9494L93.7207 79.9321L93.7119 79.9006C93.5183 79.8078 93.3239 79.7043 93.1189 79.6031L91.2122 78.6605C90.66 78.3875 90.0479 77.9657 89.4338 77.8616C88.8613 77.7646 88.2573 78.1913 87.7653 78.4488L87.7334 78.4653C86.5442 79.0751 85.3638 79.7051 84.188 80.3403C83.6141 80.6504 83.0476 80.9734 82.4758 81.2873C81.9978 81.5497 81.4818 81.9264 80.9445 82.0745C80.715 82.253 80.4423 82.2291 80.2232 82.0941C80.3233 82.7145 80.3172 83.3511 80.3479 83.9854C80.3893 84.8333 80.3956 85.6836 80.4092 86.5327L80.4147 86.8511C80.4508 88.7282 80.4702 90.6058 80.4773 92.4833C80.5027 99.169 80.4288 105.857 80.4116 112.542C80.4029 115.901 80.3363 119.263 80.2491 122.621C80.2121 124.044 80.1348 125.465 80.0513 126.886L80.0053 127.661C79.908 129.296 79.8506 130.949 79.548 132.562C79.5086 132.772 79.1527 132.777 79.1178 132.562C78.8393 130.833 78.8238 129.067 78.7703 127.318L78.759 126.969C78.6946 125.091 78.6641 123.215 78.6706 121.337C78.6944 114.648 78.8682 107.964 79.0104 101.278C79.0819 97.9182 79.13 94.5572 79.241 91.1988C79.2965 89.5184 79.3594 87.839 79.4339 86.1593C79.4672 85.4093 79.4993 84.6601 79.5491 83.9112L79.5715 83.5903C79.587 83.3809 79.5995 83.1741 79.6147 82.9692C78.9382 83.2164 78.3196 82.7587 77.711 82.4456C77.0097 82.0847 76.3086 81.7232 75.607 81.3629L74.9048 81.0033L73.4995 80.286C72.8668 79.963 72.3793 79.6415 71.7044 80.0204C69.2731 81.385 67.039 83.2006 65.0143 85.1058C64.626 85.4712 63.8056 85.373 63.7073 84.7606C63.2871 82.1446 63.5426 79.4908 63.7571 76.8669L63.8362 75.8927C63.932 74.7292 64.0364 73.5657 64.1754 72.4069C64.2376 71.8885 64.2995 71.3705 64.368 70.8531L64.4208 70.4652C64.5064 69.852 64.5624 69.2424 64.745 68.6543C64.6874 68.6356 64.632 68.6051 64.5824 68.5581C64.0333 68.037 64.298 67.1327 64.5486 66.5128C64.7959 65.901 65.1732 65.367 65.6456 64.9074C65.7486 64.807 65.8939 64.7424 66.0398 64.7391C67.1852 63.9799 68.4417 63.601 69.7495 64.0154C69.7863 63.8397 69.8237 63.6643 69.8632 63.4893L69.9033 63.3145C70.005 62.8804 70.0428 62.1633 70.4172 61.8729ZM82.1563 130.429C82.5117 130.332 82.9008 130.435 83.1613 130.695C83.4216 130.956 83.5247 131.345 83.4268 131.7C83.3778 131.875 83.2893 132.027 83.1613 132.156C83.0416 132.275 82.902 132.36 82.7426 132.411L82.7054 132.422L82.6473 132.446C82.4692 132.494 82.2909 132.494 82.1128 132.446C81.9425 132.399 81.7947 132.312 81.6692 132.188C81.5446 132.062 81.4584 131.914 81.4106 131.744C81.3627 131.566 81.3627 131.387 81.4106 131.209L81.4349 131.151C81.4839 130.976 81.5724 130.824 81.7004 130.695C81.8293 130.567 81.9813 130.478 82.1563 130.429ZM103.261 94.9977C103.319 94.9306 103.414 95.0165 103.378 95.0878C102.824 96.1736 102.207 97.2516 101.6 98.3098C101.649 98.603 101.697 98.8939 101.753 99.1775C101.989 100.386 102.278 101.573 102.467 102.793C103.145 107.179 103.497 111.612 103.799 116.037C104.102 120.478 104.141 124.921 104.186 129.371C104.19 129.756 103.894 130.205 103.497 130.277C103.315 130.311 103.178 130.304 102.997 130.277C102.583 130.216 102.325 129.743 102.307 129.371C102.188 126.884 102.029 124.4 101.844 121.917C101.517 117.515 101.316 113.102 101.052 108.695L100.959 107.155C100.859 105.486 100.767 103.816 100.737 102.145C100.717 101.037 100.777 99.9304 100.74 98.8244C100.707 97.8033 100.603 96.6931 100.828 95.6899C100.837 95.6523 100.896 95.6428 100.913 95.6788C101.147 96.1715 101.295 96.7071 101.409 97.2538C102.012 96.4909 102.627 95.7263 103.261 94.9977ZM63.7625 68.0254C63.8472 68.0193 63.8438 68.1466 63.7625 68.156C62.5791 68.2933 61.436 68.775 60.3186 69.1845L60.2229 69.2194C59.0941 69.6291 57.9935 70.1056 56.9343 70.6735C54.8635 71.7839 52.962 73.2157 51.2807 74.8548C44.5682 81.398 41.5092 90.8336 39.2676 99.7007C38.0222 104.627 37.1365 109.637 36.5625 114.685C36.2787 117.182 36.078 119.688 35.961 122.198C35.9011 123.484 35.8633 124.772 35.8476 126.059C35.8395 126.719 35.8371 127.379 35.8379 128.038C35.8383 128.341 35.8922 128.721 35.8114 129.015C35.7364 129.287 35.5251 129.526 35.3687 129.753C35.1834 130.021 34.8504 130.007 34.6625 129.753L34.5932 129.66C34.3929 129.394 34.1968 129.14 34.1682 128.792C34.1376 128.42 34.1592 128.036 34.1578 127.661C34.1546 126.908 34.1639 126.154 34.179 125.4C34.2081 123.955 34.265 122.511 34.3495 121.069C34.5212 118.141 34.8039 115.22 35.2086 112.316C35.928 107.153 37.0063 102.04 38.4187 97.023C39.7511 92.2901 41.3297 87.5712 43.5785 83.1872C45.6664 79.1168 48.4055 75.3301 52.0199 72.4854C53.7007 71.1625 55.5304 70.06 57.503 69.2297C58.4979 68.811 59.5427 68.4691 60.6052 68.2742C61.6559 68.0815 62.7021 68.1084 63.7625 68.0254ZM82.36 122.064C82.5476 122.062 82.7569 122.104 82.9179 122.207L83.1331 122.374C83.1914 122.449 83.2494 122.524 83.3072 122.599C83.4417 122.774 83.4596 123.058 83.4315 123.267C83.4252 123.407 83.3837 123.537 83.3072 123.657L83.1434 123.869C82.986 123.997 82.8547 124.089 82.664 124.151C82.5644 124.183 82.4684 124.19 82.3727 124.185L82.3408 124.183L82.36 124.185L82.3265 124.182C82.2953 124.179 82.2641 124.176 82.2328 124.171C82.2114 124.169 82.19 124.167 82.1687 124.164C82.1482 124.162 82.1284 124.162 82.1076 124.164C81.8653 124.186 81.6217 124.049 81.4497 123.891C81.2948 123.749 81.1557 123.447 81.1773 123.233L81.1865 123.144C81.2028 122.993 81.2162 122.933 81.2801 122.782C81.3422 122.634 81.4289 122.504 81.547 122.395C81.773 122.184 82.0497 122.066 82.36 122.064ZM81.6099 111.026C81.9315 110.676 82.4839 110.65 82.8827 110.862C82.9799 110.914 83.0691 110.997 83.1548 111.066C83.3706 111.241 83.4554 111.556 83.4673 111.821C83.4791 112.083 83.3408 112.395 83.1548 112.576L83.1097 112.62C82.9985 112.728 82.8393 112.822 82.6838 112.85C82.4331 112.896 82.2225 112.895 81.989 112.796C81.7884 112.712 81.6156 112.576 81.4979 112.391L81.4789 112.36C81.4708 112.347 81.4632 112.334 81.456 112.32L81.4456 112.3C81.2222 111.87 81.2822 111.383 81.6099 111.026ZM81.7765 99.931C81.9215 99.8854 82.0665 99.879 82.2115 99.9115C82.31 99.9117 82.4018 99.9366 82.4869 99.9859C82.5793 100.012 82.6596 100.059 82.7276 100.126C82.8095 100.175 82.8748 100.24 82.9233 100.322C83.0198 100.427 83.0848 100.551 83.1186 100.693L83.1575 100.983L83.1186 101.273L83.0085 101.534C82.9783 101.574 82.9479 101.613 82.9171 101.652C82.8686 101.735 82.8031 101.8 82.7209 101.849C82.6675 101.902 82.6062 101.942 82.5377 101.969C82.2948 102.144 81.9712 102.2 81.6834 102.121C81.5125 102.073 81.3641 101.987 81.2383 101.862C81.1132 101.736 81.0267 101.587 80.9789 101.416L80.9592 101.28C80.9338 101.097 80.9297 100.995 80.9816 100.762C81.0043 100.66 81.0702 100.516 81.1047 100.455C81.2522 100.196 81.4932 100.018 81.7765 99.931ZM94.3709 91.9486C94.7874 91.9456 95.2039 91.9465 95.6203 91.9511L95.9326 91.9552C96.4556 91.9635 96.9035 91.9095 97.3147 92.2725C97.6131 92.5359 97.4816 92.9779 97.1984 93.1764C96.7692 93.4769 96.2308 93.3257 95.7375 93.2926C95.2172 93.2577 94.6965 93.2287 94.1756 93.2053C93.167 93.1602 92.158 93.1314 91.1485 93.127C90.1411 93.1227 89.1322 93.1322 88.1249 93.1485C87.0999 93.1651 86.0328 93.2607 85.0136 93.1545C84.8736 93.14 84.8421 92.9558 84.9803 92.9079C85.9407 92.5755 87.021 92.4678 88.0275 92.3407C89.0657 92.2095 90.1038 92.1167 91.1485 92.0565C92.2215 91.9949 93.2961 91.9561 94.3709 91.9486ZM81.7746 88.6841L81.809 88.6848C81.9923 88.6852 82.1638 88.7284 82.3238 88.8142L82.3579 88.8333L82.578 89.0033C82.7127 89.1391 82.806 89.2991 82.8576 89.4834L82.8965 89.7726C82.9022 89.9224 82.8709 90.062 82.8029 90.1918C82.7589 90.3266 82.684 90.4433 82.578 90.5419C82.4795 90.6479 82.3628 90.7229 82.228 90.7668C82.1083 90.8296 81.9802 90.8612 81.8433 90.8612L81.809 90.8605C81.6128 90.8598 81.4297 90.8104 81.2602 90.712L81.04 90.5419C80.9053 90.4061 80.812 90.2461 80.7604 90.0618L80.7215 89.7726C80.7159 89.6228 80.747 89.483 80.8152 89.3535C80.8591 89.2186 80.934 89.1018 81.04 89.0033C81.1385 88.8972 81.2551 88.8223 81.3901 88.7784C81.5097 88.7155 81.6378 88.6841 81.7746 88.6841ZM84.9986 63.1279C85.2329 62.7884 85.6575 63.0903 85.5967 63.3632C85.6128 64.1298 85.652 64.8738 85.8263 65.6247C85.9062 65.9684 86.0108 66.3126 86.1721 66.6275L86.2398 66.7601C86.4486 67.1728 86.6107 67.5619 86.3295 68.0147C86.1969 68.2281 85.9574 68.3884 85.6978 68.3772C84.5462 68.3275 84.388 66.724 84.318 65.8289C84.2458 64.907 84.4703 63.8938 84.9986 63.1279Z" fill="#F59E0B"/>
<path fill-rule="evenodd" clip-rule="evenodd" d="M96.8994 42.6261C96.5237 36.4568 94.5226 29.4624 88.6331 26.4334C75.6494 21.2206 58.5785 34.3479 57.6748 47.7585C57.3597 52.349 59.9075 57.3652 64.5633 58.6414C65.5985 60.0134 67.1639 60.8513 68.7091 61.5785C87.1127 71.1304 99.0007 63.3658 96.8994 42.6261Z" fill="white"/>
<path fill-rule="evenodd" clip-rule="evenodd" d="M101.092 38.7885C100.442 36.9814 99.7546 35.1882 99.0318 33.4089C98.3279 31.6771 97.6921 29.908 96.818 28.2583C91.5971 18.4056 82.1032 18.4056 77.1956 19.693C74.6506 18.596 69.8837 18.9055 67.2337 19.8953C62.9436 21.4978 57.7139 27.8016 55.9258 30.6338C51.978 36.8872 49.5143 45.2102 52.1367 52.4362C52.4794 53.3806 52.9165 54.2553 53.4087 55.0983C53.0986 55.5186 52.7418 55.9167 52.3465 56.3079C51.1719 57.4705 49.9973 58.5948 48.9825 59.9061C47.9741 61.2092 47.1382 62.595 46.5158 64.1229C45.3424 67.0043 45.2859 70.267 46.8373 73.0165C48.187 75.4087 50.578 77.1901 53.2719 77.36C53.4102 77.3793 53.5487 77.3969 53.6878 77.4109C54.0447 77.9991 54.4799 78.5406 54.9766 79.0127C56.4985 80.4608 60.1261 81.2036 62.1952 81.2512C62.3013 81.3365 62.4084 81.4218 62.5155 81.5061C63.7815 82.5029 65.11 83.5086 66.5635 84.2178C67.548 84.6988 68.8388 85.1005 69.8659 84.7533C70.3319 85.0648 71.0963 84.9993 71.5583 84.7444C72.3177 84.3259 72.9354 83.5721 73.3112 82.8005C74.2223 80.9269 74.0032 78.8768 73.7692 76.8753C73.5114 74.6646 73.2636 72.4528 73.0117 70.242C72.8144 68.5133 72.6082 66.7558 72.0828 65.0905C71.8111 64.2276 71.4552 63.3985 70.9952 62.6189C71.0071 62.5535 71.0051 62.488 70.9862 62.4265C70.8355 61.9366 70.5242 61.6797 70.1554 61.3464C70.1078 61.3038 70.0602 61.2601 70.0137 61.2155C69.8292 61.0052 69.632 60.8098 69.4208 60.6442C69.3395 60.5619 69.2592 60.4786 69.1789 60.3953C68.5116 59.696 67.8811 58.9611 67.3209 58.1736C66.7776 57.4099 66.2869 56.6125 65.8199 55.8002C65.345 54.974 65.0307 54.0625 64.5568 53.2423C64.5162 53.1718 64.4131 53.158 64.3556 53.2165C64.2088 53.3682 64.1146 53.5368 64.1325 53.7144L64.0591 53.7253C64.0314 53.4575 63.7845 53.2393 63.4494 53.2978C62.9477 53.3851 62.5353 53.4178 62.101 53.2512C62.1774 52.7444 62.2478 52.2366 62.3172 51.7278C62.4441 50.7915 62.5621 49.8522 62.6632 48.913C62.9081 48.9715 63.151 49.0558 63.3889 49.1629C63.728 49.3147 64.0482 49.519 64.3218 49.7699C64.5915 50.0179 64.7779 50.3521 65.1071 50.5247C65.4858 50.722 65.9428 50.3957 65.8318 49.9673C65.6067 49.1014 64.3328 48.6055 63.5446 48.4419C63.2739 48.3853 62.9973 48.3615 62.7207 48.3675C62.7831 47.7644 62.8387 47.1614 62.8843 46.5574C62.9061 46.2718 62.9259 45.9861 62.9447 45.6995C63.5575 45.514 64.2138 45.4585 64.8513 45.5457C65.0615 45.7134 65.2716 45.879 65.4749 46.0466C66.1203 46.5802 66.7627 47.1168 67.3973 47.6633C67.4548 47.7119 67.5113 47.7605 67.5688 47.8101C67.9455 48.1344 68.4155 47.813 68.352 47.3538C67.8345 43.5909 70.1386 40.5976 72.8363 38.2787C75.8224 35.7109 81.2515 35.4119 84.8028 30.964C86.4384 31.297 90.0901 32.2861 91.5971 34.6883C93.7069 38.0545 93.4313 41.0707 93.5919 44.8892C93.7525 48.7106 94.1609 52.6968 93.2934 56.4647C92.4934 59.939 90.3271 62.9075 86.9661 64.2723C86.8829 64.306 86.7986 64.3387 86.7143 64.3705C84.9763 65.0261 83.0797 65.2115 81.2515 64.8664C79.228 64.4835 77.5386 63.5572 75.8552 62.4176C75.758 62.3531 75.6162 62.486 75.6896 62.5832C77.9084 65.5249 82.2668 66.5078 85.7239 65.7312C85.8855 65.6945 86.0461 65.6549 86.2057 65.6112C85.4324 67.8359 85.588 70.2777 86.5953 72.4439C87.2011 73.7471 88.1251 74.8748 89.2504 75.7645C90.4907 76.7444 92.0294 77.5359 92.8899 78.9115C93.6781 80.1721 93.4441 81.5885 92.0948 82.3165C91.7547 82.5009 91.6239 83.097 91.961 83.3588C92.0899 83.458 92.2187 83.5592 92.3506 83.6584C93.1061 84.2287 95.1811 85.2998 95.5172 85.3395C98.5014 85.6936 100.508 83.5017 101.794 80.916C103.304 77.881 102.911 74.1825 101.248 71.2924C99.9132 68.9735 97.2849 66.6884 98.3299 63.7536C98.7027 62.7052 99.4651 61.8116 100.206 61.0042C101.05 60.0848 101.959 59.2239 102.769 58.2718C103.574 57.3266 104.287 56.2981 104.686 55.1118C105.268 53.3781 104.978 51.5036 104.541 49.7729C103.604 46.0575 102.388 42.3918 101.092 38.7885Z" fill="#F59E0B"/>
<path fill-rule="evenodd" clip-rule="evenodd" d="M84.3763 58.1852C83.7098 57.9132 83.1151 57.4595 82.6804 56.8799C82.5292 56.6784 82.4901 56.4656 82.5218 56.271C82.5574 56.0522 82.6868 55.8539 82.8633 55.7209C83.0403 55.5875 83.2617 55.5216 83.4758 55.5552C83.6618 55.5843 83.847 55.6862 83.9936 55.8976L84.0242 55.9398C84.2827 56.2896 84.6195 56.5766 85.0032 56.7616C85.3731 56.9399 85.7868 57.0232 86.2149 56.9748C87.0302 56.8826 87.5922 56.4415 88.1895 55.8425C88.2636 55.7669 88.3377 55.6889 88.4121 55.6096C88.4591 55.5378 88.5244 55.4916 88.5968 55.4674C88.6772 55.4405 88.7682 55.442 88.8515 55.4711C88.9319 55.4991 89.0038 55.5523 89.0519 55.6231C89.0977 55.6903 89.1237 55.7734 89.1153 55.869C89.0606 56.4898 88.7362 57.0438 88.2753 57.4789C87.7635 57.962 87.0851 58.2963 86.4463 58.4135C85.7426 58.5427 85.0256 58.4501 84.3763 58.1852ZM86.7783 48.6082C87.5269 49.0635 88.6677 50.125 87.8623 51.2536C86.9143 52.2488 85.5493 51.1078 84.8767 50.5917C84.253 50.1918 83.5523 51.2204 84.1309 51.6874C88.9913 55.2872 90.9637 48.7272 87.1569 48.0729C86.7378 48.0008 86.5821 48.4674 86.7783 48.6082ZM78.0685 44.4207C78.1512 43.3935 79.7149 43.1603 79.8705 44.1767C80.0098 45.0872 79.8458 45.9236 79.4358 46.7433C79.0441 47.5265 78.0596 47.1611 77.9851 46.448C77.8853 45.4921 78.017 45.0596 78.0685 44.4207ZM89.9719 43.9659C90.19 43.6803 90.5047 43.4853 90.8819 43.5955C92.0602 43.9399 91.7129 45.6134 91.2991 46.428C91.0742 46.8704 90.3474 46.9825 90.0189 46.5931C89.4836 45.9579 89.2272 44.6895 89.9078 44.0638C89.9262 44.0315 89.9468 43.9989 89.9719 43.9659ZM79.4192 39.9262L79.6054 39.8936C80.1812 39.7939 80.8971 39.6982 81.3044 40.1613C81.5205 40.4069 81.5948 40.8633 81.3044 41.0984C80.7937 41.512 80.2289 41.3517 79.6168 41.3867C79.1124 41.4157 78.6276 41.4992 78.1417 41.6381C77.0757 41.9429 76.2071 42.4993 75.2967 43.1103C75.1772 43.1904 75.0553 43.0376 75.1123 42.9258C75.6378 41.896 76.6563 41.0501 77.6765 40.5344C78.221 40.2592 78.8169 40.0309 79.4192 39.9262ZM88.8978 39.4648L89.0403 39.494C90.5906 39.8182 92.6048 40.4658 93.339 41.9892C93.367 42.2046 93.3374 42.2508 93.3134 42.2809L93.3054 42.291C93.2856 42.3167 93.2698 42.3522 93.1764 42.3815C93.1505 42.3754 93.1244 42.3688 93.0979 42.3619C92.7614 42.2737 92.4952 42.1521 92.2374 42.026L91.9579 41.8883C91.6337 41.7292 91.3065 41.576 90.9599 41.4628C90.2201 41.2214 89.4591 41.0514 88.6863 40.9605C88.5188 40.9409 88.3576 40.8843 88.2303 40.7874C88.1095 40.6954 88.0173 40.5681 87.9752 40.3988C87.9207 40.1797 87.9364 40.0138 88.0539 39.8161C88.1422 39.6677 88.2687 39.5648 88.4138 39.5057C88.5618 39.4455 88.7303 39.4313 88.8978 39.4648Z" fill="#F59E0B"/>
</g>
</g>
<defs>
<filter id="filter0_dd" x="16" y="0" width="120" height="120" filterUnits="userSpaceOnUse" color-interpolation-filters="sRGB">
<feFlood flood-opacity="0" result="BackgroundImageFix"/>
<feColorMatrix in="SourceAlpha" type="matrix" values="0 0 0 0 0 0 0 0 0 0 0 0 0 0 0 0 0 0 127 0"/>
<feOffset dy="8"/>
<feGaussianBlur stdDeviation="8"/>
<feColorMatrix type="matrix" values="0 0 0 0 0.505882 0 0 0 0 0.243137 0 0 0 0 0.752941 0 0 0 0.08 0"/>
<feBlend mode="normal" in2="BackgroundImageFix" result="effect1_dropShadow"/>
<feColorMatrix in="SourceAlpha" type="matrix" values="0 0 0 0 0 0 0 0 0 0 0 0 0 0 0 0 0 0 127 0"/>
<feOffset dy="4"/>
<feGaussianBlur stdDeviation="4"/>
<feColorMatrix type="matrix" values="0 0 0 0 0.301961 0 0 0 0 0.145098 0 0 0 0 0.45098 0 0 0 0.08 0"/>
<feBlend mode="normal" in2="effect1_dropShadow" result="effect2_dropShadow"/>
<feBlend mode="normal" in="SourceGraphic" in2="effect2_dropShadow" result="shape"/>
</filter>
<filter id="filter1_dd" x="-8" y="65" width="168" height="100" filterUnits="userSpaceOnUse" color-interpolation-filters="sRGB">
<feFlood flood-opacity="0" result="BackgroundImageFix"/>
<feColorMatrix in="SourceAlpha" type="matrix" values="0 0 0 0 0 0 0 0 0 0 0 0 0 0 0 0 0 0 127 0"/>
<feOffset dy="16"/>
<feGaussianBlur stdDeviation="16"/>
<feColorMatrix type="matrix" values="0 0 0 0 0.0235294 0 0 0 0 0.588235 0 0 0 0 0.592157 0 0 0 0.12 0"/>
<feBlend mode="normal" in2="BackgroundImageFix" result="effect1_dropShadow"/>
<feColorMatrix in="SourceAlpha" type="matrix" values="0 0 0 0 0 0 0 0 0 0 0 0 0 0 0 0 0 0 127 0"/>
<feOffset dy="8"/>
<feGaussianBlur stdDeviation="8"/>
<feColorMatrix type="matrix" values="0 0 0 0 0.0156863 0 0 0 0 0.376471 0 0 0 0 0.380392 0 0 0 0.12 0"/>
<feBlend mode="normal" in2="effect1_dropShadow" result="effect2_dropShadow"/>
<feBlend mode="normal" in="SourceGraphic" in2="effect2_dropShadow" result="shape"/>
</filter>
<filter id="filter2_i" x="32" y="83" width="88" height="30" filterUnits="userSpaceOnUse" color-interpolation-filters="sRGB">
<feFlood flood-opacity="0" result="BackgroundImageFix"/>
<feBlend mode="normal" in="SourceGraphic" in2="BackgroundImageFix" result="shape"/>
<feColorMatrix in="SourceAlpha" type="matrix" values="0 0 0 0 0 0 0 0 0 0 0 0 0 0 0 0 0 0 127 0" result="hardAlpha"/>
<feOffset dy="-2"/>
<feGaussianBlur stdDeviation="2"/>
<feComposite in2="hardAlpha" operator="arithmetic" k2="-1" k3="1"/>
<feColorMatrix type="matrix" values="0 0 0 0 0 0 0 0 0 0 0 0 0 0 0 0 0 0 0.9 0"/>
<feBlend mode="soft-light" in2="shape" result="effect1_innerShadow"/>
</filter>
<clipPath id="clip0">
<rect x="36" y="12" width="80" height="80" rx="40" fill="white"/>
</clipPath>
<clipPath id="clip1">
<rect width="122.963" height="166" fill="white" transform="translate(39.3333 19)"/>
</clipPath>
</defs>
</svg>
