<svg width="132" height="161" viewBox="0 0 132 161" fill="none" xmlns="http://www.w3.org/2000/svg">
<g filter="url(#filter0_dd)">
<rect x="26" y="12" width="80" height="80" rx="40" fill="#F0FDF4"/>
<rect x="24" y="10" width="84" height="84" rx="42" stroke="#22C55E" stroke-width="4"/>
</g>
<g filter="url(#filter1_dd)">
<g filter="url(#filter2_i)">
<path d="M32.5 99C32.5 91.268 38.768 85 46.5 85H85.5C93.232 85 99.5 91.268 99.5 99V99C99.5 106.732 93.232 113 85.5 113H46.5C38.768 113 32.5 106.732 32.5 99V99Z" fill="#22C55E"/>
<path d="M58.688 93.62C58.688 92.56 58.208 92.02 57.268 92.02C56.908 92.02 56.608 92.12 56.388 92.3C56.148 92.48 55.868 92.8 55.548 93.28L51.528 99L47.488 93.28C47.148 92.8 46.868 92.46 46.648 92.28C46.428 92.12 46.128 92.02 45.768 92.02C45.288 92.02 44.928 92.16 44.708 92.44C44.468 92.72 44.368 93.12 44.368 93.62V104.58C44.368 105.1 44.468 105.48 44.708 105.76C44.928 106.04 45.288 106.18 45.768 106.18C46.708 106.18 47.188 105.66 47.188 104.58V97.26L49.888 101.06C50.208 101.54 50.468 101.88 50.668 102.04C50.868 102.22 51.148 102.3 51.508 102.3C51.848 102.3 52.128 102.22 52.328 102.06C52.528 101.9 52.788 101.56 53.148 101.06L55.868 97.24V104.58C55.868 105.1 55.968 105.48 56.208 105.76C56.448 106.04 56.788 106.18 57.268 106.18C58.208 106.18 58.688 105.66 58.688 104.58V93.62ZM68.2499 97.46C67.4699 96.6 66.3099 96.16 64.7899 96.16C64.1499 96.16 63.5899 96.26 63.0699 96.44C62.5499 96.62 62.1299 96.82 61.7699 97.06C61.3499 97.34 61.1499 97.72 61.1499 98.16C61.1499 98.48 61.2699 98.74 61.4699 98.96C61.6699 99.18 61.9099 99.28 62.2099 99.28C62.4699 99.28 62.7899 99.18 63.1499 98.98C63.4099 98.84 63.6699 98.74 63.9099 98.66C64.1499 98.58 64.4299 98.54 64.7699 98.54C65.3899 98.54 65.8699 98.7 66.2099 99C66.5299 99.32 66.7299 99.72 66.7899 100.24C66.1099 100.16 65.5499 100.12 65.0899 100.12C63.8499 100.12 62.8499 100.4 62.1299 100.96C61.4099 101.52 61.0499 102.3 61.0499 103.34C61.0499 104.18 61.3099 104.86 61.8499 105.4C62.3699 105.94 63.1499 106.2 64.1699 106.2C65.1499 106.2 66.0499 105.9 66.8699 105.3C67.0099 105.9 67.4099 106.2 68.0899 106.2C68.9699 106.2 69.4099 105.7 69.4099 104.7V101.02C69.4099 99.52 69.0099 98.34 68.2499 97.46ZM64.8899 104.02C64.0499 104.02 63.6499 103.72 63.6499 103.08C63.6499 102.76 63.7899 102.5 64.0699 102.32C64.3499 102.14 64.7899 102.04 65.3499 102.04C65.8099 102.04 66.2899 102.1 66.8099 102.2V103.4C66.0899 103.82 65.4499 104.02 64.8899 104.02ZM77.9015 96.48C77.7015 96.28 77.4215 96.16 77.0615 96.16C75.9615 96.16 75.1015 96.66 74.4815 97.66C74.4815 96.7 74.0415 96.2 73.1615 96.2C72.2815 96.2 71.8415 96.7 71.8415 97.68V104.68C71.8415 105.16 71.9415 105.54 72.1615 105.8C72.3615 106.06 72.7015 106.18 73.1615 106.18C73.6015 106.18 73.9415 106.06 74.1615 105.8C74.3615 105.54 74.4815 105.16 74.4815 104.68V101.32C74.4815 100.44 74.6815 99.76 75.0815 99.28C75.4815 98.8 76.0815 98.56 76.8615 98.56C77.7415 98.56 78.2015 98.16 78.2015 97.36C78.2015 97 78.1015 96.7 77.9015 96.48ZM88.4907 104L85.5907 100.38L87.5907 98.56C87.7907 98.36 87.9507 98.18 88.0507 97.98C88.1507 97.8 88.2107 97.58 88.2107 97.34C88.2107 97.06 88.1107 96.8 87.9107 96.56C87.7107 96.32 87.3907 96.2 86.9707 96.2C86.6107 96.2 86.2907 96.34 85.9907 96.6L82.4907 99.82V92.4C82.4907 91.42 82.0307 90.92 81.1507 90.92C80.2707 90.92 79.8307 91.42 79.8307 92.4V104.68C79.8307 105.16 79.9307 105.54 80.1507 105.8C80.3507 106.06 80.6907 106.18 81.1507 106.18C82.0307 106.18 82.4907 105.68 82.4907 104.68V103.18L83.8307 101.96L86.4307 105.46C86.6507 105.76 86.8507 105.96 87.0307 106.04C87.2107 106.14 87.4707 106.18 87.8107 106.18C88.1307 106.18 88.4107 106.08 88.6107 105.84C88.8107 105.6 88.9307 105.34 88.9307 105.06C88.9307 104.72 88.7707 104.36 88.4907 104Z" fill="white"/>
</g>
</g>
<g clip-path="url(#clip0)">
<path fill-rule="evenodd" clip-rule="evenodd" d="M129.644 98.2709C130.808 97.6631 131.945 97.0028 133.063 96.3155C133.851 95.8441 133.153 94.6567 132.346 95.0857C131.932 95.3052 131.521 95.5268 131.108 95.7449C131.433 95.4649 131.734 95.16 132.004 94.8278L131.986 94.8092C133.027 93.8759 131.69 92.1149 130.505 92.8815C129.461 93.6389 128.407 94.4116 127.208 94.9103C124.725 95.9636 121.986 96.1379 119.321 96.1683C118.346 96.095 117.415 96.264 116.468 96.4524C116.839 94.9634 117.768 93.8391 118.26 92.3971C118.624 90.9411 116.523 89.9494 115.778 91.3489C115.596 91.6925 115.421 92.0402 115.251 92.3895C113.642 93.8538 110.955 93.7248 109.332 95.297C108.407 96.1178 107.955 97.2315 107.776 98.3493C107.655 99.1083 107.844 99.8692 107.385 100.542C105.167 103.68 101.662 108.64 99.8826 112.094C98.6224 103.887 95.2577 93.736 91.7817 86.2317C90.6322 83.8317 89.3172 81.4866 87.591 79.4523C87.7866 78.7738 87.096 77.5696 86.6568 77.9403C85.305 76.2883 82.9154 75.8606 80.9939 75.0393C78.4001 73.9297 76.2481 71.6234 75.1902 69.0022C73.8309 64.0106 70.4849 63.3765 65.8444 63.5971C61.4034 63.5915 58.1175 65.4918 57.1485 70.0144C55.1799 73.4471 50.5318 72.8794 47.1878 73.7881C44.7371 74.3482 42.3587 75.2141 40.0984 76.3134C37.5839 73.9273 28.5782 83.9413 27.7596 86.5185C28.2415 86.612 28.7205 86.7245 29.1951 86.8615C29.6178 86.9838 29.4403 87.6225 29.014 87.5203C28.4835 87.3928 27.9495 87.305 27.4131 87.2441C27.3967 87.2955 27.3824 87.3465 27.3717 87.3969C27.3115 87.3928 27.2514 87.3877 27.1912 87.3836C27.3247 87.4531 27.4532 87.5338 27.5784 87.6379C27.8811 87.8893 27.487 88.3746 27.1654 88.1743C26.8623 87.9474 26.4654 87.9832 26.1019 87.9071C26.0803 88.6549 23.4131 87.8183 22.9988 87.5705C21.1575 87.3401 19.2632 87.5873 17.5442 86.699C15.2569 86.2171 12.9525 85.6842 10.691 85.0706C10.0923 85.304 9.52958 86.1396 10.0051 86.7527C10.2726 87.0317 9.92876 87.4873 9.59197 87.289C8.46238 86.6238 7.5888 85.5856 6.84817 84.467C6.49956 84.1152 5.88073 84.1909 5.41235 84.0448C5.34974 84.1574 5.31281 84.2828 5.31338 84.4115C3.32658 84.7386 4.74387 86.9094 5.74267 87.5858C5.21282 87.931 5.19271 88.6068 5.23907 89.1712C5.1268 89.3722 5.08931 89.6214 5.18703 89.8467C5.56064 90.708 6.36865 91.4333 6.98305 92.1311C7.66141 92.9018 8.26626 93.6767 9.09166 94.3014C12.2378 96.7006 16.0345 98.0419 19.9295 98.5664C21.3125 98.7789 23.3018 99.1042 24.1581 100.274C23.948 101.662 23.5622 102.994 23.2122 104.348C22.7228 106.145 22.7561 108.026 22.7496 109.859C22.6812 109.804 22.5499 109.815 22.5303 109.92C22.4165 110.679 22.3318 111.456 21.8704 112.094C21.4659 113.281 21.1967 114.546 21.0454 115.793C20.4396 121.704 20.2949 127.788 21.661 133.607C22.1881 135.765 23.0454 137.817 24.2135 139.706C24.5618 140.269 25.1217 140.434 25.6246 140.324C27.3074 141.198 29.4274 141.478 31.2412 141.256C37.425 139.505 35.2704 143.722 43.9406 142.431C58.9064 140.524 74.0308 144.271 88.9647 142.071C89.3326 144.913 94.1475 144.098 95.82 142.896C100.835 139.167 103.325 127.359 105.842 121.369C107.572 116.647 110.469 108.285 114.262 105.117C115.4 104.227 116.775 103.758 118.151 103.38C123.285 102.057 128.44 100.805 133.584 99.5179C134.457 99.303 134.3 97.8145 133.367 97.91C132.129 98.0367 130.887 98.1515 129.644 98.2709Z" fill="white"/>
<path fill-rule="evenodd" clip-rule="evenodd" d="M15.3396 97.3856C14.9918 97.3425 14.651 97.2185 14.3123 97.1208C13.7953 96.9696 13.2886 96.7934 12.7897 96.5922C11.7602 96.1797 10.7614 95.6919 9.82514 95.0951C8.31274 94.13 6.97646 92.8933 5.96857 91.4042L5.89938 91.3003C5.32398 90.4235 4.26259 88.4766 5.4527 87.8109C4.68567 87.1698 3.96072 86.0183 4.00162 85.1293C4.05957 83.8721 5.60038 83.8893 6.39692 84.4223C6.91848 84.7713 7.30936 85.2601 7.70138 85.741C8.13544 86.2752 8.59905 86.7844 9.08084 87.2744C9.20867 87.404 9.33778 87.531 9.46913 87.6559L9.60125 87.7802C9.5808 87.7314 9.56262 87.6814 9.54672 87.6301C9.28082 86.8015 9.59785 85.7228 10.4262 85.3431C10.9331 85.1106 11.4596 85.2525 11.9508 85.4499L12.0261 85.4806C12.6874 85.7545 13.3567 85.9967 14.0453 86.1911C16.8519 86.9834 19.7813 87.1153 22.6572 87.5109C23.7651 87.6643 24.8934 87.8574 25.9956 88.1416C26.416 86.3559 27.4467 84.644 28.5648 83.2356C33.919 76.4981 42.7491 74.2713 50.827 72.83C51.5633 72.6992 52.1735 73.6745 52.6019 73.4438C53.4143 73.0073 54.1291 72.3889 54.7563 71.7171C56.0937 70.2836 57.0425 68.5979 58.1572 67.0007C58.7083 66.2119 59.9764 66.9178 59.4651 67.7646L59.2146 68.1785C58.1832 69.8738 57.0411 71.6209 55.5619 72.9356C54.7756 73.6336 53.9029 74.1849 52.9053 74.5292C52.1496 74.7896 51.0895 75.009 50.2623 74.7566L50.163 74.6119C50.1958 74.6603 50.2289 74.7085 50.2622 74.7566C52.4212 77.8861 55.1301 80.5347 57.9844 83.0343C60.8656 85.556 63.9737 87.8142 67.1005 90.0221L67.3611 90.206C72.4551 86.489 76.7582 81.6408 79.7773 76.1015C79.1445 76.0253 78.5184 75.6196 77.9775 75.3171C77.3264 74.9512 76.7139 74.5145 76.2367 73.9325C75.197 72.6651 75.3322 71.0316 75.1447 69.4936C75.1334 69.3981 75.2595 69.3742 75.3175 69.422C75.8811 69.8903 76.0788 70.6576 76.314 71.3203C76.573 72.049 76.8662 72.6493 77.4605 73.1618C78.0139 73.6394 78.6888 73.9905 79.3445 74.3031C79.6826 74.4635 81.361 74.8757 81.5522 75.2171C84.4521 74.5362 87.2769 75.7127 89.4256 77.6974C91.5016 79.6151 93.0254 82.108 94.3708 84.569C95.8059 87.1948 96.9819 89.932 97.9955 92.7454C99.0227 95.601 99.8102 98.519 100.243 101.525C100.609 104.058 100.833 106.632 100.978 109.194L100.995 109.515C103.141 106.146 105.339 102.814 107.583 99.5102C107.073 98.1472 107.638 96.7559 108.594 95.7033C109.653 94.5381 111.117 93.997 112.518 93.3673L112.703 93.2839C113.378 92.9758 114.051 92.6365 114.634 92.1748C115.195 91.7292 115.608 91.1154 116.199 90.7051C117.058 90.1071 118.617 90.2344 118.657 91.5406C118.677 92.2579 118.369 93.0445 118.087 93.689C117.768 94.4177 117.337 95.0781 116.826 95.6851C116.802 95.7134 116.777 95.7357 116.75 95.7534L116.731 95.7658C117.437 95.8829 118.15 95.9772 118.876 96.0102C120.341 96.0773 121.821 95.9693 123.255 95.6601C124.723 95.3441 126.146 94.8304 127.466 94.1141C128.595 93.5026 129.64 92.7114 130.922 92.525C131.04 92.5068 131.159 92.4954 131.282 92.4886C131.486 92.4772 131.691 92.7182 131.61 92.9205C131.566 93.032 131.519 93.1422 131.468 93.2536C131.025 94.23 130.345 95.1773 129.498 95.8962L129.432 95.9511C129.731 95.8476 130.025 95.7317 130.315 95.601C132.018 94.8337 133.564 93.6742 135.39 93.2082C135.476 93.1854 135.564 93.1649 135.651 93.1456C136.216 93.024 136.513 93.6378 136.182 94.0584C136.128 94.1266 136.075 94.1937 136.019 94.2608C135.204 95.2724 134.306 96.2114 133.315 97.0548C132.975 97.3435 132.625 97.6232 132.268 97.8904C132.118 98.0037 131.967 98.1144 131.814 98.2234L131.739 98.2768C131.917 98.1507 132.093 98.0223 132.268 97.8904C133.386 97.5516 134.489 97.1503 135.567 96.7059C135.995 96.5296 136.328 96.9639 136.374 97.3208C136.526 98.5168 135.199 99.3818 134.335 99.9569C133.469 100.534 132.516 100.973 131.54 101.326C129.663 102.004 127.692 102.312 125.724 102.588L124.768 102.721C120.985 103.251 117.033 103.883 114.318 106.829C112.797 108.479 111.767 110.53 110.825 112.547C109.884 114.563 109.058 116.632 108.274 118.712C107.462 120.865 106.754 123.058 106.002 125.232C105.311 127.229 104.486 129.2 103.668 131.151L103.539 131.459C101.804 135.606 99.7317 139.512 96.8433 142.974C96.3672 143.546 95.5979 142.735 96.0377 142.168C99.059 138.272 101.161 133.674 102.896 129.087C103.686 127 104.347 124.863 105.106 122.764L105.558 121.518C106.161 119.856 106.769 118.196 107.404 116.548C108.207 114.462 109.09 112.401 110.1 110.407L110.208 110.197C111.197 108.273 112.372 106.378 113.989 104.922C116.9 102.301 120.773 101.672 124.518 101.174L125.696 101.019C127.28 100.808 128.867 100.576 130.407 100.152C131.296 99.9093 132.164 99.5977 132.98 99.168C133.305 98.9975 133.622 98.81 133.928 98.6054C133.053 98.8623 132.166 99.0725 131.263 99.2373C130.821 99.3181 130.383 99.3784 129.947 99.4205C128.823 99.5317 127.708 99.5272 126.557 99.467C126.46 99.4612 126.428 99.3079 126.532 99.2886C127.334 99.146 128.136 98.9677 128.936 98.7742L129.175 98.7156C129.18 98.5827 129.232 98.4416 129.341 98.3076C129.739 97.8234 130.495 97.5754 131.018 97.2333C131.567 96.8752 132.099 96.4888 132.606 96.075C133.069 95.6965 133.515 95.2963 133.943 94.8781L134.072 94.7518C134.029 94.7941 133.986 94.8361 133.943 94.878C132.786 95.4124 131.69 96.0977 130.482 96.5207C129.522 96.8582 128.515 97.0856 127.499 97.1663L127.436 97.1712L127.373 97.1754C126.313 97.2515 125.246 97.2208 124.202 97.4505C124.085 97.4766 124.048 97.3197 124.153 97.2754C125.065 96.8957 126.014 96.7491 126.973 96.5718C126.994 96.4967 127.046 96.4296 127.137 96.3864L127.382 96.2692C128.113 95.9182 128.794 95.5638 129.401 94.9939C129.938 94.4904 130.384 93.9016 130.719 93.2491C129.378 93.5435 128.199 94.5609 126.979 95.1326C125.649 95.7567 124.243 96.2046 122.797 96.4593L122.633 96.4875C119.932 96.9383 116.684 96.8808 114.264 95.4759C114.186 95.4305 114.242 95.3271 114.322 95.3395C115.008 95.4521 115.688 95.5851 116.367 95.7033C116.234 95.5816 116.175 95.3634 116.328 95.1883C116.939 94.4887 117.421 93.689 117.73 92.8139L117.789 92.6428C117.931 92.2369 118.171 91.6066 117.926 91.2405C117.692 90.8915 117.141 90.9392 116.811 91.087C116.126 91.3962 115.67 92.1681 115.093 92.6341C114.464 93.1433 113.748 93.5207 113.015 93.8584L112.86 93.9287C111.593 94.4991 110.238 94.9794 109.241 95.9863C108.705 96.5274 108.244 97.2038 108.089 97.962C108.019 98.3098 108.019 98.6679 108.112 99.0123C108.186 99.2817 108.34 99.4478 108.252 99.7216C108.136 100.075 107.726 100.498 107.514 100.813C107.269 101.177 107.024 101.542 106.78 101.906C106.293 102.636 105.807 103.368 105.322 104.099C104.352 105.563 103.392 107.034 102.44 108.51C102.13 108.99 101.821 109.471 101.513 109.953L101.052 110.675L100.809 111.056L100.393 111.71C100.408 111.77 100.407 111.834 100.387 111.889C100.317 112.091 100.184 112.229 100.019 112.329L99.9897 112.346C97.5648 116.18 95.1786 120.04 92.7686 123.883C92.6402 125.056 92.5197 126.23 92.4152 127.404C92.1777 130.062 92.0152 132.727 91.9629 135.395C91.9379 136.686 92.0413 137.985 92.097 139.275C92.1243 139.891 92.1616 140.506 92.2103 141.121L92.2462 141.557C92.2942 142.156 92.3214 142.75 92.1061 143.321C91.9152 143.822 91.3334 143.935 90.9891 143.553C86.4974 143.372 82.0022 143.235 77.5071 143.149C69.461 142.995 61.4115 143.019 53.3643 143.174C49.3225 143.253 45.2796 143.363 41.239 143.5C39.2482 143.565 37.2563 143.659 35.2644 143.686C34.1912 143.701 32.5021 143.31 32.4155 142.102L32.4134 142.065C32.2793 142.101 32.1407 142.131 31.9987 142.152C31.9354 142.162 31.8747 142.159 31.8186 142.146L31.7907 142.139C30.191 142.627 28.1674 141.931 26.6473 141.525L26.5218 141.492C25.0707 141.113 23.9049 140.572 22.9538 139.37C21.2892 137.263 20.721 134.435 20.4256 131.829C20.1483 129.376 20.1324 126.877 20.4699 124.429C20.271 122.434 20.4653 120.375 20.6915 118.391C20.8028 117.41 20.9335 116.43 21.0903 115.455C21.1778 114.911 21.2926 114.372 21.4096 113.834C21.4563 113.619 21.4952 113.388 21.5545 113.164L21.5812 113.069C21.3994 113.093 21.2005 113.053 21.0085 112.948C20.5517 112.696 20.4187 112.188 20.4108 111.702C20.3858 110.235 20.5608 108.727 20.7153 107.27C20.871 105.815 21.0846 104.354 21.3641 102.917L21.4365 102.546C21.6483 101.472 21.8906 100.362 22.3175 99.3522C20.7142 99.0794 19.1154 98.7896 17.5599 98.2961C16.8008 98.054 16.0531 97.7529 15.3396 97.3856ZM99.0227 112.646C98.9977 112.652 98.9738 112.659 98.95 112.666C98.3091 112.845 97.6614 112.998 97.016 113.161C95.9002 113.442 94.8093 113.756 93.7719 114.243C93.5546 116.988 93.2324 119.723 92.9261 122.459L92.8651 123.007C93.3356 122.133 93.8173 121.267 94.3207 120.411C95.8536 117.803 97.4217 115.214 99.0227 112.646ZM21.972 112.918C21.9755 113.244 21.9073 113.583 21.8709 113.897C21.8118 114.406 21.7641 114.918 21.7039 115.427C21.5812 116.45 21.4766 117.474 21.4005 118.502C21.3516 119.158 21.3198 119.816 21.2914 120.474C21.9357 118.065 22.7891 115.709 23.6004 113.349C23.4648 113.334 23.3261 113.301 23.1831 113.263L22.9424 113.198C22.8004 113.162 22.3399 113.049 21.972 112.918ZM101.052 110.675L101.057 110.783C101.074 111.166 100.844 111.382 100.566 111.438C100.727 111.183 100.89 110.929 101.052 110.675ZM27.3296 92.5194C28.008 92.5795 28.6727 92.724 29.3068 92.9741L29.368 92.9979C29.8369 93.179 30.5226 93.4066 30.676 93.9073C30.7192 94.0494 30.6033 94.1664 30.4704 94.1779C29.9613 94.2188 29.3613 93.673 28.8898 93.4889C28.3648 93.2843 27.8148 93.1319 27.2581 93.0512C26.007 92.8682 24.7025 93.007 23.5253 93.4628C23.456 93.4901 23.4129 93.3798 23.4754 93.3468C24.6616 92.7011 25.9809 92.4 27.3296 92.5194ZM12.9545 95.7703C12.876 95.701 12.7976 95.6282 12.7204 95.5556C12.1111 94.979 11.5717 94.3062 11.1722 93.5668L11.0671 93.3667C10.7418 92.7365 10.3423 91.8388 11.1068 91.3848C11.5636 91.1132 12.1136 91.1813 12.6226 91.3461C12.6556 91.3564 12.6885 91.3679 12.7215 91.3791C12.9488 91.4588 13.1681 91.5542 13.3635 91.6451C14.2123 92.035 14.9611 92.6022 15.7452 93.1025C16.5947 93.6447 17.4335 93.9914 18.414 94.1944L18.5063 94.213C19.4267 94.395 20.4244 94.512 21.0664 95.269C21.2278 95.4601 21.08 95.8181 20.8017 95.7237C19.0268 95.1248 17.1485 94.9928 15.519 94.0095C14.8441 93.6026 14.2055 93.1355 13.5158 92.75C13.1499 92.5452 12.7721 92.3662 12.3695 92.2435L12.1496 92.1786C12.0208 92.141 11.867 92.1038 11.7636 92.1408C11.5668 92.209 11.6296 92.3144 11.6905 92.4983L11.6966 92.517C12.1749 93.9971 13.5385 95.236 14.802 96.0556C15.0918 96.2443 15.3884 96.4172 15.6906 96.5775C17.7366 97.6684 20.0258 98.1762 22.2742 98.7789C23.1409 99.0209 23.7178 99.1874 24.0049 99.2783C24.4844 99.2384 25.031 99.4079 25.3923 99.6103C25.7434 99.8068 26.0263 100.071 26.24 100.381C26.24 100.381 26.4456 100.553 26.4831 100.819C26.5911 101.065 26.6638 101.331 26.7002 101.609C26.7206 101.771 26.6797 101.896 26.6024 101.985C26.8349 105.553 25.8713 109.102 24.7851 112.493L24.6774 112.828L24.6083 113.04C23.4367 116.635 22.0925 120.205 21.4925 123.953C21.0914 126.458 21.1039 129.049 21.3982 131.565L21.419 131.738C21.709 134.117 22.2669 136.785 23.7788 138.699C24.5499 139.676 25.4636 140.11 26.6317 140.425L26.6956 140.442C27.7524 140.72 28.8432 141.115 29.9329 141.234C30.9442 141.344 31.7919 140.968 32.702 140.616L32.7032 140.615C34.6201 138.917 35.4905 136.446 36.1336 133.952C37.8006 127.498 37.5938 120.798 36.6484 114.249C36.1552 110.828 35.4848 107.436 34.8167 104.045C34.4826 102.35 34.1224 100.658 33.8236 98.9578L33.6461 97.9569C33.5481 97.4009 33.4534 96.8444 33.3724 96.2853C33.2634 95.5339 33.2304 94.7951 33.1929 94.0391C32.2748 92.517 30.9419 91.2632 29.3977 90.3641C28.2921 89.7195 27.1217 89.2728 25.9138 88.9488C22.4606 88.0178 18.6961 88.0838 15.2213 87.3676C14.054 87.1273 12.946 86.7705 11.8385 86.343L11.6875 86.2843C11.1796 86.0865 10.6614 85.9763 10.4092 86.5753C10.2296 87.0016 10.3364 87.4449 10.6057 87.803C11.2659 88.6806 12.5931 89.0875 13.5919 89.4035C14.193 89.5945 14.8066 89.7457 15.427 89.8582C16.0474 89.9707 16.6701 89.9992 17.2655 90.2186C17.4951 90.3027 17.5405 90.6676 17.2655 90.7322C16.511 90.9086 15.752 90.7574 15.002 90.6107C14.1782 90.4481 13.3669 90.2174 12.5783 89.9253C12.4329 89.8716 12.2824 89.8151 12.1291 89.7549L12.0136 89.7092C12.1329 89.7958 12.2522 89.881 12.3727 89.9663C12.4045 89.9889 12.3852 90.0491 12.3431 90.0344C10.4889 89.3424 8.80182 88.0938 7.49484 86.6165L7.42981 86.5424C6.96961 86.0149 5.92082 84.4189 5.03678 84.8634C4.20665 85.2802 5.62173 86.8872 6.15951 87.5442L6.22195 87.6212C6.83328 87.6371 7.42529 88.0178 7.92071 88.3247C8.78088 88.8579 9.67968 89.3172 10.5955 89.7467C12.4159 90.6027 14.3487 91.2064 16.1497 92.1055C16.1736 92.1181 16.1554 92.1487 16.1327 92.1454C14.9862 91.9622 13.8521 91.6701 12.7443 91.3076L12.6948 91.2921L12.6454 91.2756C11.9534 91.0483 11.2705 90.7915 10.5989 90.5174C9.8524 90.2129 9.1229 89.8708 8.41499 89.4831C7.77413 89.133 7.06281 88.5021 6.31968 88.4089C6.24014 88.3987 6.16969 88.3974 6.10833 88.4032C5.25498 88.4748 5.96062 89.8889 6.19924 90.3118C6.58899 91.0063 7.05941 91.6474 7.59915 92.2328C8.6934 93.4219 10.0194 94.3642 11.4546 95.0974C11.9443 95.3475 12.4454 95.568 12.9545 95.7703Z" fill="#22C55E"/>
<path fill-rule="evenodd" clip-rule="evenodd" d="M67.1539 22.4398C73.6058 22.4398 81.9341 26.4886 82.6443 30.6353C83.4812 35.5221 87.9628 54.2734 86.9508 60.2866C85.9388 66.2999 80.4853 70.6287 71.7588 70.6287C63.0323 70.6287 56.5189 65.8679 55.0233 64.2333C54.0263 63.1435 52.604 60.6532 50.7563 56.7625C47.6414 56.3481 46.0764 54.8708 46.0614 52.3307C46.0469 49.7905 47.0596 48.0584 49.0995 47.1342C48.3722 37.1098 48.9244 30.7926 50.7563 28.1828C53.504 24.2679 60.702 22.4398 67.1539 22.4398Z" fill="white"/>
<path fill-rule="evenodd" clip-rule="evenodd" d="M82.2495 29.9662C82.2448 29.8788 82.3721 29.8685 82.3959 29.9458C83.7879 34.5462 84.6459 38.1313 85.5491 42.8478L85.8159 44.2352C86.5287 47.9356 87.2489 51.6414 87.8571 55.3598L87.8928 55.5818C88.1974 57.5066 88.373 59.4501 87.9911 61.3788C87.6343 63.1817 86.6594 64.8345 85.3936 66.1508C82.9471 68.6949 79.5473 70.284 76.1271 70.9944C74.3977 71.3536 72.6137 71.4923 70.8513 71.3673C69.9729 71.3058 69.0958 71.1819 68.2356 70.999L68.1406 70.9787C67.2736 70.7914 66.5041 70.568 66.0436 69.7519C65.9278 69.5462 65.9744 69.1939 66.2176 69.0881C66.6766 68.8902 67.0141 68.8074 67.5151 68.8642C67.9935 68.9186 68.4606 69.0631 68.9333 69.1529C69.8366 69.3246 70.7548 69.4109 71.674 69.4314C73.4796 69.4712 75.2897 69.245 77.0157 68.7062C79.9813 67.7798 82.9949 66.0076 84.7277 63.3567C86.7661 60.2383 85.9544 56.4537 85.4143 53.0098L85.398 52.9056C84.8512 49.3856 84.3105 45.8655 83.7857 42.3432L83.5618 40.8335C82.9733 36.8447 82.4176 33.9972 82.2495 29.9662ZM52.1389 20.2029C53.6191 19.2269 55.4584 18.9871 57.1969 19.0005L57.4146 19.0033C59.6408 19.0372 70.8465 19.304 74.5983 19.3861L75.4908 19.4049C76.6721 19.4272 79.0546 19.4505 80.2821 19.4729L80.353 19.4742C80.9552 19.4856 81.5574 19.4901 82.1597 19.5095L82.248 19.5126C82.6991 19.5319 83.0745 19.5994 83.4278 19.9176C83.6074 20.0788 83.6776 20.3247 83.6611 20.5589L83.6584 20.5894L84.5527 20.6678C85.1599 20.7215 85.481 21.2663 85.2398 21.8176L85.2277 21.8443C84.7993 22.7582 84.472 25.4182 84.2425 26.4015C84.1221 26.9187 84.0253 27.4439 83.9685 27.9725C83.9232 28.3886 83.9187 28.8057 83.6868 29.1717C83.1924 29.9526 81.8017 29.9458 81.7767 28.8398C81.7756 28.8045 81.7767 28.7704 81.7802 28.7375C78.2804 28.584 73.5023 28.5988 70.0071 28.808C66.7425 29.0035 63.4927 29.4468 60.2941 30.1254C59.4839 30.2971 58.676 30.4846 57.8738 30.6881C57.2158 30.8541 56.4079 30.953 55.8193 31.3088C55.1603 31.7089 55.1728 32.4262 55.2444 33.1094C55.3212 33.8335 55.4493 33.4604 55.6309 34.1203L55.6421 34.162C55.8296 34.8781 56.0614 35.5863 56.3682 36.2592C56.5432 36.6435 56.8251 37.0129 56.7182 37.4551C56.6579 37.704 56.4612 37.97 56.2807 38.1439C55.4579 38.934 54.0672 38.4304 53.5081 39.5126C52.9231 40.6442 52.9085 42.1771 52.8589 43.4292L52.8559 43.5025C52.8197 44.3653 52.8298 45.2304 52.8866 46.0909C52.9377 46.8751 53.1467 47.6516 52.8786 48.4053C52.6831 48.9532 52.0446 49.0043 51.7105 48.5587C51.6722 48.5076 51.637 48.4551 51.6041 48.4024L51.5719 48.3496L51.5697 48.3507C51.6014 48.4007 51.631 48.452 51.6594 48.5041C51.6901 48.5621 51.6139 48.6258 51.5674 48.5758C50.781 47.7198 49.6323 47.8903 48.7425 48.4894C47.8415 49.0987 47.4858 50.2559 47.4392 51.2938C47.3869 52.4451 47.4892 53.7946 47.9687 54.8585C48.171 55.3086 48.4595 55.7224 48.938 55.8941C49.1551 55.9713 49.3618 55.9611 49.5879 55.9793C49.823 55.9974 50.1061 56.1157 50.3344 56.0998C50.6312 56.0787 50.8976 56.4176 50.8133 56.7016L50.8072 56.7205C50.8027 56.7341 50.7981 56.7477 50.7937 56.7602C50.8049 56.7705 50.8163 56.783 50.8242 56.8012C51.6878 58.5665 52.8718 60.1375 54.1808 61.5948C54.8366 62.3234 55.5637 62.993 56.3239 63.6125C56.6988 63.9183 57.0943 64.2242 57.5113 64.4707C57.6499 64.5513 57.7771 64.606 57.933 64.6504C58.0056 64.6708 58.0885 64.681 58.159 64.7049L58.2321 64.7299C58.2371 64.7316 58.2419 64.7331 58.2465 64.7344C58.4555 64.7583 58.6317 64.897 58.701 65.1141C58.8816 65.6802 58.5533 66.1804 57.9919 66.3361C57.3838 66.5062 56.8106 66.2075 56.3286 65.8645L56.2966 65.8416C55.3137 65.1335 54.4081 64.3389 53.624 63.4113C52.073 61.58 51.1014 59.46 50.6516 57.1149C50.5401 57.3548 50.3902 57.5639 50.1299 57.7094C49.7254 57.9368 49.2425 57.9368 48.7994 57.8606C47.9074 57.7094 47.1472 57.1649 46.6393 56.4283C46.1119 55.6644 45.9154 54.7369 45.7961 53.8332C45.678 52.9282 45.62 52.0201 45.7382 51.1129C45.9076 49.8103 46.4541 48.5223 47.5165 47.8085C46.7211 46.0749 46.5813 44.1311 46.6381 42.2328C46.7074 39.8957 47.1108 37.5324 47.421 35.2169L48.3029 28.634L48.339 28.3687C48.5518 26.82 48.8109 25.2632 49.3902 23.804C49.9618 22.3661 50.8299 21.0657 52.1389 20.2029ZM48.4278 51.3448C49.8845 50.6378 51.4583 51.2891 52.2423 52.6612C52.924 53.854 50.8972 54.6425 50.559 53.4129L50.5493 53.375C50.3265 52.444 49.4197 51.6392 48.4733 51.5142C48.3949 51.5029 48.3368 51.3893 48.4278 51.3448Z" fill="#22C55E"/>
<path fill-rule="evenodd" clip-rule="evenodd" d="M74.3746 62.4149C73.6107 62.1032 72.9292 61.5832 72.4309 60.9189C72.2577 60.688 72.2127 60.4442 72.2491 60.2211C72.2899 59.9704 72.4383 59.7431 72.6405 59.5906C72.8434 59.4377 73.0972 59.3623 73.3425 59.4007C73.5558 59.4341 73.768 59.5509 73.9359 59.7931L73.971 59.8415C74.2673 60.2424 74.6533 60.5714 75.0931 60.7834C75.5171 60.9878 75.9912 61.0832 76.4818 61.0277C77.4163 60.9221 78.0604 60.4165 78.745 59.73C78.8298 59.6433 78.9147 59.5539 79.0001 59.4631C79.0539 59.3807 79.1287 59.3278 79.2117 59.3C79.3039 59.2692 79.4082 59.2709 79.5037 59.3043C79.5958 59.3365 79.6782 59.3974 79.7334 59.4785C79.7859 59.5556 79.8156 59.6508 79.806 59.7604C79.7433 60.4719 79.3715 61.1069 78.8433 61.6054C78.2567 62.1592 77.4791 62.5423 76.7471 62.6767C75.9405 62.8247 75.1187 62.7186 74.3746 62.4149ZM77.1275 51.4387C77.9856 51.9605 79.293 53.1771 78.3699 54.4706C77.2834 55.6112 75.719 54.3035 74.9481 53.712C74.2333 53.2537 73.4302 54.4325 74.0934 54.9678C79.6639 59.0936 81.9245 51.5751 77.5615 50.8252C77.0811 50.7426 76.9027 51.2773 77.1275 51.4387ZM67.1451 46.6393C67.2399 45.4621 69.0321 45.1947 69.2104 46.3597C69.3701 47.4032 69.1821 48.3618 68.7123 49.3013C68.2633 50.1989 67.1349 49.7801 67.0496 48.9628C66.9352 47.8672 67.0861 47.3716 67.1451 46.6393ZM80.7878 46.1181C81.0377 45.7907 81.3985 45.5673 81.8307 45.6936C83.1812 46.0883 82.7831 48.0064 82.3089 48.94C82.0511 49.4469 81.2181 49.5755 80.8417 49.1291C80.2281 48.4011 79.9342 46.9474 80.7143 46.2303C80.7354 46.1933 80.759 46.1559 80.7878 46.1181ZM68.6933 41.4881L68.9066 41.4507C69.5665 41.3366 70.3871 41.2269 70.8539 41.7576C71.1015 42.0391 71.1867 42.5622 70.8539 42.8316C70.2685 43.3056 69.6213 43.1219 68.9197 43.162C68.3416 43.1952 67.7859 43.291 67.229 43.4502C66.0073 43.7995 65.0118 44.4372 63.9683 45.1375C63.8314 45.2293 63.6917 45.0541 63.757 44.926C64.3593 43.7458 65.5266 42.7762 66.6959 42.1853C67.3199 41.8698 68.0028 41.6081 68.6933 41.4881ZM79.5568 40.9594L79.72 40.9928C81.4969 41.3644 83.8054 42.1066 84.6468 43.8525C84.6789 44.0994 84.645 44.1523 84.6175 44.1869L84.6083 44.1984C84.5856 44.2279 84.5675 44.2686 84.4605 44.3022C84.4308 44.2952 84.4008 44.2877 84.3706 44.2797C83.9849 44.1786 83.6797 44.0393 83.3843 43.8948L83.064 43.7369C82.6923 43.5546 82.3174 43.3789 81.9201 43.2493C81.0722 42.9726 80.2 42.7777 79.3144 42.6736C79.1224 42.6511 78.9376 42.5863 78.7917 42.4752C78.6533 42.3698 78.5476 42.2238 78.4993 42.0298C78.4369 41.7786 78.4548 41.5885 78.5895 41.362C78.6908 41.1919 78.8357 41.0739 79.0021 41.0062C79.1717 40.9372 79.3648 40.9209 79.5568 40.9594Z" fill="#22C55E"/>
</g>
<defs>
<filter id="filter0_dd" x="6" y="0" width="120" height="120" filterUnits="userSpaceOnUse" color-interpolation-filters="sRGB">
<feFlood flood-opacity="0" result="BackgroundImageFix"/>
<feColorMatrix in="SourceAlpha" type="matrix" values="0 0 0 0 0 0 0 0 0 0 0 0 0 0 0 0 0 0 127 0"/>
<feOffset dy="8"/>
<feGaussianBlur stdDeviation="8"/>
<feColorMatrix type="matrix" values="0 0 0 0 0.505882 0 0 0 0 0.243137 0 0 0 0 0.752941 0 0 0 0.08 0"/>
<feBlend mode="normal" in2="BackgroundImageFix" result="effect1_dropShadow"/>
<feColorMatrix in="SourceAlpha" type="matrix" values="0 0 0 0 0 0 0 0 0 0 0 0 0 0 0 0 0 0 127 0"/>
<feOffset dy="4"/>
<feGaussianBlur stdDeviation="4"/>
<feColorMatrix type="matrix" values="0 0 0 0 0.301961 0 0 0 0 0.145098 0 0 0 0 0.45098 0 0 0 0.08 0"/>
<feBlend mode="normal" in2="effect1_dropShadow" result="effect2_dropShadow"/>
<feBlend mode="normal" in="SourceGraphic" in2="effect2_dropShadow" result="shape"/>
</filter>
<filter id="filter1_dd" x="-7.5" y="65" width="147" height="100" filterUnits="userSpaceOnUse" color-interpolation-filters="sRGB">
<feFlood flood-opacity="0" result="BackgroundImageFix"/>
<feColorMatrix in="SourceAlpha" type="matrix" values="0 0 0 0 0 0 0 0 0 0 0 0 0 0 0 0 0 0 127 0"/>
<feOffset dy="16"/>
<feGaussianBlur stdDeviation="16"/>
<feColorMatrix type="matrix" values="0 0 0 0 0.0235294 0 0 0 0 0.588235 0 0 0 0 0.592157 0 0 0 0.12 0"/>
<feBlend mode="normal" in2="BackgroundImageFix" result="effect1_dropShadow"/>
<feColorMatrix in="SourceAlpha" type="matrix" values="0 0 0 0 0 0 0 0 0 0 0 0 0 0 0 0 0 0 127 0"/>
<feOffset dy="8"/>
<feGaussianBlur stdDeviation="8"/>
<feColorMatrix type="matrix" values="0 0 0 0 0.0156863 0 0 0 0 0.376471 0 0 0 0 0.380392 0 0 0 0.12 0"/>
<feBlend mode="normal" in2="effect1_dropShadow" result="effect2_dropShadow"/>
<feBlend mode="normal" in="SourceGraphic" in2="effect2_dropShadow" result="shape"/>
</filter>
<filter id="filter2_i" x="32.5" y="83" width="67" height="30" filterUnits="userSpaceOnUse" color-interpolation-filters="sRGB">
<feFlood flood-opacity="0" result="BackgroundImageFix"/>
<feBlend mode="normal" in="SourceGraphic" in2="BackgroundImageFix" result="shape"/>
<feColorMatrix in="SourceAlpha" type="matrix" values="0 0 0 0 0 0 0 0 0 0 0 0 0 0 0 0 0 0 127 0" result="hardAlpha"/>
<feOffset dy="-2"/>
<feGaussianBlur stdDeviation="2"/>
<feComposite in2="hardAlpha" operator="arithmetic" k2="-1" k3="1"/>
<feColorMatrix type="matrix" values="0 0 0 0 0 0 0 0 0 0 0 0 0 0 0 0 0 0 0.9 0"/>
<feBlend mode="soft-light" in2="shape" result="effect1_innerShadow"/>
</filter>
<clipPath id="clip0">
<rect x="26" y="12" width="80" height="80" rx="40" fill="white"/>
</clipPath>
</defs>
</svg>
