<svg width="53" height="52" viewBox="0 0 53 52" fill="none" xmlns="http://www.w3.org/2000/svg">
<path d="M51.7695 22.0597C51.5514 21.7462 51.3023 21.4541 51.0258 21.1876L44.6824 14.9508L31.5862 2.07381C30.9677 1.46339 30.2305 0.978635 29.4174 0.647756C28.6044 0.316878 27.7317 0.146484 26.8503 0.146484C25.9689 0.146484 25.0963 0.316878 24.2832 0.647756C23.4702 0.978635 22.733 1.46339 22.1145 2.07381L9.01888 14.9508L2.67554 21.1876C2.40398 21.4585 2.15526 21.7501 1.93177 22.0597C1.02548 23.3293 0.603992 24.8668 0.740159 26.4064C0.876326 27.946 1.56159 29.3911 2.67751 30.4917L22.1262 49.615C22.7448 50.2254 23.482 50.7102 24.295 51.0411C25.1081 51.372 25.9807 51.5424 26.8621 51.5424C27.7435 51.5424 28.6162 51.372 29.4292 51.0411C30.2422 50.7102 30.9795 50.2254 31.598 49.615L51.0467 30.4917C52.1534 29.3851 52.8305 27.9395 52.9623 26.4016C53.0941 24.8637 52.6725 23.329 51.7695 22.0597Z" fill="#9B4BE6"/>
</svg>
