<svg width="128" height="161" viewBox="0 0 128 161" fill="none" xmlns="http://www.w3.org/2000/svg">
<g filter="url(#filter0_dd)">
<rect x="20" y="12" width="80" height="80" rx="40" fill="#FEF2F2"/>
<rect x="18" y="10" width="84" height="84" rx="42" stroke="#EF4444" stroke-width="4"/>
</g>
<g filter="url(#filter1_dd)">
<g filter="url(#filter2_i)">
<path d="M33 99C33 91.268 39.268 85 47 85H73C80.732 85 87 91.268 87 99V99C87 106.732 80.732 113 73 113H47C39.268 113 33 106.732 33 99V99Z" fill="#EF4444"/>
<path d="M40.9748 105.78C41.7748 106.06 42.6948 106.2 43.7348 106.2C44.8748 106.2 45.8548 106.02 46.6948 105.64C47.5348 105.26 48.1748 104.74 48.6148 104.08C49.0548 103.42 49.2748 102.68 49.2748 101.84C49.2748 100.68 48.9148 99.8 48.2348 99.16C47.5548 98.54 46.4948 98.08 45.0748 97.8L43.3948 97.48C42.8148 97.36 42.3948 97.2 42.1548 96.98C41.8948 96.78 41.7748 96.48 41.7748 96.1C41.7748 95.66 41.9548 95.32 42.3148 95.04C42.6748 94.78 43.2348 94.64 43.9548 94.64C44.5348 94.64 45.0548 94.72 45.4948 94.88C45.9348 95.04 46.3348 95.26 46.7148 95.52C46.9948 95.7 47.2548 95.78 47.5148 95.78C47.8348 95.78 48.0948 95.68 48.3348 95.46C48.5748 95.24 48.6948 94.92 48.6948 94.48C48.6948 94 48.4348 93.56 47.9148 93.18C46.8348 92.4 45.5148 92 43.9548 92C42.8748 92 41.9348 92.2 41.1748 92.6C40.3948 93 39.8148 93.5 39.4148 94.14C39.0148 94.78 38.8348 95.44 38.8348 96.16C38.8348 97.26 39.1148 98.12 39.6748 98.72C40.2348 99.32 41.1748 99.76 42.4948 100L44.1348 100.32C44.8948 100.48 45.4548 100.66 45.7948 100.9C46.1348 101.14 46.3148 101.48 46.3148 101.9C46.3148 103 45.4548 103.54 43.7548 103.54C43.0748 103.54 42.4948 103.46 42.0148 103.26C41.5348 103.06 41.0348 102.78 40.5348 102.4C40.1548 102.16 39.8348 102.04 39.5948 102.04C39.2348 102.04 38.9348 102.16 38.6948 102.4C38.4548 102.64 38.3348 102.94 38.3348 103.32C38.3348 103.78 38.5548 104.22 38.9948 104.62C39.5148 105.1 40.1748 105.5 40.9748 105.78ZM51.6357 93.98C51.9157 94.28 52.2957 94.42 52.7357 94.42C53.1757 94.42 53.5557 94.28 53.8357 93.98C54.1157 93.7 54.2757 93.32 54.2757 92.88C54.2757 92.44 54.1157 92.08 53.8357 91.78C53.5557 91.5 53.1757 91.34 52.7357 91.34C52.2957 91.34 51.9157 91.5 51.6357 91.78C51.3557 92.08 51.2157 92.44 51.2157 92.88C51.2157 93.32 51.3557 93.7 51.6357 93.98ZM51.7357 105.8C51.9357 106.06 52.2757 106.18 52.7357 106.18C53.6157 106.18 54.0757 105.68 54.0757 104.68V97.68C54.0757 96.7 53.6157 96.2 52.7357 96.2C51.8557 96.2 51.4157 96.7 51.4157 97.68V104.68C51.4157 105.16 51.5157 105.54 51.7357 105.8ZM72.1887 101.12C72.1887 97.82 70.8087 96.16 68.0487 96.16C67.2487 96.16 66.5687 96.32 66.0287 96.64C65.4687 96.96 65.0687 97.42 64.7887 97.98C64.5687 97.44 64.2087 97 63.6887 96.66C63.1687 96.34 62.5687 96.16 61.9087 96.16C60.8287 96.16 59.9687 96.56 59.3287 97.34C59.2487 96.58 58.8087 96.2 58.0287 96.2C57.5887 96.2 57.2487 96.34 57.0287 96.6C56.8087 96.86 56.7087 97.22 56.7087 97.68V104.68C56.7087 105.68 57.1487 106.18 58.0287 106.18C58.9087 106.18 59.3487 105.68 59.3487 104.68V101.28C59.3487 100.4 59.4887 99.72 59.7887 99.26C60.0687 98.8 60.5687 98.56 61.2487 98.56C61.9487 98.56 62.4287 98.8 62.7087 99.26C62.9887 99.74 63.1287 100.4 63.1287 101.28V104.68C63.1287 105.16 63.2287 105.54 63.4487 105.8C63.6487 106.06 63.9887 106.18 64.4487 106.18C65.3287 106.18 65.7887 105.68 65.7887 104.68V101.28C65.7887 100.4 65.9087 99.74 66.1887 99.26C66.4687 98.8 66.9487 98.56 67.6687 98.56C68.3687 98.56 68.8487 98.8 69.1287 99.26C69.4087 99.74 69.5487 100.4 69.5487 101.28V104.68C69.5487 105.68 69.9887 106.18 70.8687 106.18C71.7487 106.18 72.1887 105.68 72.1887 104.68V101.12ZM76.477 105.58C77.217 106 78.057 106.2 79.017 106.2C79.957 106.2 80.797 106 81.537 105.58C82.277 105.16 82.857 104.56 83.277 103.8C83.677 103.04 83.897 102.18 83.897 101.18C83.897 100.2 83.677 99.32 83.277 98.56C82.857 97.8 82.277 97.22 81.537 96.8C80.797 96.38 79.957 96.16 79.017 96.16C78.057 96.16 77.217 96.38 76.477 96.8C75.737 97.22 75.157 97.8 74.757 98.56C74.337 99.32 74.137 100.2 74.137 101.18C74.137 102.18 74.337 103.04 74.757 103.8C75.157 104.56 75.737 105.16 76.477 105.58ZM80.617 103.12C80.257 103.58 79.717 103.8 79.017 103.8C78.297 103.8 77.757 103.58 77.397 103.12C77.037 102.68 76.857 102.02 76.857 101.18C76.857 100.36 77.037 99.72 77.397 99.26C77.757 98.8 78.297 98.56 79.017 98.56C79.717 98.56 80.257 98.8 80.617 99.24C80.977 99.7 81.177 100.34 81.177 101.18C81.177 102.02 80.977 102.68 80.617 103.12ZM94.166 97.52C93.486 96.62 92.506 96.16 91.226 96.16C90.106 96.16 89.246 96.56 88.606 97.34C88.526 96.58 88.086 96.2 87.306 96.2C86.426 96.2 85.986 96.7 85.986 97.68V104.68C85.986 105.68 86.426 106.18 87.306 106.18C88.186 106.18 88.626 105.68 88.626 104.68V101.32C88.626 100.4 88.766 99.7 89.046 99.24C89.326 98.8 89.826 98.56 90.586 98.56C91.326 98.56 91.846 98.8 92.126 99.24C92.406 99.7 92.546 100.4 92.546 101.32V104.68C92.546 105.68 92.986 106.18 93.866 106.18C94.306 106.18 94.646 106.06 94.866 105.8C95.066 105.54 95.186 105.16 95.186 104.68V101.16C95.186 99.64 94.846 98.42 94.166 97.52Z" fill="white"/>
</g>
</g>
<g clip-path="url(#clip0)">
<path fill-rule="evenodd" clip-rule="evenodd" d="M22.3698 135.259C22.8971 136.061 23.9342 135.937 24.3795 135.317C29.4499 136.498 34.648 136.033 39.7889 135.743C54.2755 135.153 68.8439 137.002 83.2719 135.068C84.8025 134.762 86.5839 134.908 87.8362 133.846C89.8393 131.498 89.4079 127.933 89.0888 125.073C86.5312 108.951 82.8951 92.6812 81.0812 76.4555C80.9799 74.91 81.6166 72.9896 82.1874 71.5367C82.3284 71.2664 83.2194 71.0015 83.6818 70.6897C85.1009 69.6708 84.8708 67.8447 83.6406 66.7733C79.6577 63.9647 74.1132 64.9461 69.888 65.9823C69.0783 62.94 68.1682 60.939 66.6265 60.7409C63.6922 60.3637 56.5742 59.2112 54.3816 60.7409C53.3327 61.4727 52.6595 64.0513 51.9044 65.3075C46.398 65.2096 35.2222 57.8397 32.9246 66.1388C31.0578 66.2678 29.2089 67.8982 29.566 69.8546C27.145 71.9948 29.0545 75.2038 29.021 77.8676C28.7027 83.5195 25.6457 88.574 24.3738 94.0337C21.4667 104.623 18.1762 123.885 21.7819 134.221C21.7043 134.18 21.5349 134.241 21.6446 134.327C22.0529 134.442 22.106 134.957 22.3698 135.259Z" fill="white"/>
<path fill-rule="evenodd" clip-rule="evenodd" d="M85.6772 132.566C85.001 127.135 84.5307 120.578 84.5253 115.102C84.5248 114.586 85.3248 114.587 85.3253 115.102C85.3307 120.578 85.8009 127.135 86.4772 132.566C86.5408 133.077 85.74 133.071 85.6772 132.566ZM80.6675 98.8901C79.6225 99.5294 78.2503 99.086 77.2161 98.6626C76.7452 98.4698 76.9526 97.696 77.4287 97.8909C78.2158 98.2132 79.3661 98.6875 80.1968 98.2382C81.0259 97.7896 81.0632 96.5558 81.0695 95.7416C81.0733 95.226 81.8732 95.2264 81.8694 95.7416C81.861 96.8493 81.7129 98.2503 80.6675 98.8901ZM78.7333 123.745C77.679 123.204 76.7794 122.465 76.0555 121.527C75.7408 121.119 76.4361 120.721 76.7462 121.123C77.3834 121.948 78.2136 122.58 79.137 123.054C79.5958 123.289 79.1905 123.979 78.7333 123.745ZM73.6659 95.8146C71.857 103.066 70.643 110.448 70.048 117.898C69.927 119.411 69.842 120.921 69.794 122.433C69.746 122.827 69.7001 123.222 69.6571 123.617C69.4941 125.112 69.3691 126.63 69.3801 128.135C69.3851 128.81 69.4061 129.482 69.4521 130.155C69.3721 129.93 69.2981 129.704 69.2261 129.479C69.0791 129.018 68.9821 128.54 68.8321 128.082C68.7081 127.703 68.5481 127.34 68.3991 126.972V126.971C68.4441 125.468 68.3421 123.95 68.2901 122.454C68.2231 120.515 68.1401 118.579 68.0971 116.639C68.0111 112.76 68.0541 108.877 68.1941 105C68.4751 97.1871 69.1851 89.4115 69.901 81.6307C70.1 79.4669 70.314 77.3042 70.462 75.1363C70.611 72.9457 70.671 70.7509 70.688 68.5542C70.689 68.3961 70.449 68.3542 70.405 68.5071C70.366 67.986 70.297 67.4658 70.182 66.9626C71.907 68.063 73.7259 69.0143 75.5088 70.0147C76.4478 70.5418 77.3827 71.078 78.3507 71.5502C78.8827 71.8102 79.4196 72.0494 79.9676 72.2754C80.5356 72.5095 81.0786 72.8316 81.7035 72.6685C81.7575 72.6546 81.8085 72.6346 81.8575 72.6086C81.7865 72.7435 81.7155 72.8777 81.6475 73.0138C81.4115 73.4829 81.1865 73.954 80.9686 74.4292C80.9106 74.4722 80.8596 74.5313 80.8196 74.6083C80.7136 74.8153 80.6106 75.0244 80.5106 75.2364C80.4906 75.2175 80.4706 75.1985 80.4506 75.1794C80.3666 75.1004 80.2506 75.2194 80.3246 75.3055C80.3586 75.3444 80.3916 75.3825 80.4246 75.4215C79.7726 76.825 79.2426 78.3005 78.6967 79.7411C78.0257 81.5117 77.3897 83.2953 76.7907 85.0909C75.6098 88.6231 74.5678 92.2014 73.6659 95.8146ZM47.804 122.131C44.4701 123.917 41.3546 126.052 38.3581 128.354C37.9496 128.668 37.5517 127.972 37.9543 127.663C40.9508 125.361 44.0664 123.226 47.4003 121.44C47.8545 121.197 48.2581 121.888 47.804 122.131ZM36.5435 101.212C36.3702 101.199 36.2018 101.099 36.1578 100.918C35.8877 99.8123 35.6762 98.6073 35.9274 97.479C36.0394 96.9757 36.8105 97.1899 36.6988 97.6917C36.5007 98.5814 36.6581 99.5431 36.8638 100.43C39.7716 100.558 42.6403 99.5138 45.4223 98.8129C45.9226 98.6868 46.1339 99.4589 45.635 99.5845C42.6839 100.328 39.6315 101.441 36.5435 101.212ZM94.431 130.719C94.434 130.712 94.437 130.704 94.439 130.697C94.61 130.179 94.614 129.576 94.633 129.033C94.666 128.067 94.631 127.098 94.544 126.135C94.36 124.107 93.964 122.113 93.491 120.135C92.554 116.218 91.2301 112.406 90.5111 108.436C89.1002 100.642 89.4352 92.5275 86.6663 85.01C85.5154 81.8848 83.8714 78.8807 81.6375 76.3979C81.8005 75.9017 81.9595 75.4045 82.1145 74.9054C82.3855 74.0371 82.6625 73.1407 82.8295 72.2464C82.8335 72.2224 82.8385 72.1974 82.8415 72.1724C83.7924 71.7623 84.6574 70.989 84.8054 69.9606C84.8694 69.5165 84.7954 69.0243 84.6034 68.5952C84.9954 68.233 85.2474 67.7629 85.1874 67.1327C85.0754 65.9462 83.6904 65.641 82.7265 65.4091C81.6305 65.146 80.4936 65.0729 79.3726 65.197C78.8067 65.259 78.2467 65.363 77.6997 65.5191C77.2247 65.6541 76.7077 65.7932 76.3268 66.1193C76.2818 66.1573 76.3188 66.2313 76.3728 66.2313C77.1437 66.2284 77.9117 65.9452 78.6907 65.9081C79.5066 65.8702 80.3206 65.9372 81.1206 66.1053C81.9025 66.2694 82.6825 66.5094 83.3935 66.8806C83.5934 66.9856 83.8864 67.0566 83.6514 67.2687C83.4794 67.4238 83.1415 67.4369 82.9205 67.4598C82.4315 67.5108 82.0095 67.7969 81.9475 68.3191C81.8925 68.7802 82.1675 69.3024 82.6575 69.4064C82.6845 69.4125 82.7095 69.4194 82.7315 69.4285C82.7445 69.4535 82.7645 69.4745 82.7625 69.4405C82.7625 69.4405 82.7635 69.4395 82.7635 69.4405C82.7755 69.5135 82.7795 69.5424 82.7795 69.5475C82.7765 69.5415 82.7715 69.5165 82.7675 69.4965C82.7705 69.5145 82.7765 69.5435 82.7845 69.5865C82.7735 69.5395 82.7825 69.6546 82.7735 69.6725C82.5135 70.1527 81.7445 70.2879 81.2965 70.4948C81.2095 70.5347 81.1346 70.5819 81.0706 70.6348C80.9646 70.5979 80.8566 70.5608 80.7476 70.5198C80.2106 70.3188 79.6746 70.1237 79.1306 69.9425C78.0807 69.5915 77.0177 69.2784 75.9678 68.9263C73.9799 68.26 72.0579 67.4188 70.107 66.6565C70.045 66.4264 69.973 66.2013 69.888 65.9823C69.871 65.9363 69.789 65.9212 69.78 65.9823C69.75 66.1763 69.7261 66.3714 69.7061 66.5675C69.6981 66.5855 69.696 66.6055 69.7001 66.6245C69.5871 67.7649 69.6171 68.9323 69.5591 70.0717C69.4871 71.4922 69.2861 72.9027 69.2291 74.3242V74.3502C69.0191 75.5636 68.8291 76.781 68.6571 78.0024C68.4641 77.9424 68.2431 77.9544 68.0171 78.0755C66.4192 78.9288 64.6233 79.4039 62.8164 79.51C61.9064 79.5629 61.0054 79.5331 60.1005 79.4279C59.5055 79.3599 58.9195 79.2359 58.3326 79.1178C58.6415 77.8224 58.9735 76.5329 59.3485 75.2566C59.6575 74.2071 60.0015 73.1627 60.4265 72.1534C60.8554 71.134 61.3894 70.1607 61.8864 69.1724C62.1154 68.7152 61.8454 68.016 61.2504 68.064C61.0744 68.078 60.8984 68.089 60.7214 68.097C58.9995 68.1791 57.2086 67.9871 55.5087 67.8159C53.5738 67.6198 51.6128 67.4167 49.6949 67.0976C49.5529 67.0746 49.4949 67.2677 49.6349 67.3147C50.5449 67.6208 51.4439 67.9668 52.3768 68.196C53.3368 68.4331 54.3027 68.6492 55.2767 68.8182C56.2096 68.9794 57.1466 69.1143 58.0866 69.2284C58.6995 69.3034 59.3195 69.3414 59.9365 69.3914C59.1055 70.7199 58.5325 72.2183 58.0336 73.6938C57.3926 75.5886 56.9216 77.5383 56.4606 79.4839C55.4747 83.6544 54.6617 87.8669 54.0257 92.1053C53.5698 95.1444 53.2008 98.1954 52.9238 101.255C52.8418 100.325 52.7418 99.3989 52.6288 98.4735C52.2508 95.4014 51.6988 92.3494 50.9609 89.3434C51.0269 89.2273 51.0579 89.0883 51.0359 88.9532C50.9029 88.1269 50.5529 87.4077 50.2459 86.6414C49.9409 85.5711 49.6119 84.5077 49.2579 83.4523C48.856 82.0148 48.405 80.5993 47.828 79.2169C47.387 78.1635 46.8841 77.137 46.3241 76.1418C45.6551 74.7503 44.9201 73.3889 44.1132 72.0874C44.0712 71.9663 44.0032 71.8533 43.9062 71.7583C43.7592 71.5262 43.6102 71.2971 43.4582 71.07C43.3592 70.922 43.0752 71.012 43.1502 71.2001C43.1852 71.2882 43.2202 71.3761 43.2562 71.4633C39.9694 70.6409 36.7465 71.8983 33.6156 72.8266C32.8257 73.0617 32.0277 73.2738 31.2177 73.4268C30.5808 73.5469 29.8388 73.6929 29.2038 73.5608C28.7788 73.4729 28.5909 73.2798 28.7978 72.8256C29.0118 72.3556 29.5958 72.0464 30.1028 71.8384C30.2938 71.7973 30.4818 71.7242 30.6628 71.6142C31.0847 71.3581 31.2697 70.8239 31.0707 70.3688C30.8898 69.9576 30.3618 69.6035 29.8948 69.7916C29.8278 69.8186 29.7618 69.8446 29.6958 69.8706C29.6888 69.8606 29.6808 69.8466 29.6738 69.8266C29.6068 69.6435 29.5778 69.8627 29.6068 69.6005C29.6548 69.1724 30.1078 68.7832 30.4178 68.5381C31.1887 67.9269 32.3027 67.4748 33.2976 67.7059C33.3726 67.7229 33.4476 67.7439 33.5216 67.7699C34.5466 68.125 35.0456 66.6485 34.2266 66.0983C34.1766 66.0653 34.1136 66.0233 34.0446 65.9743C33.7036 65.7372 33.2047 65.338 33.3406 64.978C33.5086 64.5308 34.4996 64.2737 34.8746 64.1216C36.2305 63.5714 37.6955 63.2593 39.1574 63.1953C40.6283 63.1313 42.1183 63.2933 43.5372 63.6904C44.2332 63.8845 44.9481 64.1796 45.6061 64.4778C46.1971 64.7448 47.483 65.0979 47.565 65.8462C47.583 66.0114 47.818 66.0673 47.869 65.8872C48.272 64.4507 46.7081 63.5234 45.6761 62.9302C44.9991 62.54 44.2312 62.297 43.4882 62.0579C42.7762 61.8278 42.0493 61.6588 41.3073 61.5566C39.7144 61.3386 38.1024 61.3667 36.5225 61.6728C35.0836 61.952 33.4826 62.428 32.3197 63.3543C31.6057 63.9225 31.2827 64.8269 31.5697 65.7092C31.5797 65.7382 31.5897 65.7682 31.5997 65.7972C30.3148 66.0273 29.0988 66.7635 28.2859 67.7899C27.6179 68.6332 27.2679 69.8066 27.8659 70.788C27.8409 70.8059 27.8159 70.8249 27.7919 70.8449C27.2219 71.3011 26.7979 71.9634 26.6719 72.6876C26.4249 74.1161 27.2879 75.1154 28.4949 75.4976C28.1959 75.7898 27.9089 76.0998 27.6279 76.4099C26.9989 77.1051 26.3979 77.8623 25.868 78.6346C24.794 80.1992 23.8761 81.9028 23.0731 83.6194C21.4222 87.1446 20.3812 90.9389 19.8292 94.7863C19.5512 96.7249 19.3653 98.6736 19.2943 100.63C19.2123 102.861 19.2953 105.093 19.2523 107.325C19.2103 109.469 18.9733 111.562 18.4943 113.653C18.0353 115.653 17.4233 117.612 16.8694 119.586C16.2444 121.809 15.5564 124.021 15.2264 126.313C15.0594 127.48 14.9395 128.649 15.0324 129.828C15.1264 131.03 15.5624 132.057 15.9644 133.175C16.0664 133.46 16.3774 133.575 16.6264 133.514C16.6824 134.049 16.8844 134.571 17.1854 135.023C17.8243 135.982 18.8083 136.593 19.9352 136.815C21.2052 137.064 22.5141 137.005 23.8001 136.959C25.195 136.909 26.5909 136.864 27.9859 136.806C29.4463 136.746 30.9067 136.684 32.3671 136.621C32.3188 135.124 32.2612 133.627 32.1961 132.13C31.844 124.039 31.2895 115.943 31.2748 107.841C31.2465 107.824 31.2187 107.805 31.1921 107.779C30.5347 107.143 29.7275 106.726 28.9691 106.228C28.54 105.947 28.9411 105.254 29.3729 105.537C30.0123 105.957 30.6786 106.329 31.2777 106.799C31.2812 105.956 31.2886 105.113 31.3053 104.269C31.3155 103.754 32.1155 103.754 32.1053 104.269C32.0551 106.811 32.0719 109.354 32.1294 111.896C32.3155 120.132 32.9005 128.354 33.1669 136.587C37.0867 136.419 41.0067 136.251 44.9271 136.108C48.116 135.992 51.3049 135.876 54.4937 135.759C55.1627 135.736 55.5387 135.257 55.6207 134.632C55.7707 133.482 55.4887 132.292 54.8507 131.325C54.7847 131.225 54.7067 131.136 54.6197 131.06C54.6347 130.371 54.6627 129.68 54.6237 128.991C54.5657 127.939 54.4787 126.886 54.4027 125.835C54.2487 123.729 54.1297 121.62 54.0827 119.509C53.9867 115.287 54.0567 111.062 54.2957 106.846C54.7747 98.4245 55.8897 90.0566 57.7146 81.8188C57.8476 81.2185 57.9816 80.6183 58.1206 80.0191C59.5395 80.7564 61.2654 81.0214 62.8164 81.0315C64.7603 81.0435 66.6612 80.5962 68.4171 79.7831C68.4051 79.8741 68.3931 79.9641 68.3821 80.0551C67.8921 83.9565 67.4791 87.8658 67.1192 91.7802C66.4012 99.5839 65.9612 107.42 66.0222 115.258C66.0392 117.43 66.1222 119.595 66.2252 121.764C66.3302 123.969 66.4912 126.3 67.1052 128.428C67.1732 128.663 67.3242 128.798 67.4981 128.847C67.5071 129.157 67.5271 129.468 67.5491 129.774C67.6201 130.77 67.8231 132.837 68.2571 133.74C68.6801 134.62 69.3851 135.318 70.284 135.703C71.426 136.19 72.6609 136.05 73.8669 135.972C79.1106 135.629 84.3504 135.171 89.5912 134.769C90.3211 134.713 91.0511 134.658 91.7801 134.601C92.4291 134.551 93.1 134.507 93.676 134.17C94.331 133.787 94.8419 131.905 94.616 131.127C94.575 130.985 94.513 130.845 94.431 130.719Z" fill="#EF4444"/>
<path fill-rule="evenodd" clip-rule="evenodd" d="M78.1553 46.5285C78.1155 44.2875 78.0715 42.0017 77.7385 39.7825C77.4129 37.613 76.5173 35.6519 74.9781 34.0764C71.709 30.73 66.9702 29.9126 62.5592 29.1635L55.0176 27.8828C52.7168 27.4922 50.2622 26.8677 47.9376 27.4217C46.7922 27.6947 45.8194 28.3289 44.9304 29.0793C44.0734 29.8026 43.152 30.5792 42.5714 31.5523C41.9897 32.5267 41.7896 33.6658 41.6005 34.7679C41.3872 36.0104 41.2215 37.2627 41.1038 38.5179C40.8679 41.0328 40.8357 43.5665 41.0068 46.0866C41.0897 47.3089 41.2216 48.5278 41.39 49.7412C41.4735 50.3429 41.5679 50.9431 41.6745 51.5412C41.7059 51.7176 41.7298 51.9128 41.762 52.1101C41.5241 52.7869 41.3889 53.4879 41.3998 54.1858C41.4319 56.2417 43.1665 57.5361 44.9153 58.231C45.9292 58.634 46.9893 58.9078 47.9855 59.3579C49.0336 59.8314 49.7469 60.599 50.4635 61.4746C51.8302 63.1445 53.3724 64.6455 55.1334 65.8977C58.867 68.5527 63.596 69.8085 68.1262 68.8553C69.2132 68.6266 70.3097 68.2715 71.2868 67.7364C72.3184 67.1715 73.094 66.353 73.7454 65.3851C74.9548 63.5884 75.8222 61.5652 76.4784 59.5064C77.1476 57.4062 77.6227 55.3023 77.8818 53.1125C78.14 50.9297 78.1944 48.7247 78.1553 46.5285Z" fill="white"/>
<path fill-rule="evenodd" clip-rule="evenodd" d="M54.0894 20.0765C57.2102 19.647 61.5178 21.0428 63.072 23.8572C70.4923 22.1072 79.8512 22.0498 85.967 27.8756C92.3486 34.7862 84.333 43.8978 79.0179 45.9521C79.4049 47.8335 78.8015 59.8862 74.5322 65.2624C71.1439 69.8175 63.2536 71.9198 59.6024 66.479L59.574 66.4341C59.1828 65.8057 59.5197 65.8259 59.9212 66.2933C63.4965 69.4386 68.3576 69.4923 72.1035 66.173C79.124 60.1059 78.4001 45.2297 75.0595 36.6236C65.5469 35.5784 55.3619 38.4627 48.7917 45.6261L49.236 48.3019C49.3117 48.7577 49.3977 49.2132 49.4633 49.6706C49.5053 49.9637 49.51 50.2552 49.307 50.4925C48.6367 51.2758 47.5071 50.0988 46.5776 49.6306C46.3032 49.592 46.0283 49.5771 45.7587 49.5961C41.2931 50.1715 42.173 58.8375 47.081 57.3185C47.4934 57.0615 47.8477 57.1399 48.0077 57.5129C49.1775 58.5848 49.9489 60.4967 51.8925 62.3381C52.5782 63.0289 53.2023 63.6068 53.9737 64.1609C54.4268 64.6192 55.7939 65.0866 55.3605 65.871C54.541 67.6558 49.7081 62.0493 48.8536 60.4989C46.1764 61.5565 43.2096 61.1972 40.4352 60.9388C25.7988 60.1775 27.7527 44.7431 39.7498 34.9986C42.0081 33.3355 44.4997 31.9787 47.0897 30.9346C47.4433 30.7921 47.2888 30.2113 46.9302 30.3558C45.2165 31.0468 43.5458 31.8692 41.9533 32.821L41.9509 32.2519C41.9486 31.2935 41.9636 30.2956 42.13 29.4199C42.2132 28.8131 42.3531 28.165 42.5685 27.6774C42.8348 26.1826 47.0061 21.0516 54.0894 20.0765ZM45.5634 51.5857C45.7894 51.3709 46.2113 51.627 46.4125 51.6206C46.927 51.691 47.4157 51.9084 47.7969 52.1767C48.0486 52.3177 48.225 52.4502 48.3724 52.572L48.3764 52.5709C48.3753 52.5709 48.3739 52.572 48.3727 52.5723L48.3866 52.5817C48.6012 52.7342 49.3868 53.5935 48.8905 53.3624C48.8535 53.3143 48.8156 53.2681 48.7774 53.2227C48.7733 53.2289 48.7676 53.235 48.7608 53.2409L48.7887 53.2823C49.2105 53.9172 48.4822 53.2483 48.3701 53.0707C48.3648 53.075 48.3588 53.0779 48.3529 53.081L48.4988 53.2587C48.5192 53.2839 48.5353 53.304 48.5486 53.3211L48.5794 53.3508C49.0671 53.8304 49.0824 54.2621 48.5157 53.553C48.538 53.5864 48.5559 53.6218 48.5584 53.6532L48.592 53.696C49.0369 54.2696 48.675 54.0659 48.4539 53.8209L48.4354 53.7998L48.4392 53.8056C48.6449 54.1226 48.2368 53.9001 48.1646 53.7306L48.1616 53.7229C48.083 53.6588 48.0347 53.5868 48.0181 53.5686L48.015 53.5656C47.6324 53.1734 47.0779 52.8416 46.6068 52.6908C46.5385 52.6778 46.4694 52.6674 46.3996 52.66C46.1163 52.5968 45.8299 52.5535 45.5405 52.5301C45.5051 52.5259 45.4692 52.4999 45.4424 52.4663C45.0048 52.4515 45.1399 52.2721 45.3215 52.2388L45.3246 52.2382L45.2886 52.2352C45.0078 52.2077 44.816 52.1069 45.1 52.0451L45.1359 52.0379C45.1315 52.031 45.1276 52.0241 45.1238 52.0172C44.8806 51.9905 45.0393 51.754 45.1743 51.8112C45.1175 51.6255 45.3771 51.7182 45.4095 51.6906C45.4342 51.6632 45.4649 51.639 45.4826 51.6377C45.5608 51.5825 45.5229 51.5875 45.5634 51.5857ZM47.0514 48.5781L46.9944 48.6114C46.9483 48.6383 46.9009 48.6562 46.8533 48.6667C46.9205 48.6953 46.9869 48.7262 47.0526 48.7592C47.0515 48.7189 47.0508 48.6786 47.0508 48.6383L47.0514 48.5781Z" fill="#EF4444"/>
<path fill-rule="evenodd" clip-rule="evenodd" d="M66.8564 60.9069C66.1842 60.6326 65.5844 60.175 65.146 59.5904C64.9935 59.3872 64.954 59.1726 64.986 58.9763C65.0219 58.7556 65.1524 58.5556 65.3304 58.4214C65.509 58.2869 65.7323 58.2205 65.9482 58.2543C66.1358 58.2837 66.3226 58.3865 66.4704 58.5996L66.5013 58.6422C66.762 58.9951 67.1017 59.2845 67.4888 59.4711C67.8618 59.651 68.2791 59.7349 68.7109 59.6861C69.5332 59.5932 70.1 59.1483 70.7025 58.5441C70.7771 58.4678 70.8519 58.3891 70.9269 58.3092C70.9744 58.2367 71.0402 58.1902 71.1132 58.1657C71.1944 58.1386 71.2861 58.1401 71.3702 58.1695C71.4512 58.1978 71.5237 58.2514 71.5723 58.3228C71.6185 58.3906 71.6447 58.4744 71.6362 58.5708C71.581 59.197 71.2538 59.7558 70.789 60.1945C70.2728 60.6818 69.5885 61.019 68.9443 61.1372C68.2345 61.2675 67.5113 61.1741 66.8564 60.9069ZM69.2791 51.2476C70.0342 51.7068 71.1847 52.7774 70.3724 53.9158C69.4162 54.9195 68.0396 53.7686 67.3612 53.2482C66.7321 52.8448 66.0253 53.8822 66.609 54.3532C71.5111 57.984 73.5005 51.3677 69.661 50.7077C69.2383 50.635 69.0812 51.1055 69.2791 51.2476ZM60.4944 47.024C60.5778 45.9881 62.155 45.7528 62.3119 46.778C62.4524 47.6963 62.287 48.5399 61.8735 49.3667C61.4784 50.1565 60.4854 49.788 60.4103 49.0688C60.3097 48.1046 60.4425 47.6685 60.4944 47.024ZM72.5002 46.5654C72.7201 46.2773 73.0376 46.0806 73.418 46.1918C74.6064 46.5392 74.2561 48.2271 73.8387 49.0487C73.612 49.4948 72.8789 49.608 72.5476 49.2151C72.0076 48.5745 71.749 47.2952 72.4355 46.6641C72.4541 46.6315 72.4748 46.5986 72.5002 46.5654ZM61.8568 42.4909L62.0445 42.458C62.6252 42.3575 63.3473 42.261 63.7582 42.7281C63.9761 42.9757 64.0511 43.4361 63.7582 43.6732C63.243 44.0903 62.6734 43.9287 62.0561 43.964C61.5473 43.9932 61.0583 44.0774 60.5682 44.2176C59.4931 44.525 58.617 45.0862 57.6987 45.7024C57.5783 45.7832 57.4553 45.6291 57.5128 45.5163C58.0428 44.4777 59.0701 43.6245 60.099 43.1044C60.6482 42.8268 61.2492 42.5965 61.8568 42.4909ZM71.4168 42.0256L71.5605 42.055C73.1242 42.382 75.1557 43.0352 75.8962 44.5716C75.9244 44.7889 75.8946 44.8355 75.8704 44.8659L75.8623 44.876C75.8423 44.902 75.8264 44.9378 75.7322 44.9674C75.7061 44.9611 75.6797 44.9546 75.6531 44.9476C75.3137 44.8586 75.0451 44.736 74.7851 44.6088L74.5033 44.4699C74.1762 44.3094 73.8463 44.1549 73.4966 44.0408C72.7505 43.7973 71.9829 43.6258 71.2035 43.5342C71.0346 43.5143 70.8719 43.4573 70.7436 43.3596C70.6218 43.2668 70.5287 43.1383 70.4863 42.9675C70.4313 42.7466 70.4471 42.5793 70.5656 42.3799C70.6548 42.2302 70.7823 42.1264 70.9287 42.0668C71.078 42.0061 71.2479 41.9918 71.4168 42.0256Z" fill="#EF4444"/>
<path fill-rule="evenodd" clip-rule="evenodd" d="M79.1241 53.3121C78.7927 52.867 78.197 52.2829 77.5945 52.3143C77.5174 52.3183 77.4885 52.4019 77.5348 52.4584C77.7319 52.6992 78.0011 52.8704 78.1986 53.1162C78.4323 53.4071 78.601 53.7579 78.7107 54.1128C78.8701 54.6282 78.9141 55.2116 78.772 55.7358C78.5216 56.6597 77.7299 57.337 76.8662 57.6828C76.0112 58.0251 74.9825 58.1421 74.1739 57.6405C72.9805 56.9 71.9682 55.8327 70.4682 55.8115C70.1173 55.8066 69.87 55.9674 69.7227 56.1969C69.5747 55.9756 69.3305 55.819 68.9884 55.8151C67.3068 55.7962 66.0517 56.9543 64.6402 57.6763C63.6864 58.1643 62.4521 58.0128 61.4681 57.6904C60.5398 57.3864 59.5321 56.7759 59.182 55.8118C58.9887 55.2795 59.032 54.6578 59.2305 54.1331C59.361 53.7879 59.5624 53.4545 59.8117 53.1833C60.0702 52.902 60.41 52.7252 60.6748 52.4585C60.7289 52.404 60.6862 52.3192 60.6151 52.3143C59.4905 52.238 58.4751 53.5813 58.2628 54.5558C58.0537 55.5155 58.3655 56.4728 58.9966 57.2051C60.2798 58.694 62.6559 59.1851 64.5052 58.7476C66.0021 58.3935 67.4237 57.5781 68.9884 57.6951C69.3314 57.7208 69.5776 57.5778 69.7262 57.3609C69.875 57.5841 70.1228 57.73 70.4682 57.6966C71.9265 57.5553 73.2281 58.5884 74.6437 58.8407C75.7707 59.0415 76.9882 58.7707 77.9539 58.1633C78.9634 57.5283 79.674 56.5099 79.7208 55.2957C79.7477 54.5971 79.5428 53.8744 79.1241 53.3121Z" fill="#EF4444"/>
</g>
<defs>
<filter id="filter0_dd" x="0" y="0" width="120" height="120" filterUnits="userSpaceOnUse" color-interpolation-filters="sRGB">
<feFlood flood-opacity="0" result="BackgroundImageFix"/>
<feColorMatrix in="SourceAlpha" type="matrix" values="0 0 0 0 0 0 0 0 0 0 0 0 0 0 0 0 0 0 127 0"/>
<feOffset dy="8"/>
<feGaussianBlur stdDeviation="8"/>
<feColorMatrix type="matrix" values="0 0 0 0 0.505882 0 0 0 0 0.243137 0 0 0 0 0.752941 0 0 0 0.08 0"/>
<feBlend mode="normal" in2="BackgroundImageFix" result="effect1_dropShadow"/>
<feColorMatrix in="SourceAlpha" type="matrix" values="0 0 0 0 0 0 0 0 0 0 0 0 0 0 0 0 0 0 127 0"/>
<feOffset dy="4"/>
<feGaussianBlur stdDeviation="4"/>
<feColorMatrix type="matrix" values="0 0 0 0 0.301961 0 0 0 0 0.145098 0 0 0 0 0.45098 0 0 0 0.08 0"/>
<feBlend mode="normal" in2="effect1_dropShadow" result="effect2_dropShadow"/>
<feBlend mode="normal" in="SourceGraphic" in2="effect2_dropShadow" result="shape"/>
</filter>
<filter id="filter1_dd" x="-7" y="65" width="134.186" height="100" filterUnits="userSpaceOnUse" color-interpolation-filters="sRGB">
<feFlood flood-opacity="0" result="BackgroundImageFix"/>
<feColorMatrix in="SourceAlpha" type="matrix" values="0 0 0 0 0 0 0 0 0 0 0 0 0 0 0 0 0 0 127 0"/>
<feOffset dy="16"/>
<feGaussianBlur stdDeviation="16"/>
<feColorMatrix type="matrix" values="0 0 0 0 0.0235294 0 0 0 0 0.588235 0 0 0 0 0.592157 0 0 0 0.12 0"/>
<feBlend mode="normal" in2="BackgroundImageFix" result="effect1_dropShadow"/>
<feColorMatrix in="SourceAlpha" type="matrix" values="0 0 0 0 0 0 0 0 0 0 0 0 0 0 0 0 0 0 127 0"/>
<feOffset dy="8"/>
<feGaussianBlur stdDeviation="8"/>
<feColorMatrix type="matrix" values="0 0 0 0 0.0156863 0 0 0 0 0.376471 0 0 0 0 0.380392 0 0 0 0.12 0"/>
<feBlend mode="normal" in2="effect1_dropShadow" result="effect2_dropShadow"/>
<feBlend mode="normal" in="SourceGraphic" in2="effect2_dropShadow" result="shape"/>
</filter>
<filter id="filter2_i" x="33" y="83" width="62.186" height="30" filterUnits="userSpaceOnUse" color-interpolation-filters="sRGB">
<feFlood flood-opacity="0" result="BackgroundImageFix"/>
<feBlend mode="normal" in="SourceGraphic" in2="BackgroundImageFix" result="shape"/>
<feColorMatrix in="SourceAlpha" type="matrix" values="0 0 0 0 0 0 0 0 0 0 0 0 0 0 0 0 0 0 127 0" result="hardAlpha"/>
<feOffset dy="-2"/>
<feGaussianBlur stdDeviation="2"/>
<feComposite in2="hardAlpha" operator="arithmetic" k2="-1" k3="1"/>
<feColorMatrix type="matrix" values="0 0 0 0 0 0 0 0 0 0 0 0 0 0 0 0 0 0 0.9 0"/>
<feBlend mode="soft-light" in2="shape" result="effect1_innerShadow"/>
</filter>
<clipPath id="clip0">
<rect x="20" y="12" width="80" height="80" rx="40" fill="white"/>
</clipPath>
</defs>
</svg>
