<svg width="22" height="19" viewBox="0 0 22 19" fill="none" xmlns="http://www.w3.org/2000/svg">
<path d="M21.8123 3.05034C21.0072 3.40349 20.1494 3.63756 19.255 3.75122C20.1751 3.20188 20.8773 2.33865 21.2074 1.29816C20.3496 1.80961 19.4025 2.17087 18.3931 2.37247C17.5786 1.50517 16.4177 0.968018 15.1512 0.968018C12.6941 0.968018 10.716 2.9624 10.716 5.40734C10.716 5.75913 10.7458 6.09739 10.8188 6.41941C7.12908 6.23945 3.8642 4.47103 1.67092 1.77713C1.28801 2.44148 1.06341 3.20188 1.06341 4.02047C1.06341 5.55752 1.85493 6.92003 3.03478 7.70885C2.32173 7.69532 1.62221 7.48831 1.02958 7.16223C1.02958 7.17576 1.02958 7.19335 1.02958 7.21094C1.02958 9.36768 2.56799 11.1591 4.58537 11.5718C4.2241 11.6706 3.83037 11.7179 3.42175 11.7179C3.13761 11.7179 2.85077 11.7017 2.58152 11.6421C3.15656 13.3997 4.78832 14.6919 6.72858 14.7338C5.21859 15.915 3.30133 16.6267 1.22577 16.6267C0.861803 16.6267 0.512719 16.6105 0.163635 16.5658C2.1296 17.8336 4.45953 18.5575 6.97213 18.5575C15.1391 18.5575 19.6041 11.7923 19.6041 5.92826C19.6041 5.73207 19.5973 5.54264 19.5879 5.35457C20.4687 4.72946 21.2088 3.94876 21.8123 3.05034Z" fill="white"/>
</svg>
